<ttFont>
<head>
    <!-- Most of this table will be recalculated by the compiler -->
    <tableVersion value="1.0"/>
    <fontRevision value="1.0"/>
    <checkSumAdjustment value="0xab6ad214"/>
    <magicNumber value="0x5f0f3cf5"/>
    <flags value="00000000 00001011"/>
    <unitsPerEm value="1024"/>
    <created value="Tue Oct  6 14:47:56 2009"/>
    <modified value="Tue Oct  6 14:47:56 2009"/>
    <xMin value="-192"/>
    <yMin value="-192"/>
    <xMax value="512"/>
    <yMax value="512"/>
    <macStyle value="00000000 00000000"/>
    <lowestRecPPEM value="8"/>
    <fontDirectionHint value="2"/>
    <indexToLocFormat value="0"/>
    <glyphDataFormat value="0"/>
  </head>
    <TTGlyph name=".notdef" xMin="0" yMin="0" xMax="512" yMax="512">
      <contour>
        <pt x="256" y="72" on="1"/>
        <pt x="256" y="154" on="1"/>
        <pt x="174" y="154" on="1"/>
        <pt x="174" y="72" on="1"/>
      </contour>
      <contour>
        <pt x="337" y="167" on="1"/>
        <pt x="337" y="249" on="1"/>
        <pt x="174" y="249" on="1"/>
        <pt x="174" y="167" on="1"/>
      </contour>
      <contour>
        <pt x="256" y="262" on="1"/>
        <pt x="256" y="344" on="1"/>
        <pt x="174" y="344" on="1"/>
        <pt x="174" y="262" on="1"/>
      </contour>
      <contour>
        <pt x="337" y="357" on="1"/>
        <pt x="337" y="438" on="1"/>
        <pt x="256" y="438" on="1"/>
        <pt x="222" y="438" on="0"/>
        <pt x="198" y="415" on="1"/>
        <pt x="174" y="391" on="0"/>
        <pt x="174" y="357" on="1"/>
      </contour>
      <contour>
        <pt x="0" y="0" on="1"/>
        <pt x="0" y="512" on="1"/>
        <pt x="512" y="512" on="1"/>
        <pt x="512" y="0" on="1"/>
      </contour>
    </TTGlyph>
    <TTGlyph name="A" xMin="0" yMin="0" xMax="320" yMax="448">
      <contour>
        <pt x="32" y="0" on="1"/>
        <pt x="18" y="0" on="0"/>
        <pt x="9" y="9" on="1"/>
        <pt x="0" y="18" on="0"/>
        <pt x="0" y="32" on="1"/>
        <pt x="0" y="45" on="0"/>
        <pt x="9" y="54" on="1"/>
        <pt x="18" y="64" on="0"/>
        <pt x="32" y="64" on="1"/>
        <pt x="45" y="64" on="0"/>
        <pt x="54" y="54" on="1"/>
        <pt x="64" y="45" on="0"/>
        <pt x="64" y="32" on="1"/>
        <pt x="64" y="18" on="0"/>
        <pt x="54" y="9" on="1"/>
        <pt x="45" y="0" on="0"/>
        <pt x="32" y="0" on="1"/>
      </contour>
      <contour>
        <pt x="288" y="0" on="1"/>
        <pt x="274" y="0" on="0"/>
        <pt x="265" y="9" on="1"/>
        <pt x="256" y="18" on="0"/>
        <pt x="256" y="32" on="1"/>
        <pt x="256" y="45" on="0"/>
        <pt x="265" y="54" on="1"/>
        <pt x="274" y="64" on="0"/>
        <pt x="288" y="64" on="1"/>
        <pt x="301" y="64" on="0"/>
        <pt x="310" y="54" on="1"/>
        <pt x="320" y="45" on="0"/>
        <pt x="320" y="32" on="1"/>
        <pt x="320" y="18" on="0"/>
        <pt x="310" y="9" on="1"/>
        <pt x="301" y="0" on="0"/>
        <pt x="288" y="0" on="1"/>
      </contour>
      <contour>
        <pt x="32" y="64" on="1"/>
        <pt x="18" y="64" on="0"/>
        <pt x="9" y="73" on="1"/>
        <pt x="0" y="82" on="0"/>
        <pt x="0" y="96" on="1"/>
        <pt x="0" y="109" on="0"/>
        <pt x="9" y="118" on="1"/>
        <pt x="18" y="128" on="0"/>
        <pt x="32" y="128" on="1"/>
        <pt x="45" y="128" on="0"/>
        <pt x="54" y="118" on="1"/>
        <pt x="64" y="109" on="0"/>
        <pt x="64" y="96" on="1"/>
        <pt x="64" y="82" on="0"/>
        <pt x="54" y="73" on="1"/>
        <pt x="45" y="64" on="0"/>
        <pt x="32" y="64" on="1"/>
      </contour>
      <contour>
        <pt x="288" y="64" on="1"/>
        <pt x="274" y="64" on="0"/>
        <pt x="265" y="73" on="1"/>
        <pt x="256" y="82" on="0"/>
        <pt x="256" y="96" on="1"/>
        <pt x="256" y="109" on="0"/>
        <pt x="265" y="118" on="1"/>
        <pt x="274" y="128" on="0"/>
        <pt x="288" y="128" on="1"/>
        <pt x="301" y="128" on="0"/>
        <pt x="310" y="118" on="1"/>
        <pt x="320" y="109" on="0"/>
        <pt x="320" y="96" on="1"/>
        <pt x="320" y="82" on="0"/>
        <pt x="310" y="73" on="1"/>
        <pt x="301" y="64" on="0"/>
        <pt x="288" y="64" on="1"/>
      </contour>
      <contour>
        <pt x="32" y="128" on="1"/>
        <pt x="18" y="128" on="0"/>
        <pt x="9" y="137" on="1"/>
        <pt x="0" y="146" on="0"/>
        <pt x="0" y="160" on="1"/>
        <pt x="0" y="173" on="0"/>
        <pt x="9" y="182" on="1"/>
        <pt x="18" y="192" on="0"/>
        <pt x="32" y="192" on="1"/>
        <pt x="45" y="192" on="0"/>
        <pt x="54" y="182" on="1"/>
        <pt x="64" y="173" on="0"/>
        <pt x="64" y="160" on="1"/>
        <pt x="64" y="146" on="0"/>
        <pt x="54" y="137" on="1"/>
        <pt x="45" y="128" on="0"/>
        <pt x="32" y="128" on="1"/>
      </contour>
      <contour>
        <pt x="288" y="128" on="1"/>
        <pt x="274" y="128" on="0"/>
        <pt x="265" y="137" on="1"/>
        <pt x="256" y="146" on="0"/>
        <pt x="256" y="160" on="1"/>
        <pt x="256" y="173" on="0"/>
        <pt x="265" y="182" on="1"/>
        <pt x="274" y="192" on="0"/>
        <pt x="288" y="192" on="1"/>
        <pt x="301" y="192" on="0"/>
        <pt x="310" y="182" on="1"/>
        <pt x="320" y="173" on="0"/>
        <pt x="320" y="160" on="1"/>
        <pt x="320" y="146" on="0"/>
        <pt x="310" y="137" on="1"/>
        <pt x="301" y="128" on="0"/>
        <pt x="288" y="128" on="1"/>
      </contour>
      <contour>
        <pt x="32" y="192" on="1"/>
        <pt x="18" y="192" on="0"/>
        <pt x="9" y="201" on="1"/>
        <pt x="0" y="210" on="0"/>
        <pt x="0" y="224" on="1"/>
        <pt x="0" y="237" on="0"/>
        <pt x="9" y="246" on="1"/>
        <pt x="18" y="256" on="0"/>
        <pt x="32" y="256" on="1"/>
        <pt x="45" y="256" on="0"/>
        <pt x="54" y="246" on="1"/>
        <pt x="64" y="237" on="0"/>
        <pt x="64" y="224" on="1"/>
        <pt x="64" y="210" on="0"/>
        <pt x="54" y="201" on="1"/>
        <pt x="45" y="192" on="0"/>
        <pt x="32" y="192" on="1"/>
      </contour>
      <contour>
        <pt x="96" y="192" on="1"/>
        <pt x="82" y="192" on="0"/>
        <pt x="73" y="201" on="1"/>
        <pt x="64" y="210" on="0"/>
        <pt x="64" y="224" on="1"/>
        <pt x="64" y="237" on="0"/>
        <pt x="73" y="246" on="1"/>
        <pt x="82" y="256" on="0"/>
        <pt x="96" y="256" on="1"/>
        <pt x="109" y="256" on="0"/>
        <pt x="118" y="246" on="1"/>
        <pt x="128" y="237" on="0"/>
        <pt x="128" y="224" on="1"/>
        <pt x="128" y="210" on="0"/>
        <pt x="118" y="201" on="1"/>
        <pt x="109" y="192" on="0"/>
        <pt x="96" y="192" on="1"/>
      </contour>
      <contour>
        <pt x="160" y="192" on="1"/>
        <pt x="146" y="192" on="0"/>
        <pt x="137" y="201" on="1"/>
        <pt x="128" y="210" on="0"/>
        <pt x="128" y="224" on="1"/>
        <pt x="128" y="237" on="0"/>
        <pt x="137" y="246" on="1"/>
        <pt x="146" y="256" on="0"/>
        <pt x="160" y="256" on="1"/>
        <pt x="173" y="256" on="0"/>
        <pt x="182" y="246" on="1"/>
        <pt x="192" y="237" on="0"/>
        <pt x="192" y="224" on="1"/>
        <pt x="192" y="210" on="0"/>
        <pt x="182" y="201" on="1"/>
        <pt x="173" y="192" on="0"/>
        <pt x="160" y="192" on="1"/>
      </contour>
      <contour>
        <pt x="224" y="192" on="1"/>
        <pt x="210" y="192" on="0"/>
        <pt x="201" y="201" on="1"/>
        <pt x="192" y="210" on="0"/>
        <pt x="192" y="224" on="1"/>
        <pt x="192" y="237" on="0"/>
        <pt x="201" y="246" on="1"/>
        <pt x="210" y="256" on="0"/>
        <pt x="224" y="256" on="1"/>
        <pt x="237" y="256" on="0"/>
        <pt x="246" y="246" on="1"/>
        <pt x="256" y="237" on="0"/>
        <pt x="256" y="224" on="1"/>
        <pt x="256" y="210" on="0"/>
        <pt x="246" y="201" on="1"/>
        <pt x="237" y="192" on="0"/>
        <pt x="224" y="192" on="1"/>
      </contour>
      <contour>
        <pt x="288" y="192" on="1"/>
        <pt x="274" y="192" on="0"/>
        <pt x="265" y="201" on="1"/>
        <pt x="256" y="210" on="0"/>
        <pt x="256" y="224" on="1"/>
        <pt x="256" y="237" on="0"/>
        <pt x="265" y="246" on="1"/>
        <pt x="274" y="256" on="0"/>
        <pt x="288" y="256" on="1"/>
        <pt x="301" y="256" on="0"/>
        <pt x="310" y="246" on="1"/>
        <pt x="320" y="237" on="0"/>
        <pt x="320" y="224" on="1"/>
        <pt x="320" y="210" on="0"/>
        <pt x="310" y="201" on="1"/>
        <pt x="301" y="192" on="0"/>
        <pt x="288" y="192" on="1"/>
      </contour>
      <contour>
        <pt x="32" y="256" on="1"/>
        <pt x="18" y="256" on="0"/>
        <pt x="9" y="265" on="1"/>
        <pt x="0" y="274" on="0"/>
        <pt x="0" y="288" on="1"/>
        <pt x="0" y="301" on="0"/>
        <pt x="9" y="310" on="1"/>
        <pt x="18" y="320" on="0"/>
        <pt x="32" y="320" on="1"/>
        <pt x="45" y="320" on="0"/>
        <pt x="54" y="310" on="1"/>
        <pt x="64" y="301" on="0"/>
        <pt x="64" y="288" on="1"/>
        <pt x="64" y="274" on="0"/>
        <pt x="54" y="265" on="1"/>
        <pt x="45" y="256" on="0"/>
        <pt x="32" y="256" on="1"/>
      </contour>
      <contour>
        <pt x="288" y="256" on="1"/>
        <pt x="274" y="256" on="0"/>
        <pt x="265" y="265" on="1"/>
        <pt x="256" y="274" on="0"/>
        <pt x="256" y="288" on="1"/>
        <pt x="256" y="301" on="0"/>
        <pt x="265" y="310" on="1"/>
        <pt x="274" y="320" on="0"/>
        <pt x="288" y="320" on="1"/>
        <pt x="301" y="320" on="0"/>
        <pt x="310" y="310" on="1"/>
        <pt x="320" y="301" on="0"/>
        <pt x="320" y="288" on="1"/>
        <pt x="320" y="274" on="0"/>
        <pt x="310" y="265" on="1"/>
        <pt x="301" y="256" on="0"/>
        <pt x="288" y="256" on="1"/>
      </contour>
      <contour>
        <pt x="96" y="320" on="1"/>
        <pt x="82" y="320" on="0"/>
        <pt x="73" y="329" on="1"/>
        <pt x="64" y="338" on="0"/>
        <pt x="64" y="352" on="1"/>
        <pt x="64" y="365" on="0"/>
        <pt x="73" y="374" on="1"/>
        <pt x="82" y="384" on="0"/>
        <pt x="96" y="384" on="1"/>
        <pt x="109" y="384" on="0"/>
        <pt x="118" y="374" on="1"/>
        <pt x="128" y="365" on="0"/>
        <pt x="128" y="352" on="1"/>
        <pt x="128" y="338" on="0"/>
        <pt x="118" y="329" on="1"/>
        <pt x="109" y="320" on="0"/>
        <pt x="96" y="320" on="1"/>
      </contour>
      <contour>
        <pt x="224" y="320" on="1"/>
        <pt x="210" y="320" on="0"/>
        <pt x="201" y="329" on="1"/>
        <pt x="192" y="338" on="0"/>
        <pt x="192" y="352" on="1"/>
        <pt x="192" y="365" on="0"/>
        <pt x="201" y="374" on="1"/>
        <pt x="210" y="384" on="0"/>
        <pt x="224" y="384" on="1"/>
        <pt x="237" y="384" on="0"/>
        <pt x="246" y="374" on="1"/>
        <pt x="256" y="365" on="0"/>
        <pt x="256" y="352" on="1"/>
        <pt x="256" y="338" on="0"/>
        <pt x="246" y="329" on="1"/>
        <pt x="237" y="320" on="0"/>
        <pt x="224" y="320" on="1"/>
      </contour>
      <contour>
        <pt x="160" y="384" on="1"/>
        <pt x="146" y="384" on="0"/>
        <pt x="137" y="393" on="1"/>
        <pt x="128" y="402" on="0"/>
        <pt x="128" y="416" on="1"/>
        <pt x="128" y="429" on="0"/>
        <pt x="137" y="438" on="1"/>
        <pt x="146" y="448" on="0"/>
        <pt x="160" y="448" on="1"/>
        <pt x="173" y="448" on="0"/>
        <pt x="182" y="438" on="1"/>
        <pt x="192" y="429" on="0"/>
        <pt x="192" y="416" on="1"/>
        <pt x="192" y="402" on="0"/>
        <pt x="182" y="393" on="1"/>
        <pt x="173" y="384" on="0"/>
        <pt x="160" y="384" on="1"/>
      </contour>
    </TTGlyph>
    <TTGlyph name="B" xMin="0" yMin="0" xMax="320" yMax="448">
      <contour>
        <pt x="32" y="0" on="1"/>
        <pt x="18" y="0" on="0"/>
        <pt x="9" y="9" on="1"/>
        <pt x="0" y="18" on="0"/>
        <pt x="0" y="32" on="1"/>
        <pt x="0" y="45" on="0"/>
        <pt x="9" y="54" on="1"/>
        <pt x="18" y="64" on="0"/>
        <pt x="32" y="64" on="1"/>
        <pt x="45" y="64" on="0"/>
        <pt x="54" y="54" on="1"/>
        <pt x="64" y="45" on="0"/>
        <pt x="64" y="32" on="1"/>
        <pt x="64" y="18" on="0"/>
        <pt x="54" y="9" on="1"/>
        <pt x="45" y="0" on="0"/>
        <pt x="32" y="0" on="1"/>
      </contour>
      <contour>
        <pt x="96" y="0" on="1"/>
        <pt x="82" y="0" on="0"/>
        <pt x="73" y="9" on="1"/>
        <pt x="64" y="18" on="0"/>
        <pt x="64" y="32" on="1"/>
        <pt x="64" y="45" on="0"/>
        <pt x="73" y="54" on="1"/>
        <pt x="82" y="64" on="0"/>
        <pt x="96" y="64" on="1"/>
        <pt x="109" y="64" on="0"/>
        <pt x="118" y="54" on="1"/>
        <pt x="128" y="45" on="0"/>
        <pt x="128" y="32" on="1"/>
        <pt x="128" y="18" on="0"/>
        <pt x="118" y="9" on="1"/>
        <pt x="109" y="0" on="0"/>
        <pt x="96" y="0" on="1"/>
      </contour>
      <contour>
        <pt x="160" y="0" on="1"/>
        <pt x="146" y="0" on="0"/>
        <pt x="137" y="9" on="1"/>
        <pt x="128" y="18" on="0"/>
        <pt x="128" y="32" on="1"/>
        <pt x="128" y="45" on="0"/>
        <pt x="137" y="54" on="1"/>
        <pt x="146" y="64" on="0"/>
        <pt x="160" y="64" on="1"/>
        <pt x="173" y="64" on="0"/>
        <pt x="182" y="54" on="1"/>
        <pt x="192" y="45" on="0"/>
        <pt x="192" y="32" on="1"/>
        <pt x="192" y="18" on="0"/>
        <pt x="182" y="9" on="1"/>
        <pt x="173" y="0" on="0"/>
        <pt x="160" y="0" on="1"/>
      </contour>
      <contour>
        <pt x="224" y="0" on="1"/>
        <pt x="210" y="0" on="0"/>
        <pt x="201" y="9" on="1"/>
        <pt x="192" y="18" on="0"/>
        <pt x="192" y="32" on="1"/>
        <pt x="192" y="45" on="0"/>
        <pt x="201" y="54" on="1"/>
        <pt x="210" y="64" on="0"/>
        <pt x="224" y="64" on="1"/>
        <pt x="237" y="64" on="0"/>
        <pt x="246" y="54" on="1"/>
        <pt x="256" y="45" on="0"/>
        <pt x="256" y="32" on="1"/>
        <pt x="256" y="18" on="0"/>
        <pt x="246" y="9" on="1"/>
        <pt x="237" y="0" on="0"/>
        <pt x="224" y="0" on="1"/>
      </contour>
      <contour>
        <pt x="32" y="64" on="1"/>
        <pt x="18" y="64" on="0"/>
        <pt x="9" y="73" on="1"/>
        <pt x="0" y="82" on="0"/>
        <pt x="0" y="96" on="1"/>
        <pt x="0" y="109" on="0"/>
        <pt x="9" y="118" on="1"/>
        <pt x="18" y="128" on="0"/>
        <pt x="32" y="128" on="1"/>
        <pt x="45" y="128" on="0"/>
        <pt x="54" y="118" on="1"/>
        <pt x="64" y="109" on="0"/>
        <pt x="64" y="96" on="1"/>
        <pt x="64" y="82" on="0"/>
        <pt x="54" y="73" on="1"/>
        <pt x="45" y="64" on="0"/>
        <pt x="32" y="64" on="1"/>
      </contour>
      <contour>
        <pt x="288" y="64" on="1"/>
        <pt x="274" y="64" on="0"/>
        <pt x="265" y="73" on="1"/>
        <pt x="256" y="82" on="0"/>
        <pt x="256" y="96" on="1"/>
        <pt x="256" y="109" on="0"/>
        <pt x="265" y="118" on="1"/>
        <pt x="274" y="128" on="0"/>
        <pt x="288" y="128" on="1"/>
        <pt x="301" y="128" on="0"/>
        <pt x="310" y="118" on="1"/>
        <pt x="320" y="109" on="0"/>
        <pt x="320" y="96" on="1"/>
        <pt x="320" y="82" on="0"/>
        <pt x="310" y="73" on="1"/>
        <pt x="301" y="64" on="0"/>
        <pt x="288" y="64" on="1"/>
      </contour>
      <contour>
        <pt x="32" y="128" on="1"/>
        <pt x="18" y="128" on="0"/>
        <pt x="9" y="137" on="1"/>
        <pt x="0" y="146" on="0"/>
        <pt x="0" y="160" on="1"/>
        <pt x="0" y="173" on="0"/>
        <pt x="9" y="182" on="1"/>
        <pt x="18" y="192" on="0"/>
        <pt x="32" y="192" on="1"/>
        <pt x="45" y="192" on="0"/>
        <pt x="54" y="182" on="1"/>
        <pt x="64" y="173" on="0"/>
        <pt x="64" y="160" on="1"/>
        <pt x="64" y="146" on="0"/>
        <pt x="54" y="137" on="1"/>
        <pt x="45" y="128" on="0"/>
        <pt x="32" y="128" on="1"/>
      </contour>
      <contour>
        <pt x="288" y="128" on="1"/>
        <pt x="274" y="128" on="0"/>
        <pt x="265" y="137" on="1"/>
        <pt x="256" y="146" on="0"/>
        <pt x="256" y="160" on="1"/>
        <pt x="256" y="173" on="0"/>
        <pt x="265" y="182" on="1"/>
        <pt x="274" y="192" on="0"/>
        <pt x="288" y="192" on="1"/>
        <pt x="301" y="192" on="0"/>
        <pt x="310" y="182" on="1"/>
        <pt x="320" y="173" on="0"/>
        <pt x="320" y="160" on="1"/>
        <pt x="320" y="146" on="0"/>
        <pt x="310" y="137" on="1"/>
        <pt x="301" y="128" on="0"/>
        <pt x="288" y="128" on="1"/>
      </contour>
      <contour>
        <pt x="32" y="192" on="1"/>
        <pt x="18" y="192" on="0"/>
        <pt x="9" y="201" on="1"/>
        <pt x="0" y="210" on="0"/>
        <pt x="0" y="224" on="1"/>
        <pt x="0" y="237" on="0"/>
        <pt x="9" y="246" on="1"/>
        <pt x="18" y="256" on="0"/>
        <pt x="32" y="256" on="1"/>
        <pt x="45" y="256" on="0"/>
        <pt x="54" y="246" on="1"/>
        <pt x="64" y="237" on="0"/>
        <pt x="64" y="224" on="1"/>
        <pt x="64" y="210" on="0"/>
        <pt x="54" y="201" on="1"/>
        <pt x="45" y="192" on="0"/>
        <pt x="32" y="192" on="1"/>
      </contour>
      <contour>
        <pt x="96" y="192" on="1"/>
        <pt x="82" y="192" on="0"/>
        <pt x="73" y="201" on="1"/>
        <pt x="64" y="210" on="0"/>
        <pt x="64" y="224" on="1"/>
        <pt x="64" y="237" on="0"/>
        <pt x="73" y="246" on="1"/>
        <pt x="82" y="256" on="0"/>
        <pt x="96" y="256" on="1"/>
        <pt x="109" y="256" on="0"/>
        <pt x="118" y="246" on="1"/>
        <pt x="128" y="237" on="0"/>
        <pt x="128" y="224" on="1"/>
        <pt x="128" y="210" on="0"/>
        <pt x="118" y="201" on="1"/>
        <pt x="109" y="192" on="0"/>
        <pt x="96" y="192" on="1"/>
      </contour>
      <contour>
        <pt x="160" y="192" on="1"/>
        <pt x="146" y="192" on="0"/>
        <pt x="137" y="201" on="1"/>
        <pt x="128" y="210" on="0"/>
        <pt x="128" y="224" on="1"/>
        <pt x="128" y="237" on="0"/>
        <pt x="137" y="246" on="1"/>
        <pt x="146" y="256" on="0"/>
        <pt x="160" y="256" on="1"/>
        <pt x="173" y="256" on="0"/>
        <pt x="182" y="246" on="1"/>
        <pt x="192" y="237" on="0"/>
        <pt x="192" y="224" on="1"/>
        <pt x="192" y="210" on="0"/>
        <pt x="182" y="201" on="1"/>
        <pt x="173" y="192" on="0"/>
        <pt x="160" y="192" on="1"/>
      </contour>
      <contour>
        <pt x="224" y="192" on="1"/>
        <pt x="210" y="192" on="0"/>
        <pt x="201" y="201" on="1"/>
        <pt x="192" y="210" on="0"/>
        <pt x="192" y="224" on="1"/>
        <pt x="192" y="237" on="0"/>
        <pt x="201" y="246" on="1"/>
        <pt x="210" y="256" on="0"/>
        <pt x="224" y="256" on="1"/>
        <pt x="237" y="256" on="0"/>
        <pt x="246" y="246" on="1"/>
        <pt x="256" y="237" on="0"/>
        <pt x="256" y="224" on="1"/>
        <pt x="256" y="210" on="0"/>
        <pt x="246" y="201" on="1"/>
        <pt x="237" y="192" on="0"/>
        <pt x="224" y="192" on="1"/>
      </contour>
      <contour>
        <pt x="32" y="256" on="1"/>
        <pt x="18" y="256" on="0"/>
        <pt x="9" y="265" on="1"/>
        <pt x="0" y="274" on="0"/>
        <pt x="0" y="288" on="1"/>
        <pt x="0" y="301" on="0"/>
        <pt x="9" y="310" on="1"/>
        <pt x="18" y="320" on="0"/>
        <pt x="32" y="320" on="1"/>
        <pt x="45" y="320" on="0"/>
        <pt x="54" y="310" on="1"/>
        <pt x="64" y="301" on="0"/>
        <pt x="64" y="288" on="1"/>
        <pt x="64" y="274" on="0"/>
        <pt x="54" y="265" on="1"/>
        <pt x="45" y="256" on="0"/>
        <pt x="32" y="256" on="1"/>
      </contour>
      <contour>
        <pt x="288" y="256" on="1"/>
        <pt x="274" y="256" on="0"/>
        <pt x="265" y="265" on="1"/>
        <pt x="256" y="274" on="0"/>
        <pt x="256" y="288" on="1"/>
        <pt x="256" y="301" on="0"/>
        <pt x="265" y="310" on="1"/>
        <pt x="274" y="320" on="0"/>
        <pt x="288" y="320" on="1"/>
        <pt x="301" y="320" on="0"/>
        <pt x="310" y="310" on="1"/>
        <pt x="320" y="301" on="0"/>
        <pt x="320" y="288" on="1"/>
        <pt x="320" y="274" on="0"/>
        <pt x="310" y="265" on="1"/>
        <pt x="301" y="256" on="0"/>
        <pt x="288" y="256" on="1"/>
      </contour>
      <contour>
        <pt x="32" y="320" on="1"/>
        <pt x="18" y="320" on="0"/>
        <pt x="9" y="329" on="1"/>
        <pt x="0" y="338" on="0"/>
        <pt x="0" y="352" on="1"/>
        <pt x="0" y="365" on="0"/>
        <pt x="9" y="374" on="1"/>
        <pt x="18" y="384" on="0"/>
        <pt x="32" y="384" on="1"/>
        <pt x="45" y="384" on="0"/>
        <pt x="54" y="374" on="1"/>
        <pt x="64" y="365" on="0"/>
        <pt x="64" y="352" on="1"/>
        <pt x="64" y="338" on="0"/>
        <pt x="54" y="329" on="1"/>
        <pt x="45" y="320" on="0"/>
        <pt x="32" y="320" on="1"/>
      </contour>
      <contour>
        <pt x="288" y="320" on="1"/>
        <pt x="274" y="320" on="0"/>
        <pt x="265" y="329" on="1"/>
        <pt x="256" y="338" on="0"/>
        <pt x="256" y="352" on="1"/>
        <pt x="256" y="365" on="0"/>
        <pt x="265" y="374" on="1"/>
        <pt x="274" y="384" on="0"/>
        <pt x="288" y="384" on="1"/>
        <pt x="301" y="384" on="0"/>
        <pt x="310" y="374" on="1"/>
        <pt x="320" y="365" on="0"/>
        <pt x="320" y="352" on="1"/>
        <pt x="320" y="338" on="0"/>
        <pt x="310" y="329" on="1"/>
        <pt x="301" y="320" on="0"/>
        <pt x="288" y="320" on="1"/>
      </contour>
      <contour>
        <pt x="32" y="384" on="1"/>
        <pt x="18" y="384" on="0"/>
        <pt x="9" y="393" on="1"/>
        <pt x="0" y="402" on="0"/>
        <pt x="0" y="416" on="1"/>
        <pt x="0" y="429" on="0"/>
        <pt x="9" y="438" on="1"/>
        <pt x="18" y="448" on="0"/>
        <pt x="32" y="448" on="1"/>
        <pt x="45" y="448" on="0"/>
        <pt x="54" y="438" on="1"/>
        <pt x="64" y="429" on="0"/>
        <pt x="64" y="416" on="1"/>
        <pt x="64" y="402" on="0"/>
        <pt x="54" y="393" on="1"/>
        <pt x="45" y="384" on="0"/>
        <pt x="32" y="384" on="1"/>
      </contour>
      <contour>
        <pt x="96" y="384" on="1"/>
        <pt x="82" y="384" on="0"/>
        <pt x="73" y="393" on="1"/>
        <pt x="64" y="402" on="0"/>
        <pt x="64" y="416" on="1"/>
        <pt x="64" y="429" on="0"/>
        <pt x="73" y="438" on="1"/>
        <pt x="82" y="448" on="0"/>
        <pt x="96" y="448" on="1"/>
        <pt x="109" y="448" on="0"/>
        <pt x="118" y="438" on="1"/>
        <pt x="128" y="429" on="0"/>
        <pt x="128" y="416" on="1"/>
        <pt x="128" y="402" on="0"/>
        <pt x="118" y="393" on="1"/>
        <pt x="109" y="384" on="0"/>
        <pt x="96" y="384" on="1"/>
      </contour>
      <contour>
        <pt x="160" y="384" on="1"/>
        <pt x="146" y="384" on="0"/>
        <pt x="137" y="393" on="1"/>
        <pt x="128" y="402" on="0"/>
        <pt x="128" y="416" on="1"/>
        <pt x="128" y="429" on="0"/>
        <pt x="137" y="438" on="1"/>
        <pt x="146" y="448" on="0"/>
        <pt x="160" y="448" on="1"/>
        <pt x="173" y="448" on="0"/>
        <pt x="182" y="438" on="1"/>
        <pt x="192" y="429" on="0"/>
        <pt x="192" y="416" on="1"/>
        <pt x="192" y="402" on="0"/>
        <pt x="182" y="393" on="1"/>
        <pt x="173" y="384" on="0"/>
        <pt x="160" y="384" on="1"/>
      </contour>
      <contour>
        <pt x="224" y="384" on="1"/>
        <pt x="210" y="384" on="0"/>
        <pt x="201" y="393" on="1"/>
        <pt x="192" y="402" on="0"/>
        <pt x="192" y="416" on="1"/>
        <pt x="192" y="429" on="0"/>
        <pt x="201" y="438" on="1"/>
        <pt x="210" y="448" on="0"/>
        <pt x="224" y="448" on="1"/>
        <pt x="237" y="448" on="0"/>
        <pt x="246" y="438" on="1"/>
        <pt x="256" y="429" on="0"/>
        <pt x="256" y="416" on="1"/>
        <pt x="256" y="402" on="0"/>
        <pt x="246" y="393" on="1"/>
        <pt x="237" y="384" on="0"/>
        <pt x="224" y="384" on="1"/>
      </contour>
    </TTGlyph>
    <TTGlyph name="C" xMin="0" yMin="0" xMax="320" yMax="448">
      <contour>
        <pt x="96" y="0" on="1"/>
        <pt x="82" y="0" on="0"/>
        <pt x="73" y="9" on="1"/>
        <pt x="64" y="18" on="0"/>
        <pt x="64" y="32" on="1"/>
        <pt x="64" y="45" on="0"/>
        <pt x="73" y="54" on="1"/>
        <pt x="82" y="64" on="0"/>
        <pt x="96" y="64" on="1"/>
        <pt x="109" y="64" on="0"/>
        <pt x="118" y="54" on="1"/>
        <pt x="128" y="45" on="0"/>
        <pt x="128" y="32" on="1"/>
        <pt x="128" y="18" on="0"/>
        <pt x="118" y="9" on="1"/>
        <pt x="109" y="0" on="0"/>
        <pt x="96" y="0" on="1"/>
      </contour>
      <contour>
        <pt x="160" y="0" on="1"/>
        <pt x="146" y="0" on="0"/>
        <pt x="137" y="9" on="1"/>
        <pt x="128" y="18" on="0"/>
        <pt x="128" y="32" on="1"/>
        <pt x="128" y="45" on="0"/>
        <pt x="137" y="54" on="1"/>
        <pt x="146" y="64" on="0"/>
        <pt x="160" y="64" on="1"/>
        <pt x="173" y="64" on="0"/>
        <pt x="182" y="54" on="1"/>
        <pt x="192" y="45" on="0"/>
        <pt x="192" y="32" on="1"/>
        <pt x="192" y="18" on="0"/>
        <pt x="182" y="9" on="1"/>
        <pt x="173" y="0" on="0"/>
        <pt x="160" y="0" on="1"/>
      </contour>
      <contour>
        <pt x="224" y="0" on="1"/>
        <pt x="210" y="0" on="0"/>
        <pt x="201" y="9" on="1"/>
        <pt x="192" y="18" on="0"/>
        <pt x="192" y="32" on="1"/>
        <pt x="192" y="45" on="0"/>
        <pt x="201" y="54" on="1"/>
        <pt x="210" y="64" on="0"/>
        <pt x="224" y="64" on="1"/>
        <pt x="237" y="64" on="0"/>
        <pt x="246" y="54" on="1"/>
        <pt x="256" y="45" on="0"/>
        <pt x="256" y="32" on="1"/>
        <pt x="256" y="18" on="0"/>
        <pt x="246" y="9" on="1"/>
        <pt x="237" y="0" on="0"/>
        <pt x="224" y="0" on="1"/>
      </contour>
      <contour>
        <pt x="32" y="64" on="1"/>
        <pt x="18" y="64" on="0"/>
        <pt x="9" y="73" on="1"/>
        <pt x="0" y="82" on="0"/>
        <pt x="0" y="96" on="1"/>
        <pt x="0" y="109" on="0"/>
        <pt x="9" y="118" on="1"/>
        <pt x="18" y="128" on="0"/>
        <pt x="32" y="128" on="1"/>
        <pt x="45" y="128" on="0"/>
        <pt x="54" y="118" on="1"/>
        <pt x="64" y="109" on="0"/>
        <pt x="64" y="96" on="1"/>
        <pt x="64" y="82" on="0"/>
        <pt x="54" y="73" on="1"/>
        <pt x="45" y="64" on="0"/>
        <pt x="32" y="64" on="1"/>
      </contour>
      <contour>
        <pt x="288" y="64" on="1"/>
        <pt x="274" y="64" on="0"/>
        <pt x="265" y="73" on="1"/>
        <pt x="256" y="82" on="0"/>
        <pt x="256" y="96" on="1"/>
        <pt x="256" y="109" on="0"/>
        <pt x="265" y="118" on="1"/>
        <pt x="274" y="128" on="0"/>
        <pt x="288" y="128" on="1"/>
        <pt x="301" y="128" on="0"/>
        <pt x="310" y="118" on="1"/>
        <pt x="320" y="109" on="0"/>
        <pt x="320" y="96" on="1"/>
        <pt x="320" y="82" on="0"/>
        <pt x="310" y="73" on="1"/>
        <pt x="301" y="64" on="0"/>
        <pt x="288" y="64" on="1"/>
      </contour>
      <contour>
        <pt x="32" y="128" on="1"/>
        <pt x="18" y="128" on="0"/>
        <pt x="9" y="137" on="1"/>
        <pt x="0" y="146" on="0"/>
        <pt x="0" y="160" on="1"/>
        <pt x="0" y="173" on="0"/>
        <pt x="9" y="182" on="1"/>
        <pt x="18" y="192" on="0"/>
        <pt x="32" y="192" on="1"/>
        <pt x="45" y="192" on="0"/>
        <pt x="54" y="182" on="1"/>
        <pt x="64" y="173" on="0"/>
        <pt x="64" y="160" on="1"/>
        <pt x="64" y="146" on="0"/>
        <pt x="54" y="137" on="1"/>
        <pt x="45" y="128" on="0"/>
        <pt x="32" y="128" on="1"/>
      </contour>
      <contour>
        <pt x="32" y="192" on="1"/>
        <pt x="18" y="192" on="0"/>
        <pt x="9" y="201" on="1"/>
        <pt x="0" y="210" on="0"/>
        <pt x="0" y="224" on="1"/>
        <pt x="0" y="237" on="0"/>
        <pt x="9" y="246" on="1"/>
        <pt x="18" y="256" on="0"/>
        <pt x="32" y="256" on="1"/>
        <pt x="45" y="256" on="0"/>
        <pt x="54" y="246" on="1"/>
        <pt x="64" y="237" on="0"/>
        <pt x="64" y="224" on="1"/>
        <pt x="64" y="210" on="0"/>
        <pt x="54" y="201" on="1"/>
        <pt x="45" y="192" on="0"/>
        <pt x="32" y="192" on="1"/>
      </contour>
      <contour>
        <pt x="32" y="256" on="1"/>
        <pt x="18" y="256" on="0"/>
        <pt x="9" y="265" on="1"/>
        <pt x="0" y="274" on="0"/>
        <pt x="0" y="288" on="1"/>
        <pt x="0" y="301" on="0"/>
        <pt x="9" y="310" on="1"/>
        <pt x="18" y="320" on="0"/>
        <pt x="32" y="320" on="1"/>
        <pt x="45" y="320" on="0"/>
        <pt x="54" y="310" on="1"/>
        <pt x="64" y="301" on="0"/>
        <pt x="64" y="288" on="1"/>
        <pt x="64" y="274" on="0"/>
        <pt x="54" y="265" on="1"/>
        <pt x="45" y="256" on="0"/>
        <pt x="32" y="256" on="1"/>
      </contour>
      <contour>
        <pt x="32" y="320" on="1"/>
        <pt x="18" y="320" on="0"/>
        <pt x="9" y="329" on="1"/>
        <pt x="0" y="338" on="0"/>
        <pt x="0" y="352" on="1"/>
        <pt x="0" y="365" on="0"/>
        <pt x="9" y="374" on="1"/>
        <pt x="18" y="384" on="0"/>
        <pt x="32" y="384" on="1"/>
        <pt x="45" y="384" on="0"/>
        <pt x="54" y="374" on="1"/>
        <pt x="64" y="365" on="0"/>
        <pt x="64" y="352" on="1"/>
        <pt x="64" y="338" on="0"/>
        <pt x="54" y="329" on="1"/>
        <pt x="45" y="320" on="0"/>
        <pt x="32" y="320" on="1"/>
      </contour>
      <contour>
        <pt x="288" y="320" on="1"/>
        <pt x="274" y="320" on="0"/>
        <pt x="265" y="329" on="1"/>
        <pt x="256" y="338" on="0"/>
        <pt x="256" y="352" on="1"/>
        <pt x="256" y="365" on="0"/>
        <pt x="265" y="374" on="1"/>
        <pt x="274" y="384" on="0"/>
        <pt x="288" y="384" on="1"/>
        <pt x="301" y="384" on="0"/>
        <pt x="310" y="374" on="1"/>
        <pt x="320" y="365" on="0"/>
        <pt x="320" y="352" on="1"/>
        <pt x="320" y="338" on="0"/>
        <pt x="310" y="329" on="1"/>
        <pt x="301" y="320" on="0"/>
        <pt x="288" y="320" on="1"/>
      </contour>
      <contour>
        <pt x="96" y="384" on="1"/>
        <pt x="82" y="384" on="0"/>
        <pt x="73" y="393" on="1"/>
        <pt x="64" y="402" on="0"/>
        <pt x="64" y="416" on="1"/>
        <pt x="64" y="429" on="0"/>
        <pt x="73" y="438" on="1"/>
        <pt x="82" y="448" on="0"/>
        <pt x="96" y="448" on="1"/>
        <pt x="109" y="448" on="0"/>
        <pt x="118" y="438" on="1"/>
        <pt x="128" y="429" on="0"/>
        <pt x="128" y="416" on="1"/>
        <pt x="128" y="402" on="0"/>
        <pt x="118" y="393" on="1"/>
        <pt x="109" y="384" on="0"/>
        <pt x="96" y="384" on="1"/>
      </contour>
      <contour>
        <pt x="160" y="384" on="1"/>
        <pt x="146" y="384" on="0"/>
        <pt x="137" y="393" on="1"/>
        <pt x="128" y="402" on="0"/>
        <pt x="128" y="416" on="1"/>
        <pt x="128" y="429" on="0"/>
        <pt x="137" y="438" on="1"/>
        <pt x="146" y="448" on="0"/>
        <pt x="160" y="448" on="1"/>
        <pt x="173" y="448" on="0"/>
        <pt x="182" y="438" on="1"/>
        <pt x="192" y="429" on="0"/>
        <pt x="192" y="416" on="1"/>
        <pt x="192" y="402" on="0"/>
        <pt x="182" y="393" on="1"/>
        <pt x="173" y="384" on="0"/>
        <pt x="160" y="384" on="1"/>
      </contour>
      <contour>
        <pt x="224" y="384" on="1"/>
        <pt x="210" y="384" on="0"/>
        <pt x="201" y="393" on="1"/>
        <pt x="192" y="402" on="0"/>
        <pt x="192" y="416" on="1"/>
        <pt x="192" y="429" on="0"/>
        <pt x="201" y="438" on="1"/>
        <pt x="210" y="448" on="0"/>
        <pt x="224" y="448" on="1"/>
        <pt x="237" y="448" on="0"/>
        <pt x="246" y="438" on="1"/>
        <pt x="256" y="429" on="0"/>
        <pt x="256" y="416" on="1"/>
        <pt x="256" y="402" on="0"/>
        <pt x="246" y="393" on="1"/>
        <pt x="237" y="384" on="0"/>
        <pt x="224" y="384" on="1"/>
      </contour>
    </TTGlyph>
    <TTGlyph name="D" xMin="0" yMin="0" xMax="320" yMax="448">
      <contour>
        <pt x="32" y="0" on="1"/>
        <pt x="18" y="0" on="0"/>
        <pt x="9" y="9" on="1"/>
        <pt x="0" y="18" on="0"/>
        <pt x="0" y="32" on="1"/>
        <pt x="0" y="45" on="0"/>
        <pt x="9" y="54" on="1"/>
        <pt x="18" y="64" on="0"/>
        <pt x="32" y="64" on="1"/>
        <pt x="45" y="64" on="0"/>
        <pt x="54" y="54" on="1"/>
        <pt x="64" y="45" on="0"/>
        <pt x="64" y="32" on="1"/>
        <pt x="64" y="18" on="0"/>
        <pt x="54" y="9" on="1"/>
        <pt x="45" y="0" on="0"/>
        <pt x="32" y="0" on="1"/>
      </contour>
      <contour>
        <pt x="96" y="0" on="1"/>
        <pt x="82" y="0" on="0"/>
        <pt x="73" y="9" on="1"/>
        <pt x="64" y="18" on="0"/>
        <pt x="64" y="32" on="1"/>
        <pt x="64" y="45" on="0"/>
        <pt x="73" y="54" on="1"/>
        <pt x="82" y="64" on="0"/>
        <pt x="96" y="64" on="1"/>
        <pt x="109" y="64" on="0"/>
        <pt x="118" y="54" on="1"/>
        <pt x="128" y="45" on="0"/>
        <pt x="128" y="32" on="1"/>
        <pt x="128" y="18" on="0"/>
        <pt x="118" y="9" on="1"/>
        <pt x="109" y="0" on="0"/>
        <pt x="96" y="0" on="1"/>
      </contour>
      <contour>
        <pt x="160" y="0" on="1"/>
        <pt x="146" y="0" on="0"/>
        <pt x="137" y="9" on="1"/>
        <pt x="128" y="18" on="0"/>
        <pt x="128" y="32" on="1"/>
        <pt x="128" y="45" on="0"/>
        <pt x="137" y="54" on="1"/>
        <pt x="146" y="64" on="0"/>
        <pt x="160" y="64" on="1"/>
        <pt x="173" y="64" on="0"/>
        <pt x="182" y="54" on="1"/>
        <pt x="192" y="45" on="0"/>
        <pt x="192" y="32" on="1"/>
        <pt x="192" y="18" on="0"/>
        <pt x="182" y="9" on="1"/>
        <pt x="173" y="0" on="0"/>
        <pt x="160" y="0" on="1"/>
      </contour>
      <contour>
        <pt x="224" y="0" on="1"/>
        <pt x="210" y="0" on="0"/>
        <pt x="201" y="9" on="1"/>
        <pt x="192" y="18" on="0"/>
        <pt x="192" y="32" on="1"/>
        <pt x="192" y="45" on="0"/>
        <pt x="201" y="54" on="1"/>
        <pt x="210" y="64" on="0"/>
        <pt x="224" y="64" on="1"/>
        <pt x="237" y="64" on="0"/>
        <pt x="246" y="54" on="1"/>
        <pt x="256" y="45" on="0"/>
        <pt x="256" y="32" on="1"/>
        <pt x="256" y="18" on="0"/>
        <pt x="246" y="9" on="1"/>
        <pt x="237" y="0" on="0"/>
        <pt x="224" y="0" on="1"/>
      </contour>
      <contour>
        <pt x="32" y="64" on="1"/>
        <pt x="18" y="64" on="0"/>
        <pt x="9" y="73" on="1"/>
        <pt x="0" y="82" on="0"/>
        <pt x="0" y="96" on="1"/>
        <pt x="0" y="109" on="0"/>
        <pt x="9" y="118" on="1"/>
        <pt x="18" y="128" on="0"/>
        <pt x="32" y="128" on="1"/>
        <pt x="45" y="128" on="0"/>
        <pt x="54" y="118" on="1"/>
        <pt x="64" y="109" on="0"/>
        <pt x="64" y="96" on="1"/>
        <pt x="64" y="82" on="0"/>
        <pt x="54" y="73" on="1"/>
        <pt x="45" y="64" on="0"/>
        <pt x="32" y="64" on="1"/>
      </contour>
      <contour>
        <pt x="288" y="64" on="1"/>
        <pt x="274" y="64" on="0"/>
        <pt x="265" y="73" on="1"/>
        <pt x="256" y="82" on="0"/>
        <pt x="256" y="96" on="1"/>
        <pt x="256" y="109" on="0"/>
        <pt x="265" y="118" on="1"/>
        <pt x="274" y="128" on="0"/>
        <pt x="288" y="128" on="1"/>
        <pt x="301" y="128" on="0"/>
        <pt x="310" y="118" on="1"/>
        <pt x="320" y="109" on="0"/>
        <pt x="320" y="96" on="1"/>
        <pt x="320" y="82" on="0"/>
        <pt x="310" y="73" on="1"/>
        <pt x="301" y="64" on="0"/>
        <pt x="288" y="64" on="1"/>
      </contour>
      <contour>
        <pt x="32" y="128" on="1"/>
        <pt x="18" y="128" on="0"/>
        <pt x="9" y="137" on="1"/>
        <pt x="0" y="146" on="0"/>
        <pt x="0" y="160" on="1"/>
        <pt x="0" y="173" on="0"/>
        <pt x="9" y="182" on="1"/>
        <pt x="18" y="192" on="0"/>
        <pt x="32" y="192" on="1"/>
        <pt x="45" y="192" on="0"/>
        <pt x="54" y="182" on="1"/>
        <pt x="64" y="173" on="0"/>
        <pt x="64" y="160" on="1"/>
        <pt x="64" y="146" on="0"/>
        <pt x="54" y="137" on="1"/>
        <pt x="45" y="128" on="0"/>
        <pt x="32" y="128" on="1"/>
      </contour>
      <contour>
        <pt x="288" y="128" on="1"/>
        <pt x="274" y="128" on="0"/>
        <pt x="265" y="137" on="1"/>
        <pt x="256" y="146" on="0"/>
        <pt x="256" y="160" on="1"/>
        <pt x="256" y="173" on="0"/>
        <pt x="265" y="182" on="1"/>
        <pt x="274" y="192" on="0"/>
        <pt x="288" y="192" on="1"/>
        <pt x="301" y="192" on="0"/>
        <pt x="310" y="182" on="1"/>
        <pt x="320" y="173" on="0"/>
        <pt x="320" y="160" on="1"/>
        <pt x="320" y="146" on="0"/>
        <pt x="310" y="137" on="1"/>
        <pt x="301" y="128" on="0"/>
        <pt x="288" y="128" on="1"/>
      </contour>
      <contour>
        <pt x="32" y="192" on="1"/>
        <pt x="18" y="192" on="0"/>
        <pt x="9" y="201" on="1"/>
        <pt x="0" y="210" on="0"/>
        <pt x="0" y="224" on="1"/>
        <pt x="0" y="237" on="0"/>
        <pt x="9" y="246" on="1"/>
        <pt x="18" y="256" on="0"/>
        <pt x="32" y="256" on="1"/>
        <pt x="45" y="256" on="0"/>
        <pt x="54" y="246" on="1"/>
        <pt x="64" y="237" on="0"/>
        <pt x="64" y="224" on="1"/>
        <pt x="64" y="210" on="0"/>
        <pt x="54" y="201" on="1"/>
        <pt x="45" y="192" on="0"/>
        <pt x="32" y="192" on="1"/>
      </contour>
      <contour>
        <pt x="288" y="192" on="1"/>
        <pt x="274" y="192" on="0"/>
        <pt x="265" y="201" on="1"/>
        <pt x="256" y="210" on="0"/>
        <pt x="256" y="224" on="1"/>
        <pt x="256" y="237" on="0"/>
        <pt x="265" y="246" on="1"/>
        <pt x="274" y="256" on="0"/>
        <pt x="288" y="256" on="1"/>
        <pt x="301" y="256" on="0"/>
        <pt x="310" y="246" on="1"/>
        <pt x="320" y="237" on="0"/>
        <pt x="320" y="224" on="1"/>
        <pt x="320" y="210" on="0"/>
        <pt x="310" y="201" on="1"/>
        <pt x="301" y="192" on="0"/>
        <pt x="288" y="192" on="1"/>
      </contour>
      <contour>
        <pt x="32" y="256" on="1"/>
        <pt x="18" y="256" on="0"/>
        <pt x="9" y="265" on="1"/>
        <pt x="0" y="274" on="0"/>
        <pt x="0" y="288" on="1"/>
        <pt x="0" y="301" on="0"/>
        <pt x="9" y="310" on="1"/>
        <pt x="18" y="320" on="0"/>
        <pt x="32" y="320" on="1"/>
        <pt x="45" y="320" on="0"/>
        <pt x="54" y="310" on="1"/>
        <pt x="64" y="301" on="0"/>
        <pt x="64" y="288" on="1"/>
        <pt x="64" y="274" on="0"/>
        <pt x="54" y="265" on="1"/>
        <pt x="45" y="256" on="0"/>
        <pt x="32" y="256" on="1"/>
      </contour>
      <contour>
        <pt x="288" y="256" on="1"/>
        <pt x="274" y="256" on="0"/>
        <pt x="265" y="265" on="1"/>
        <pt x="256" y="274" on="0"/>
        <pt x="256" y="288" on="1"/>
        <pt x="256" y="301" on="0"/>
        <pt x="265" y="310" on="1"/>
        <pt x="274" y="320" on="0"/>
        <pt x="288" y="320" on="1"/>
        <pt x="301" y="320" on="0"/>
        <pt x="310" y="310" on="1"/>
        <pt x="320" y="301" on="0"/>
        <pt x="320" y="288" on="1"/>
        <pt x="320" y="274" on="0"/>
        <pt x="310" y="265" on="1"/>
        <pt x="301" y="256" on="0"/>
        <pt x="288" y="256" on="1"/>
      </contour>
      <contour>
        <pt x="32" y="320" on="1"/>
        <pt x="18" y="320" on="0"/>
        <pt x="9" y="329" on="1"/>
        <pt x="0" y="338" on="0"/>
        <pt x="0" y="352" on="1"/>
        <pt x="0" y="365" on="0"/>
        <pt x="9" y="374" on="1"/>
        <pt x="18" y="384" on="0"/>
        <pt x="32" y="384" on="1"/>
        <pt x="45" y="384" on="0"/>
        <pt x="54" y="374" on="1"/>
        <pt x="64" y="365" on="0"/>
        <pt x="64" y="352" on="1"/>
        <pt x="64" y="338" on="0"/>
        <pt x="54" y="329" on="1"/>
        <pt x="45" y="320" on="0"/>
        <pt x="32" y="320" on="1"/>
      </contour>
      <contour>
        <pt x="288" y="320" on="1"/>
        <pt x="274" y="320" on="0"/>
        <pt x="265" y="329" on="1"/>
        <pt x="256" y="338" on="0"/>
        <pt x="256" y="352" on="1"/>
        <pt x="256" y="365" on="0"/>
        <pt x="265" y="374" on="1"/>
        <pt x="274" y="384" on="0"/>
        <pt x="288" y="384" on="1"/>
        <pt x="301" y="384" on="0"/>
        <pt x="310" y="374" on="1"/>
        <pt x="320" y="365" on="0"/>
        <pt x="320" y="352" on="1"/>
        <pt x="320" y="338" on="0"/>
        <pt x="310" y="329" on="1"/>
        <pt x="301" y="320" on="0"/>
        <pt x="288" y="320" on="1"/>
      </contour>
      <contour>
        <pt x="32" y="384" on="1"/>
        <pt x="18" y="384" on="0"/>
        <pt x="9" y="393" on="1"/>
        <pt x="0" y="402" on="0"/>
        <pt x="0" y="416" on="1"/>
        <pt x="0" y="429" on="0"/>
        <pt x="9" y="438" on="1"/>
        <pt x="18" y="448" on="0"/>
        <pt x="32" y="448" on="1"/>
        <pt x="45" y="448" on="0"/>
        <pt x="54" y="438" on="1"/>
        <pt x="64" y="429" on="0"/>
        <pt x="64" y="416" on="1"/>
        <pt x="64" y="402" on="0"/>
        <pt x="54" y="393" on="1"/>
        <pt x="45" y="384" on="0"/>
        <pt x="32" y="384" on="1"/>
      </contour>
      <contour>
        <pt x="96" y="384" on="1"/>
        <pt x="82" y="384" on="0"/>
        <pt x="73" y="393" on="1"/>
        <pt x="64" y="402" on="0"/>
        <pt x="64" y="416" on="1"/>
        <pt x="64" y="429" on="0"/>
        <pt x="73" y="438" on="1"/>
        <pt x="82" y="448" on="0"/>
        <pt x="96" y="448" on="1"/>
        <pt x="109" y="448" on="0"/>
        <pt x="118" y="438" on="1"/>
        <pt x="128" y="429" on="0"/>
        <pt x="128" y="416" on="1"/>
        <pt x="128" y="402" on="0"/>
        <pt x="118" y="393" on="1"/>
        <pt x="109" y="384" on="0"/>
        <pt x="96" y="384" on="1"/>
      </contour>
      <contour>
        <pt x="160" y="384" on="1"/>
        <pt x="146" y="384" on="0"/>
        <pt x="137" y="393" on="1"/>
        <pt x="128" y="402" on="0"/>
        <pt x="128" y="416" on="1"/>
        <pt x="128" y="429" on="0"/>
        <pt x="137" y="438" on="1"/>
        <pt x="146" y="448" on="0"/>
        <pt x="160" y="448" on="1"/>
        <pt x="173" y="448" on="0"/>
        <pt x="182" y="438" on="1"/>
        <pt x="192" y="429" on="0"/>
        <pt x="192" y="416" on="1"/>
        <pt x="192" y="402" on="0"/>
        <pt x="182" y="393" on="1"/>
        <pt x="173" y="384" on="0"/>
        <pt x="160" y="384" on="1"/>
      </contour>
      <contour>
        <pt x="224" y="384" on="1"/>
        <pt x="210" y="384" on="0"/>
        <pt x="201" y="393" on="1"/>
        <pt x="192" y="402" on="0"/>
        <pt x="192" y="416" on="1"/>
        <pt x="192" y="429" on="0"/>
        <pt x="201" y="438" on="1"/>
        <pt x="210" y="448" on="0"/>
        <pt x="224" y="448" on="1"/>
        <pt x="237" y="448" on="0"/>
        <pt x="246" y="438" on="1"/>
        <pt x="256" y="429" on="0"/>
        <pt x="256" y="416" on="1"/>
        <pt x="256" y="402" on="0"/>
        <pt x="246" y="393" on="1"/>
        <pt x="237" y="384" on="0"/>
        <pt x="224" y="384" on="1"/>
      </contour>
    </TTGlyph>
    <TTGlyph name="E" xMin="0" yMin="0" xMax="320" yMax="448">
      <contour>
        <pt x="32" y="0" on="1"/>
        <pt x="18" y="0" on="0"/>
        <pt x="9" y="9" on="1"/>
        <pt x="0" y="18" on="0"/>
        <pt x="0" y="32" on="1"/>
        <pt x="0" y="45" on="0"/>
        <pt x="9" y="54" on="1"/>
        <pt x="18" y="64" on="0"/>
        <pt x="32" y="64" on="1"/>
        <pt x="45" y="64" on="0"/>
        <pt x="54" y="54" on="1"/>
        <pt x="64" y="45" on="0"/>
        <pt x="64" y="32" on="1"/>
        <pt x="64" y="18" on="0"/>
        <pt x="54" y="9" on="1"/>
        <pt x="45" y="0" on="0"/>
        <pt x="32" y="0" on="1"/>
      </contour>
      <contour>
        <pt x="96" y="0" on="1"/>
        <pt x="82" y="0" on="0"/>
        <pt x="73" y="9" on="1"/>
        <pt x="64" y="18" on="0"/>
        <pt x="64" y="32" on="1"/>
        <pt x="64" y="45" on="0"/>
        <pt x="73" y="54" on="1"/>
        <pt x="82" y="64" on="0"/>
        <pt x="96" y="64" on="1"/>
        <pt x="109" y="64" on="0"/>
        <pt x="118" y="54" on="1"/>
        <pt x="128" y="45" on="0"/>
        <pt x="128" y="32" on="1"/>
        <pt x="128" y="18" on="0"/>
        <pt x="118" y="9" on="1"/>
        <pt x="109" y="0" on="0"/>
        <pt x="96" y="0" on="1"/>
      </contour>
      <contour>
        <pt x="160" y="0" on="1"/>
        <pt x="146" y="0" on="0"/>
        <pt x="137" y="9" on="1"/>
        <pt x="128" y="18" on="0"/>
        <pt x="128" y="32" on="1"/>
        <pt x="128" y="45" on="0"/>
        <pt x="137" y="54" on="1"/>
        <pt x="146" y="64" on="0"/>
        <pt x="160" y="64" on="1"/>
        <pt x="173" y="64" on="0"/>
        <pt x="182" y="54" on="1"/>
        <pt x="192" y="45" on="0"/>
        <pt x="192" y="32" on="1"/>
        <pt x="192" y="18" on="0"/>
        <pt x="182" y="9" on="1"/>
        <pt x="173" y="0" on="0"/>
        <pt x="160" y="0" on="1"/>
      </contour>
      <contour>
        <pt x="224" y="0" on="1"/>
        <pt x="210" y="0" on="0"/>
        <pt x="201" y="9" on="1"/>
        <pt x="192" y="18" on="0"/>
        <pt x="192" y="32" on="1"/>
        <pt x="192" y="45" on="0"/>
        <pt x="201" y="54" on="1"/>
        <pt x="210" y="64" on="0"/>
        <pt x="224" y="64" on="1"/>
        <pt x="237" y="64" on="0"/>
        <pt x="246" y="54" on="1"/>
        <pt x="256" y="45" on="0"/>
        <pt x="256" y="32" on="1"/>
        <pt x="256" y="18" on="0"/>
        <pt x="246" y="9" on="1"/>
        <pt x="237" y="0" on="0"/>
        <pt x="224" y="0" on="1"/>
      </contour>
      <contour>
        <pt x="288" y="0" on="1"/>
        <pt x="274" y="0" on="0"/>
        <pt x="265" y="9" on="1"/>
        <pt x="256" y="18" on="0"/>
        <pt x="256" y="32" on="1"/>
        <pt x="256" y="45" on="0"/>
        <pt x="265" y="54" on="1"/>
        <pt x="274" y="64" on="0"/>
        <pt x="288" y="64" on="1"/>
        <pt x="301" y="64" on="0"/>
        <pt x="310" y="54" on="1"/>
        <pt x="320" y="45" on="0"/>
        <pt x="320" y="32" on="1"/>
        <pt x="320" y="18" on="0"/>
        <pt x="310" y="9" on="1"/>
        <pt x="301" y="0" on="0"/>
        <pt x="288" y="0" on="1"/>
      </contour>
      <contour>
        <pt x="32" y="64" on="1"/>
        <pt x="18" y="64" on="0"/>
        <pt x="9" y="73" on="1"/>
        <pt x="0" y="82" on="0"/>
        <pt x="0" y="96" on="1"/>
        <pt x="0" y="109" on="0"/>
        <pt x="9" y="118" on="1"/>
        <pt x="18" y="128" on="0"/>
        <pt x="32" y="128" on="1"/>
        <pt x="45" y="128" on="0"/>
        <pt x="54" y="118" on="1"/>
        <pt x="64" y="109" on="0"/>
        <pt x="64" y="96" on="1"/>
        <pt x="64" y="82" on="0"/>
        <pt x="54" y="73" on="1"/>
        <pt x="45" y="64" on="0"/>
        <pt x="32" y="64" on="1"/>
      </contour>
      <contour>
        <pt x="32" y="128" on="1"/>
        <pt x="18" y="128" on="0"/>
        <pt x="9" y="137" on="1"/>
        <pt x="0" y="146" on="0"/>
        <pt x="0" y="160" on="1"/>
        <pt x="0" y="173" on="0"/>
        <pt x="9" y="182" on="1"/>
        <pt x="18" y="192" on="0"/>
        <pt x="32" y="192" on="1"/>
        <pt x="45" y="192" on="0"/>
        <pt x="54" y="182" on="1"/>
        <pt x="64" y="173" on="0"/>
        <pt x="64" y="160" on="1"/>
        <pt x="64" y="146" on="0"/>
        <pt x="54" y="137" on="1"/>
        <pt x="45" y="128" on="0"/>
        <pt x="32" y="128" on="1"/>
      </contour>
      <contour>
        <pt x="32" y="192" on="1"/>
        <pt x="18" y="192" on="0"/>
        <pt x="9" y="201" on="1"/>
        <pt x="0" y="210" on="0"/>
        <pt x="0" y="224" on="1"/>
        <pt x="0" y="237" on="0"/>
        <pt x="9" y="246" on="1"/>
        <pt x="18" y="256" on="0"/>
        <pt x="32" y="256" on="1"/>
        <pt x="45" y="256" on="0"/>
        <pt x="54" y="246" on="1"/>
        <pt x="64" y="237" on="0"/>
        <pt x="64" y="224" on="1"/>
        <pt x="64" y="210" on="0"/>
        <pt x="54" y="201" on="1"/>
        <pt x="45" y="192" on="0"/>
        <pt x="32" y="192" on="1"/>
      </contour>
      <contour>
        <pt x="96" y="192" on="1"/>
        <pt x="82" y="192" on="0"/>
        <pt x="73" y="201" on="1"/>
        <pt x="64" y="210" on="0"/>
        <pt x="64" y="224" on="1"/>
        <pt x="64" y="237" on="0"/>
        <pt x="73" y="246" on="1"/>
        <pt x="82" y="256" on="0"/>
        <pt x="96" y="256" on="1"/>
        <pt x="109" y="256" on="0"/>
        <pt x="118" y="246" on="1"/>
        <pt x="128" y="237" on="0"/>
        <pt x="128" y="224" on="1"/>
        <pt x="128" y="210" on="0"/>
        <pt x="118" y="201" on="1"/>
        <pt x="109" y="192" on="0"/>
        <pt x="96" y="192" on="1"/>
      </contour>
      <contour>
        <pt x="160" y="192" on="1"/>
        <pt x="146" y="192" on="0"/>
        <pt x="137" y="201" on="1"/>
        <pt x="128" y="210" on="0"/>
        <pt x="128" y="224" on="1"/>
        <pt x="128" y="237" on="0"/>
        <pt x="137" y="246" on="1"/>
        <pt x="146" y="256" on="0"/>
        <pt x="160" y="256" on="1"/>
        <pt x="173" y="256" on="0"/>
        <pt x="182" y="246" on="1"/>
        <pt x="192" y="237" on="0"/>
        <pt x="192" y="224" on="1"/>
        <pt x="192" y="210" on="0"/>
        <pt x="182" y="201" on="1"/>
        <pt x="173" y="192" on="0"/>
        <pt x="160" y="192" on="1"/>
      </contour>
      <contour>
        <pt x="224" y="192" on="1"/>
        <pt x="210" y="192" on="0"/>
        <pt x="201" y="201" on="1"/>
        <pt x="192" y="210" on="0"/>
        <pt x="192" y="224" on="1"/>
        <pt x="192" y="237" on="0"/>
        <pt x="201" y="246" on="1"/>
        <pt x="210" y="256" on="0"/>
        <pt x="224" y="256" on="1"/>
        <pt x="237" y="256" on="0"/>
        <pt x="246" y="246" on="1"/>
        <pt x="256" y="237" on="0"/>
        <pt x="256" y="224" on="1"/>
        <pt x="256" y="210" on="0"/>
        <pt x="246" y="201" on="1"/>
        <pt x="237" y="192" on="0"/>
        <pt x="224" y="192" on="1"/>
      </contour>
      <contour>
        <pt x="32" y="256" on="1"/>
        <pt x="18" y="256" on="0"/>
        <pt x="9" y="265" on="1"/>
        <pt x="0" y="274" on="0"/>
        <pt x="0" y="288" on="1"/>
        <pt x="0" y="301" on="0"/>
        <pt x="9" y="310" on="1"/>
        <pt x="18" y="320" on="0"/>
        <pt x="32" y="320" on="1"/>
        <pt x="45" y="320" on="0"/>
        <pt x="54" y="310" on="1"/>
        <pt x="64" y="301" on="0"/>
        <pt x="64" y="288" on="1"/>
        <pt x="64" y="274" on="0"/>
        <pt x="54" y="265" on="1"/>
        <pt x="45" y="256" on="0"/>
        <pt x="32" y="256" on="1"/>
      </contour>
      <contour>
        <pt x="32" y="320" on="1"/>
        <pt x="18" y="320" on="0"/>
        <pt x="9" y="329" on="1"/>
        <pt x="0" y="338" on="0"/>
        <pt x="0" y="352" on="1"/>
        <pt x="0" y="365" on="0"/>
        <pt x="9" y="374" on="1"/>
        <pt x="18" y="384" on="0"/>
        <pt x="32" y="384" on="1"/>
        <pt x="45" y="384" on="0"/>
        <pt x="54" y="374" on="1"/>
        <pt x="64" y="365" on="0"/>
        <pt x="64" y="352" on="1"/>
        <pt x="64" y="338" on="0"/>
        <pt x="54" y="329" on="1"/>
        <pt x="45" y="320" on="0"/>
        <pt x="32" y="320" on="1"/>
      </contour>
      <contour>
        <pt x="32" y="384" on="1"/>
        <pt x="18" y="384" on="0"/>
        <pt x="9" y="393" on="1"/>
        <pt x="0" y="402" on="0"/>
        <pt x="0" y="416" on="1"/>
        <pt x="0" y="429" on="0"/>
        <pt x="9" y="438" on="1"/>
        <pt x="18" y="448" on="0"/>
        <pt x="32" y="448" on="1"/>
        <pt x="45" y="448" on="0"/>
        <pt x="54" y="438" on="1"/>
        <pt x="64" y="429" on="0"/>
        <pt x="64" y="416" on="1"/>
        <pt x="64" y="402" on="0"/>
        <pt x="54" y="393" on="1"/>
        <pt x="45" y="384" on="0"/>
        <pt x="32" y="384" on="1"/>
      </contour>
      <contour>
        <pt x="96" y="384" on="1"/>
        <pt x="82" y="384" on="0"/>
        <pt x="73" y="393" on="1"/>
        <pt x="64" y="402" on="0"/>
        <pt x="64" y="416" on="1"/>
        <pt x="64" y="429" on="0"/>
        <pt x="73" y="438" on="1"/>
        <pt x="82" y="448" on="0"/>
        <pt x="96" y="448" on="1"/>
        <pt x="109" y="448" on="0"/>
        <pt x="118" y="438" on="1"/>
        <pt x="128" y="429" on="0"/>
        <pt x="128" y="416" on="1"/>
        <pt x="128" y="402" on="0"/>
        <pt x="118" y="393" on="1"/>
        <pt x="109" y="384" on="0"/>
        <pt x="96" y="384" on="1"/>
      </contour>
      <contour>
        <pt x="160" y="384" on="1"/>
        <pt x="146" y="384" on="0"/>
        <pt x="137" y="393" on="1"/>
        <pt x="128" y="402" on="0"/>
        <pt x="128" y="416" on="1"/>
        <pt x="128" y="429" on="0"/>
        <pt x="137" y="438" on="1"/>
        <pt x="146" y="448" on="0"/>
        <pt x="160" y="448" on="1"/>
        <pt x="173" y="448" on="0"/>
        <pt x="182" y="438" on="1"/>
        <pt x="192" y="429" on="0"/>
        <pt x="192" y="416" on="1"/>
        <pt x="192" y="402" on="0"/>
        <pt x="182" y="393" on="1"/>
        <pt x="173" y="384" on="0"/>
        <pt x="160" y="384" on="1"/>
      </contour>
      <contour>
        <pt x="224" y="384" on="1"/>
        <pt x="210" y="384" on="0"/>
        <pt x="201" y="393" on="1"/>
        <pt x="192" y="402" on="0"/>
        <pt x="192" y="416" on="1"/>
        <pt x="192" y="429" on="0"/>
        <pt x="201" y="438" on="1"/>
        <pt x="210" y="448" on="0"/>
        <pt x="224" y="448" on="1"/>
        <pt x="237" y="448" on="0"/>
        <pt x="246" y="438" on="1"/>
        <pt x="256" y="429" on="0"/>
        <pt x="256" y="416" on="1"/>
        <pt x="256" y="402" on="0"/>
        <pt x="246" y="393" on="1"/>
        <pt x="237" y="384" on="0"/>
        <pt x="224" y="384" on="1"/>
      </contour>
      <contour>
        <pt x="288" y="384" on="1"/>
        <pt x="274" y="384" on="0"/>
        <pt x="265" y="393" on="1"/>
        <pt x="256" y="402" on="0"/>
        <pt x="256" y="416" on="1"/>
        <pt x="256" y="429" on="0"/>
        <pt x="265" y="438" on="1"/>
        <pt x="274" y="448" on="0"/>
        <pt x="288" y="448" on="1"/>
        <pt x="301" y="448" on="0"/>
        <pt x="310" y="438" on="1"/>
        <pt x="320" y="429" on="0"/>
        <pt x="320" y="416" on="1"/>
        <pt x="320" y="402" on="0"/>
        <pt x="310" y="393" on="1"/>
        <pt x="301" y="384" on="0"/>
        <pt x="288" y="384" on="1"/>
      </contour>
    </TTGlyph>
    <TTGlyph name="F" xMin="0" yMin="0" xMax="320" yMax="448">
      <contour>
        <pt x="32" y="0" on="1"/>
        <pt x="18" y="0" on="0"/>
        <pt x="9" y="9" on="1"/>
        <pt x="0" y="18" on="0"/>
        <pt x="0" y="32" on="1"/>
        <pt x="0" y="45" on="0"/>
        <pt x="9" y="54" on="1"/>
        <pt x="18" y="64" on="0"/>
        <pt x="32" y="64" on="1"/>
        <pt x="45" y="64" on="0"/>
        <pt x="54" y="54" on="1"/>
        <pt x="64" y="45" on="0"/>
        <pt x="64" y="32" on="1"/>
        <pt x="64" y="18" on="0"/>
        <pt x="54" y="9" on="1"/>
        <pt x="45" y="0" on="0"/>
        <pt x="32" y="0" on="1"/>
      </contour>
      <contour>
        <pt x="32" y="64" on="1"/>
        <pt x="18" y="64" on="0"/>
        <pt x="9" y="73" on="1"/>
        <pt x="0" y="82" on="0"/>
        <pt x="0" y="96" on="1"/>
        <pt x="0" y="109" on="0"/>
        <pt x="9" y="118" on="1"/>
        <pt x="18" y="128" on="0"/>
        <pt x="32" y="128" on="1"/>
        <pt x="45" y="128" on="0"/>
        <pt x="54" y="118" on="1"/>
        <pt x="64" y="109" on="0"/>
        <pt x="64" y="96" on="1"/>
        <pt x="64" y="82" on="0"/>
        <pt x="54" y="73" on="1"/>
        <pt x="45" y="64" on="0"/>
        <pt x="32" y="64" on="1"/>
      </contour>
      <contour>
        <pt x="32" y="128" on="1"/>
        <pt x="18" y="128" on="0"/>
        <pt x="9" y="137" on="1"/>
        <pt x="0" y="146" on="0"/>
        <pt x="0" y="160" on="1"/>
        <pt x="0" y="173" on="0"/>
        <pt x="9" y="182" on="1"/>
        <pt x="18" y="192" on="0"/>
        <pt x="32" y="192" on="1"/>
        <pt x="45" y="192" on="0"/>
        <pt x="54" y="182" on="1"/>
        <pt x="64" y="173" on="0"/>
        <pt x="64" y="160" on="1"/>
        <pt x="64" y="146" on="0"/>
        <pt x="54" y="137" on="1"/>
        <pt x="45" y="128" on="0"/>
        <pt x="32" y="128" on="1"/>
      </contour>
      <contour>
        <pt x="32" y="192" on="1"/>
        <pt x="18" y="192" on="0"/>
        <pt x="9" y="201" on="1"/>
        <pt x="0" y="210" on="0"/>
        <pt x="0" y="224" on="1"/>
        <pt x="0" y="237" on="0"/>
        <pt x="9" y="246" on="1"/>
        <pt x="18" y="256" on="0"/>
        <pt x="32" y="256" on="1"/>
        <pt x="45" y="256" on="0"/>
        <pt x="54" y="246" on="1"/>
        <pt x="64" y="237" on="0"/>
        <pt x="64" y="224" on="1"/>
        <pt x="64" y="210" on="0"/>
        <pt x="54" y="201" on="1"/>
        <pt x="45" y="192" on="0"/>
        <pt x="32" y="192" on="1"/>
      </contour>
      <contour>
        <pt x="96" y="192" on="1"/>
        <pt x="82" y="192" on="0"/>
        <pt x="73" y="201" on="1"/>
        <pt x="64" y="210" on="0"/>
        <pt x="64" y="224" on="1"/>
        <pt x="64" y="237" on="0"/>
        <pt x="73" y="246" on="1"/>
        <pt x="82" y="256" on="0"/>
        <pt x="96" y="256" on="1"/>
        <pt x="109" y="256" on="0"/>
        <pt x="118" y="246" on="1"/>
        <pt x="128" y="237" on="0"/>
        <pt x="128" y="224" on="1"/>
        <pt x="128" y="210" on="0"/>
        <pt x="118" y="201" on="1"/>
        <pt x="109" y="192" on="0"/>
        <pt x="96" y="192" on="1"/>
      </contour>
      <contour>
        <pt x="160" y="192" on="1"/>
        <pt x="146" y="192" on="0"/>
        <pt x="137" y="201" on="1"/>
        <pt x="128" y="210" on="0"/>
        <pt x="128" y="224" on="1"/>
        <pt x="128" y="237" on="0"/>
        <pt x="137" y="246" on="1"/>
        <pt x="146" y="256" on="0"/>
        <pt x="160" y="256" on="1"/>
        <pt x="173" y="256" on="0"/>
        <pt x="182" y="246" on="1"/>
        <pt x="192" y="237" on="0"/>
        <pt x="192" y="224" on="1"/>
        <pt x="192" y="210" on="0"/>
        <pt x="182" y="201" on="1"/>
        <pt x="173" y="192" on="0"/>
        <pt x="160" y="192" on="1"/>
      </contour>
      <contour>
        <pt x="224" y="192" on="1"/>
        <pt x="210" y="192" on="0"/>
        <pt x="201" y="201" on="1"/>
        <pt x="192" y="210" on="0"/>
        <pt x="192" y="224" on="1"/>
        <pt x="192" y="237" on="0"/>
        <pt x="201" y="246" on="1"/>
        <pt x="210" y="256" on="0"/>
        <pt x="224" y="256" on="1"/>
        <pt x="237" y="256" on="0"/>
        <pt x="246" y="246" on="1"/>
        <pt x="256" y="237" on="0"/>
        <pt x="256" y="224" on="1"/>
        <pt x="256" y="210" on="0"/>
        <pt x="246" y="201" on="1"/>
        <pt x="237" y="192" on="0"/>
        <pt x="224" y="192" on="1"/>
      </contour>
      <contour>
        <pt x="32" y="256" on="1"/>
        <pt x="18" y="256" on="0"/>
        <pt x="9" y="265" on="1"/>
        <pt x="0" y="274" on="0"/>
        <pt x="0" y="288" on="1"/>
        <pt x="0" y="301" on="0"/>
        <pt x="9" y="310" on="1"/>
        <pt x="18" y="320" on="0"/>
        <pt x="32" y="320" on="1"/>
        <pt x="45" y="320" on="0"/>
        <pt x="54" y="310" on="1"/>
        <pt x="64" y="301" on="0"/>
        <pt x="64" y="288" on="1"/>
        <pt x="64" y="274" on="0"/>
        <pt x="54" y="265" on="1"/>
        <pt x="45" y="256" on="0"/>
        <pt x="32" y="256" on="1"/>
      </contour>
      <contour>
        <pt x="32" y="320" on="1"/>
        <pt x="18" y="320" on="0"/>
        <pt x="9" y="329" on="1"/>
        <pt x="0" y="338" on="0"/>
        <pt x="0" y="352" on="1"/>
        <pt x="0" y="365" on="0"/>
        <pt x="9" y="374" on="1"/>
        <pt x="18" y="384" on="0"/>
        <pt x="32" y="384" on="1"/>
        <pt x="45" y="384" on="0"/>
        <pt x="54" y="374" on="1"/>
        <pt x="64" y="365" on="0"/>
        <pt x="64" y="352" on="1"/>
        <pt x="64" y="338" on="0"/>
        <pt x="54" y="329" on="1"/>
        <pt x="45" y="320" on="0"/>
        <pt x="32" y="320" on="1"/>
      </contour>
      <contour>
        <pt x="32" y="384" on="1"/>
        <pt x="18" y="384" on="0"/>
        <pt x="9" y="393" on="1"/>
        <pt x="0" y="402" on="0"/>
        <pt x="0" y="416" on="1"/>
        <pt x="0" y="429" on="0"/>
        <pt x="9" y="438" on="1"/>
        <pt x="18" y="448" on="0"/>
        <pt x="32" y="448" on="1"/>
        <pt x="45" y="448" on="0"/>
        <pt x="54" y="438" on="1"/>
        <pt x="64" y="429" on="0"/>
        <pt x="64" y="416" on="1"/>
        <pt x="64" y="402" on="0"/>
        <pt x="54" y="393" on="1"/>
        <pt x="45" y="384" on="0"/>
        <pt x="32" y="384" on="1"/>
      </contour>
      <contour>
        <pt x="96" y="384" on="1"/>
        <pt x="82" y="384" on="0"/>
        <pt x="73" y="393" on="1"/>
        <pt x="64" y="402" on="0"/>
        <pt x="64" y="416" on="1"/>
        <pt x="64" y="429" on="0"/>
        <pt x="73" y="438" on="1"/>
        <pt x="82" y="448" on="0"/>
        <pt x="96" y="448" on="1"/>
        <pt x="109" y="448" on="0"/>
        <pt x="118" y="438" on="1"/>
        <pt x="128" y="429" on="0"/>
        <pt x="128" y="416" on="1"/>
        <pt x="128" y="402" on="0"/>
        <pt x="118" y="393" on="1"/>
        <pt x="109" y="384" on="0"/>
        <pt x="96" y="384" on="1"/>
      </contour>
      <contour>
        <pt x="160" y="384" on="1"/>
        <pt x="146" y="384" on="0"/>
        <pt x="137" y="393" on="1"/>
        <pt x="128" y="402" on="0"/>
        <pt x="128" y="416" on="1"/>
        <pt x="128" y="429" on="0"/>
        <pt x="137" y="438" on="1"/>
        <pt x="146" y="448" on="0"/>
        <pt x="160" y="448" on="1"/>
        <pt x="173" y="448" on="0"/>
        <pt x="182" y="438" on="1"/>
        <pt x="192" y="429" on="0"/>
        <pt x="192" y="416" on="1"/>
        <pt x="192" y="402" on="0"/>
        <pt x="182" y="393" on="1"/>
        <pt x="173" y="384" on="0"/>
        <pt x="160" y="384" on="1"/>
      </contour>
      <contour>
        <pt x="224" y="384" on="1"/>
        <pt x="210" y="384" on="0"/>
        <pt x="201" y="393" on="1"/>
        <pt x="192" y="402" on="0"/>
        <pt x="192" y="416" on="1"/>
        <pt x="192" y="429" on="0"/>
        <pt x="201" y="438" on="1"/>
        <pt x="210" y="448" on="0"/>
        <pt x="224" y="448" on="1"/>
        <pt x="237" y="448" on="0"/>
        <pt x="246" y="438" on="1"/>
        <pt x="256" y="429" on="0"/>
        <pt x="256" y="416" on="1"/>
        <pt x="256" y="402" on="0"/>
        <pt x="246" y="393" on="1"/>
        <pt x="237" y="384" on="0"/>
        <pt x="224" y="384" on="1"/>
      </contour>
      <contour>
        <pt x="288" y="384" on="1"/>
        <pt x="274" y="384" on="0"/>
        <pt x="265" y="393" on="1"/>
        <pt x="256" y="402" on="0"/>
        <pt x="256" y="416" on="1"/>
        <pt x="256" y="429" on="0"/>
        <pt x="265" y="438" on="1"/>
        <pt x="274" y="448" on="0"/>
        <pt x="288" y="448" on="1"/>
        <pt x="301" y="448" on="0"/>
        <pt x="310" y="438" on="1"/>
        <pt x="320" y="429" on="0"/>
        <pt x="320" y="416" on="1"/>
        <pt x="320" y="402" on="0"/>
        <pt x="310" y="393" on="1"/>
        <pt x="301" y="384" on="0"/>
        <pt x="288" y="384" on="1"/>
      </contour>
    </TTGlyph>
    <TTGlyph name="G" xMin="0" yMin="0" xMax="320" yMax="448">
      <contour>
        <pt x="96" y="0" on="1"/>
        <pt x="82" y="0" on="0"/>
        <pt x="73" y="9" on="1"/>
        <pt x="64" y="18" on="0"/>
        <pt x="64" y="32" on="1"/>
        <pt x="64" y="45" on="0"/>
        <pt x="73" y="54" on="1"/>
        <pt x="82" y="64" on="0"/>
        <pt x="96" y="64" on="1"/>
        <pt x="109" y="64" on="0"/>
        <pt x="118" y="54" on="1"/>
        <pt x="128" y="45" on="0"/>
        <pt x="128" y="32" on="1"/>
        <pt x="128" y="18" on="0"/>
        <pt x="118" y="9" on="1"/>
        <pt x="109" y="0" on="0"/>
        <pt x="96" y="0" on="1"/>
      </contour>
      <contour>
        <pt x="160" y="0" on="1"/>
        <pt x="146" y="0" on="0"/>
        <pt x="137" y="9" on="1"/>
        <pt x="128" y="18" on="0"/>
        <pt x="128" y="32" on="1"/>
        <pt x="128" y="45" on="0"/>
        <pt x="137" y="54" on="1"/>
        <pt x="146" y="64" on="0"/>
        <pt x="160" y="64" on="1"/>
        <pt x="173" y="64" on="0"/>
        <pt x="182" y="54" on="1"/>
        <pt x="192" y="45" on="0"/>
        <pt x="192" y="32" on="1"/>
        <pt x="192" y="18" on="0"/>
        <pt x="182" y="9" on="1"/>
        <pt x="173" y="0" on="0"/>
        <pt x="160" y="0" on="1"/>
      </contour>
      <contour>
        <pt x="224" y="0" on="1"/>
        <pt x="210" y="0" on="0"/>
        <pt x="201" y="9" on="1"/>
        <pt x="192" y="18" on="0"/>
        <pt x="192" y="32" on="1"/>
        <pt x="192" y="45" on="0"/>
        <pt x="201" y="54" on="1"/>
        <pt x="210" y="64" on="0"/>
        <pt x="224" y="64" on="1"/>
        <pt x="237" y="64" on="0"/>
        <pt x="246" y="54" on="1"/>
        <pt x="256" y="45" on="0"/>
        <pt x="256" y="32" on="1"/>
        <pt x="256" y="18" on="0"/>
        <pt x="246" y="9" on="1"/>
        <pt x="237" y="0" on="0"/>
        <pt x="224" y="0" on="1"/>
      </contour>
      <contour>
        <pt x="32" y="64" on="1"/>
        <pt x="18" y="64" on="0"/>
        <pt x="9" y="73" on="1"/>
        <pt x="0" y="82" on="0"/>
        <pt x="0" y="96" on="1"/>
        <pt x="0" y="109" on="0"/>
        <pt x="9" y="118" on="1"/>
        <pt x="18" y="128" on="0"/>
        <pt x="32" y="128" on="1"/>
        <pt x="45" y="128" on="0"/>
        <pt x="54" y="118" on="1"/>
        <pt x="64" y="109" on="0"/>
        <pt x="64" y="96" on="1"/>
        <pt x="64" y="82" on="0"/>
        <pt x="54" y="73" on="1"/>
        <pt x="45" y="64" on="0"/>
        <pt x="32" y="64" on="1"/>
      </contour>
      <contour>
        <pt x="288" y="64" on="1"/>
        <pt x="274" y="64" on="0"/>
        <pt x="265" y="73" on="1"/>
        <pt x="256" y="82" on="0"/>
        <pt x="256" y="96" on="1"/>
        <pt x="256" y="109" on="0"/>
        <pt x="265" y="118" on="1"/>
        <pt x="274" y="128" on="0"/>
        <pt x="288" y="128" on="1"/>
        <pt x="301" y="128" on="0"/>
        <pt x="310" y="118" on="1"/>
        <pt x="320" y="109" on="0"/>
        <pt x="320" y="96" on="1"/>
        <pt x="320" y="82" on="0"/>
        <pt x="310" y="73" on="1"/>
        <pt x="301" y="64" on="0"/>
        <pt x="288" y="64" on="1"/>
      </contour>
      <contour>
        <pt x="32" y="128" on="1"/>
        <pt x="18" y="128" on="0"/>
        <pt x="9" y="137" on="1"/>
        <pt x="0" y="146" on="0"/>
        <pt x="0" y="160" on="1"/>
        <pt x="0" y="173" on="0"/>
        <pt x="9" y="182" on="1"/>
        <pt x="18" y="192" on="0"/>
        <pt x="32" y="192" on="1"/>
        <pt x="45" y="192" on="0"/>
        <pt x="54" y="182" on="1"/>
        <pt x="64" y="173" on="0"/>
        <pt x="64" y="160" on="1"/>
        <pt x="64" y="146" on="0"/>
        <pt x="54" y="137" on="1"/>
        <pt x="45" y="128" on="0"/>
        <pt x="32" y="128" on="1"/>
      </contour>
      <contour>
        <pt x="160" y="128" on="1"/>
        <pt x="146" y="128" on="0"/>
        <pt x="137" y="137" on="1"/>
        <pt x="128" y="146" on="0"/>
        <pt x="128" y="160" on="1"/>
        <pt x="128" y="173" on="0"/>
        <pt x="137" y="182" on="1"/>
        <pt x="146" y="192" on="0"/>
        <pt x="160" y="192" on="1"/>
        <pt x="173" y="192" on="0"/>
        <pt x="182" y="182" on="1"/>
        <pt x="192" y="173" on="0"/>
        <pt x="192" y="160" on="1"/>
        <pt x="192" y="146" on="0"/>
        <pt x="182" y="137" on="1"/>
        <pt x="173" y="128" on="0"/>
        <pt x="160" y="128" on="1"/>
      </contour>
      <contour>
        <pt x="224" y="128" on="1"/>
        <pt x="210" y="128" on="0"/>
        <pt x="201" y="137" on="1"/>
        <pt x="192" y="146" on="0"/>
        <pt x="192" y="160" on="1"/>
        <pt x="192" y="173" on="0"/>
        <pt x="201" y="182" on="1"/>
        <pt x="210" y="192" on="0"/>
        <pt x="224" y="192" on="1"/>
        <pt x="237" y="192" on="0"/>
        <pt x="246" y="182" on="1"/>
        <pt x="256" y="173" on="0"/>
        <pt x="256" y="160" on="1"/>
        <pt x="256" y="146" on="0"/>
        <pt x="246" y="137" on="1"/>
        <pt x="237" y="128" on="0"/>
        <pt x="224" y="128" on="1"/>
      </contour>
      <contour>
        <pt x="288" y="128" on="1"/>
        <pt x="274" y="128" on="0"/>
        <pt x="265" y="137" on="1"/>
        <pt x="256" y="146" on="0"/>
        <pt x="256" y="160" on="1"/>
        <pt x="256" y="173" on="0"/>
        <pt x="265" y="182" on="1"/>
        <pt x="274" y="192" on="0"/>
        <pt x="288" y="192" on="1"/>
        <pt x="301" y="192" on="0"/>
        <pt x="310" y="182" on="1"/>
        <pt x="320" y="173" on="0"/>
        <pt x="320" y="160" on="1"/>
        <pt x="320" y="146" on="0"/>
        <pt x="310" y="137" on="1"/>
        <pt x="301" y="128" on="0"/>
        <pt x="288" y="128" on="1"/>
      </contour>
      <contour>
        <pt x="32" y="192" on="1"/>
        <pt x="18" y="192" on="0"/>
        <pt x="9" y="201" on="1"/>
        <pt x="0" y="210" on="0"/>
        <pt x="0" y="224" on="1"/>
        <pt x="0" y="237" on="0"/>
        <pt x="9" y="246" on="1"/>
        <pt x="18" y="256" on="0"/>
        <pt x="32" y="256" on="1"/>
        <pt x="45" y="256" on="0"/>
        <pt x="54" y="246" on="1"/>
        <pt x="64" y="237" on="0"/>
        <pt x="64" y="224" on="1"/>
        <pt x="64" y="210" on="0"/>
        <pt x="54" y="201" on="1"/>
        <pt x="45" y="192" on="0"/>
        <pt x="32" y="192" on="1"/>
      </contour>
      <contour>
        <pt x="32" y="256" on="1"/>
        <pt x="18" y="256" on="0"/>
        <pt x="9" y="265" on="1"/>
        <pt x="0" y="274" on="0"/>
        <pt x="0" y="288" on="1"/>
        <pt x="0" y="301" on="0"/>
        <pt x="9" y="310" on="1"/>
        <pt x="18" y="320" on="0"/>
        <pt x="32" y="320" on="1"/>
        <pt x="45" y="320" on="0"/>
        <pt x="54" y="310" on="1"/>
        <pt x="64" y="301" on="0"/>
        <pt x="64" y="288" on="1"/>
        <pt x="64" y="274" on="0"/>
        <pt x="54" y="265" on="1"/>
        <pt x="45" y="256" on="0"/>
        <pt x="32" y="256" on="1"/>
      </contour>
      <contour>
        <pt x="32" y="320" on="1"/>
        <pt x="18" y="320" on="0"/>
        <pt x="9" y="329" on="1"/>
        <pt x="0" y="338" on="0"/>
        <pt x="0" y="352" on="1"/>
        <pt x="0" y="365" on="0"/>
        <pt x="9" y="374" on="1"/>
        <pt x="18" y="384" on="0"/>
        <pt x="32" y="384" on="1"/>
        <pt x="45" y="384" on="0"/>
        <pt x="54" y="374" on="1"/>
        <pt x="64" y="365" on="0"/>
        <pt x="64" y="352" on="1"/>
        <pt x="64" y="338" on="0"/>
        <pt x="54" y="329" on="1"/>
        <pt x="45" y="320" on="0"/>
        <pt x="32" y="320" on="1"/>
      </contour>
      <contour>
        <pt x="288" y="320" on="1"/>
        <pt x="274" y="320" on="0"/>
        <pt x="265" y="329" on="1"/>
        <pt x="256" y="338" on="0"/>
        <pt x="256" y="352" on="1"/>
        <pt x="256" y="365" on="0"/>
        <pt x="265" y="374" on="1"/>
        <pt x="274" y="384" on="0"/>
        <pt x="288" y="384" on="1"/>
        <pt x="301" y="384" on="0"/>
        <pt x="310" y="374" on="1"/>
        <pt x="320" y="365" on="0"/>
        <pt x="320" y="352" on="1"/>
        <pt x="320" y="338" on="0"/>
        <pt x="310" y="329" on="1"/>
        <pt x="301" y="320" on="0"/>
        <pt x="288" y="320" on="1"/>
      </contour>
      <contour>
        <pt x="96" y="384" on="1"/>
        <pt x="82" y="384" on="0"/>
        <pt x="73" y="393" on="1"/>
        <pt x="64" y="402" on="0"/>
        <pt x="64" y="416" on="1"/>
        <pt x="64" y="429" on="0"/>
        <pt x="73" y="438" on="1"/>
        <pt x="82" y="448" on="0"/>
        <pt x="96" y="448" on="1"/>
        <pt x="109" y="448" on="0"/>
        <pt x="118" y="438" on="1"/>
        <pt x="128" y="429" on="0"/>
        <pt x="128" y="416" on="1"/>
        <pt x="128" y="402" on="0"/>
        <pt x="118" y="393" on="1"/>
        <pt x="109" y="384" on="0"/>
        <pt x="96" y="384" on="1"/>
      </contour>
      <contour>
        <pt x="160" y="384" on="1"/>
        <pt x="146" y="384" on="0"/>
        <pt x="137" y="393" on="1"/>
        <pt x="128" y="402" on="0"/>
        <pt x="128" y="416" on="1"/>
        <pt x="128" y="429" on="0"/>
        <pt x="137" y="438" on="1"/>
        <pt x="146" y="448" on="0"/>
        <pt x="160" y="448" on="1"/>
        <pt x="173" y="448" on="0"/>
        <pt x="182" y="438" on="1"/>
        <pt x="192" y="429" on="0"/>
        <pt x="192" y="416" on="1"/>
        <pt x="192" y="402" on="0"/>
        <pt x="182" y="393" on="1"/>
        <pt x="173" y="384" on="0"/>
        <pt x="160" y="384" on="1"/>
      </contour>
      <contour>
        <pt x="224" y="384" on="1"/>
        <pt x="210" y="384" on="0"/>
        <pt x="201" y="393" on="1"/>
        <pt x="192" y="402" on="0"/>
        <pt x="192" y="416" on="1"/>
        <pt x="192" y="429" on="0"/>
        <pt x="201" y="438" on="1"/>
        <pt x="210" y="448" on="0"/>
        <pt x="224" y="448" on="1"/>
        <pt x="237" y="448" on="0"/>
        <pt x="246" y="438" on="1"/>
        <pt x="256" y="429" on="0"/>
        <pt x="256" y="416" on="1"/>
        <pt x="256" y="402" on="0"/>
        <pt x="246" y="393" on="1"/>
        <pt x="237" y="384" on="0"/>
        <pt x="224" y="384" on="1"/>
      </contour>
    </TTGlyph>
    <TTGlyph name="H" xMin="0" yMin="0" xMax="320" yMax="448">
      <contour>
        <pt x="32" y="0" on="1"/>
        <pt x="18" y="0" on="0"/>
        <pt x="9" y="9" on="1"/>
        <pt x="0" y="18" on="0"/>
        <pt x="0" y="32" on="1"/>
        <pt x="0" y="45" on="0"/>
        <pt x="9" y="54" on="1"/>
        <pt x="18" y="64" on="0"/>
        <pt x="32" y="64" on="1"/>
        <pt x="45" y="64" on="0"/>
        <pt x="54" y="54" on="1"/>
        <pt x="64" y="45" on="0"/>
        <pt x="64" y="32" on="1"/>
        <pt x="64" y="18" on="0"/>
        <pt x="54" y="9" on="1"/>
        <pt x="45" y="0" on="0"/>
        <pt x="32" y="0" on="1"/>
      </contour>
      <contour>
        <pt x="288" y="0" on="1"/>
        <pt x="274" y="0" on="0"/>
        <pt x="265" y="9" on="1"/>
        <pt x="256" y="18" on="0"/>
        <pt x="256" y="32" on="1"/>
        <pt x="256" y="45" on="0"/>
        <pt x="265" y="54" on="1"/>
        <pt x="274" y="64" on="0"/>
        <pt x="288" y="64" on="1"/>
        <pt x="301" y="64" on="0"/>
        <pt x="310" y="54" on="1"/>
        <pt x="320" y="45" on="0"/>
        <pt x="320" y="32" on="1"/>
        <pt x="320" y="18" on="0"/>
        <pt x="310" y="9" on="1"/>
        <pt x="301" y="0" on="0"/>
        <pt x="288" y="0" on="1"/>
      </contour>
      <contour>
        <pt x="32" y="64" on="1"/>
        <pt x="18" y="64" on="0"/>
        <pt x="9" y="73" on="1"/>
        <pt x="0" y="82" on="0"/>
        <pt x="0" y="96" on="1"/>
        <pt x="0" y="109" on="0"/>
        <pt x="9" y="118" on="1"/>
        <pt x="18" y="128" on="0"/>
        <pt x="32" y="128" on="1"/>
        <pt x="45" y="128" on="0"/>
        <pt x="54" y="118" on="1"/>
        <pt x="64" y="109" on="0"/>
        <pt x="64" y="96" on="1"/>
        <pt x="64" y="82" on="0"/>
        <pt x="54" y="73" on="1"/>
        <pt x="45" y="64" on="0"/>
        <pt x="32" y="64" on="1"/>
      </contour>
      <contour>
        <pt x="288" y="64" on="1"/>
        <pt x="274" y="64" on="0"/>
        <pt x="265" y="73" on="1"/>
        <pt x="256" y="82" on="0"/>
        <pt x="256" y="96" on="1"/>
        <pt x="256" y="109" on="0"/>
        <pt x="265" y="118" on="1"/>
        <pt x="274" y="128" on="0"/>
        <pt x="288" y="128" on="1"/>
        <pt x="301" y="128" on="0"/>
        <pt x="310" y="118" on="1"/>
        <pt x="320" y="109" on="0"/>
        <pt x="320" y="96" on="1"/>
        <pt x="320" y="82" on="0"/>
        <pt x="310" y="73" on="1"/>
        <pt x="301" y="64" on="0"/>
        <pt x="288" y="64" on="1"/>
      </contour>
      <contour>
        <pt x="32" y="128" on="1"/>
        <pt x="18" y="128" on="0"/>
        <pt x="9" y="137" on="1"/>
        <pt x="0" y="146" on="0"/>
        <pt x="0" y="160" on="1"/>
        <pt x="0" y="173" on="0"/>
        <pt x="9" y="182" on="1"/>
        <pt x="18" y="192" on="0"/>
        <pt x="32" y="192" on="1"/>
        <pt x="45" y="192" on="0"/>
        <pt x="54" y="182" on="1"/>
        <pt x="64" y="173" on="0"/>
        <pt x="64" y="160" on="1"/>
        <pt x="64" y="146" on="0"/>
        <pt x="54" y="137" on="1"/>
        <pt x="45" y="128" on="0"/>
        <pt x="32" y="128" on="1"/>
      </contour>
      <contour>
        <pt x="288" y="128" on="1"/>
        <pt x="274" y="128" on="0"/>
        <pt x="265" y="137" on="1"/>
        <pt x="256" y="146" on="0"/>
        <pt x="256" y="160" on="1"/>
        <pt x="256" y="173" on="0"/>
        <pt x="265" y="182" on="1"/>
        <pt x="274" y="192" on="0"/>
        <pt x="288" y="192" on="1"/>
        <pt x="301" y="192" on="0"/>
        <pt x="310" y="182" on="1"/>
        <pt x="320" y="173" on="0"/>
        <pt x="320" y="160" on="1"/>
        <pt x="320" y="146" on="0"/>
        <pt x="310" y="137" on="1"/>
        <pt x="301" y="128" on="0"/>
        <pt x="288" y="128" on="1"/>
      </contour>
      <contour>
        <pt x="32" y="192" on="1"/>
        <pt x="18" y="192" on="0"/>
        <pt x="9" y="201" on="1"/>
        <pt x="0" y="210" on="0"/>
        <pt x="0" y="224" on="1"/>
        <pt x="0" y="237" on="0"/>
        <pt x="9" y="246" on="1"/>
        <pt x="18" y="256" on="0"/>
        <pt x="32" y="256" on="1"/>
        <pt x="45" y="256" on="0"/>
        <pt x="54" y="246" on="1"/>
        <pt x="64" y="237" on="0"/>
        <pt x="64" y="224" on="1"/>
        <pt x="64" y="210" on="0"/>
        <pt x="54" y="201" on="1"/>
        <pt x="45" y="192" on="0"/>
        <pt x="32" y="192" on="1"/>
      </contour>
      <contour>
        <pt x="96" y="192" on="1"/>
        <pt x="82" y="192" on="0"/>
        <pt x="73" y="201" on="1"/>
        <pt x="64" y="210" on="0"/>
        <pt x="64" y="224" on="1"/>
        <pt x="64" y="237" on="0"/>
        <pt x="73" y="246" on="1"/>
        <pt x="82" y="256" on="0"/>
        <pt x="96" y="256" on="1"/>
        <pt x="109" y="256" on="0"/>
        <pt x="118" y="246" on="1"/>
        <pt x="128" y="237" on="0"/>
        <pt x="128" y="224" on="1"/>
        <pt x="128" y="210" on="0"/>
        <pt x="118" y="201" on="1"/>
        <pt x="109" y="192" on="0"/>
        <pt x="96" y="192" on="1"/>
      </contour>
      <contour>
        <pt x="160" y="192" on="1"/>
        <pt x="146" y="192" on="0"/>
        <pt x="137" y="201" on="1"/>
        <pt x="128" y="210" on="0"/>
        <pt x="128" y="224" on="1"/>
        <pt x="128" y="237" on="0"/>
        <pt x="137" y="246" on="1"/>
        <pt x="146" y="256" on="0"/>
        <pt x="160" y="256" on="1"/>
        <pt x="173" y="256" on="0"/>
        <pt x="182" y="246" on="1"/>
        <pt x="192" y="237" on="0"/>
        <pt x="192" y="224" on="1"/>
        <pt x="192" y="210" on="0"/>
        <pt x="182" y="201" on="1"/>
        <pt x="173" y="192" on="0"/>
        <pt x="160" y="192" on="1"/>
      </contour>
      <contour>
        <pt x="224" y="192" on="1"/>
        <pt x="210" y="192" on="0"/>
        <pt x="201" y="201" on="1"/>
        <pt x="192" y="210" on="0"/>
        <pt x="192" y="224" on="1"/>
        <pt x="192" y="237" on="0"/>
        <pt x="201" y="246" on="1"/>
        <pt x="210" y="256" on="0"/>
        <pt x="224" y="256" on="1"/>
        <pt x="237" y="256" on="0"/>
        <pt x="246" y="246" on="1"/>
        <pt x="256" y="237" on="0"/>
        <pt x="256" y="224" on="1"/>
        <pt x="256" y="210" on="0"/>
        <pt x="246" y="201" on="1"/>
        <pt x="237" y="192" on="0"/>
        <pt x="224" y="192" on="1"/>
      </contour>
      <contour>
        <pt x="288" y="192" on="1"/>
        <pt x="274" y="192" on="0"/>
        <pt x="265" y="201" on="1"/>
        <pt x="256" y="210" on="0"/>
        <pt x="256" y="224" on="1"/>
        <pt x="256" y="237" on="0"/>
        <pt x="265" y="246" on="1"/>
        <pt x="274" y="256" on="0"/>
        <pt x="288" y="256" on="1"/>
        <pt x="301" y="256" on="0"/>
        <pt x="310" y="246" on="1"/>
        <pt x="320" y="237" on="0"/>
        <pt x="320" y="224" on="1"/>
        <pt x="320" y="210" on="0"/>
        <pt x="310" y="201" on="1"/>
        <pt x="301" y="192" on="0"/>
        <pt x="288" y="192" on="1"/>
      </contour>
      <contour>
        <pt x="32" y="256" on="1"/>
        <pt x="18" y="256" on="0"/>
        <pt x="9" y="265" on="1"/>
        <pt x="0" y="274" on="0"/>
        <pt x="0" y="288" on="1"/>
        <pt x="0" y="301" on="0"/>
        <pt x="9" y="310" on="1"/>
        <pt x="18" y="320" on="0"/>
        <pt x="32" y="320" on="1"/>
        <pt x="45" y="320" on="0"/>
        <pt x="54" y="310" on="1"/>
        <pt x="64" y="301" on="0"/>
        <pt x="64" y="288" on="1"/>
        <pt x="64" y="274" on="0"/>
        <pt x="54" y="265" on="1"/>
        <pt x="45" y="256" on="0"/>
        <pt x="32" y="256" on="1"/>
      </contour>
      <contour>
        <pt x="288" y="256" on="1"/>
        <pt x="274" y="256" on="0"/>
        <pt x="265" y="265" on="1"/>
        <pt x="256" y="274" on="0"/>
        <pt x="256" y="288" on="1"/>
        <pt x="256" y="301" on="0"/>
        <pt x="265" y="310" on="1"/>
        <pt x="274" y="320" on="0"/>
        <pt x="288" y="320" on="1"/>
        <pt x="301" y="320" on="0"/>
        <pt x="310" y="310" on="1"/>
        <pt x="320" y="301" on="0"/>
        <pt x="320" y="288" on="1"/>
        <pt x="320" y="274" on="0"/>
        <pt x="310" y="265" on="1"/>
        <pt x="301" y="256" on="0"/>
        <pt x="288" y="256" on="1"/>
      </contour>
      <contour>
        <pt x="32" y="320" on="1"/>
        <pt x="18" y="320" on="0"/>
        <pt x="9" y="329" on="1"/>
        <pt x="0" y="338" on="0"/>
        <pt x="0" y="352" on="1"/>
        <pt x="0" y="365" on="0"/>
        <pt x="9" y="374" on="1"/>
        <pt x="18" y="384" on="0"/>
        <pt x="32" y="384" on="1"/>
        <pt x="45" y="384" on="0"/>
        <pt x="54" y="374" on="1"/>
        <pt x="64" y="365" on="0"/>
        <pt x="64" y="352" on="1"/>
        <pt x="64" y="338" on="0"/>
        <pt x="54" y="329" on="1"/>
        <pt x="45" y="320" on="0"/>
        <pt x="32" y="320" on="1"/>
      </contour>
      <contour>
        <pt x="288" y="320" on="1"/>
        <pt x="274" y="320" on="0"/>
        <pt x="265" y="329" on="1"/>
        <pt x="256" y="338" on="0"/>
        <pt x="256" y="352" on="1"/>
        <pt x="256" y="365" on="0"/>
        <pt x="265" y="374" on="1"/>
        <pt x="274" y="384" on="0"/>
        <pt x="288" y="384" on="1"/>
        <pt x="301" y="384" on="0"/>
        <pt x="310" y="374" on="1"/>
        <pt x="320" y="365" on="0"/>
        <pt x="320" y="352" on="1"/>
        <pt x="320" y="338" on="0"/>
        <pt x="310" y="329" on="1"/>
        <pt x="301" y="320" on="0"/>
        <pt x="288" y="320" on="1"/>
      </contour>
      <contour>
        <pt x="32" y="384" on="1"/>
        <pt x="18" y="384" on="0"/>
        <pt x="9" y="393" on="1"/>
        <pt x="0" y="402" on="0"/>
        <pt x="0" y="416" on="1"/>
        <pt x="0" y="429" on="0"/>
        <pt x="9" y="438" on="1"/>
        <pt x="18" y="448" on="0"/>
        <pt x="32" y="448" on="1"/>
        <pt x="45" y="448" on="0"/>
        <pt x="54" y="438" on="1"/>
        <pt x="64" y="429" on="0"/>
        <pt x="64" y="416" on="1"/>
        <pt x="64" y="402" on="0"/>
        <pt x="54" y="393" on="1"/>
        <pt x="45" y="384" on="0"/>
        <pt x="32" y="384" on="1"/>
      </contour>
      <contour>
        <pt x="288" y="384" on="1"/>
        <pt x="274" y="384" on="0"/>
        <pt x="265" y="393" on="1"/>
        <pt x="256" y="402" on="0"/>
        <pt x="256" y="416" on="1"/>
        <pt x="256" y="429" on="0"/>
        <pt x="265" y="438" on="1"/>
        <pt x="274" y="448" on="0"/>
        <pt x="288" y="448" on="1"/>
        <pt x="301" y="448" on="0"/>
        <pt x="310" y="438" on="1"/>
        <pt x="320" y="429" on="0"/>
        <pt x="320" y="416" on="1"/>
        <pt x="320" y="402" on="0"/>
        <pt x="310" y="393" on="1"/>
        <pt x="301" y="384" on="0"/>
        <pt x="288" y="384" on="1"/>
      </contour>
    </TTGlyph>
    <TTGlyph name="I" xMin="0" yMin="0" xMax="320" yMax="448">
      <contour>
        <pt x="32" y="0" on="1"/>
        <pt x="18" y="0" on="0"/>
        <pt x="9" y="9" on="1"/>
        <pt x="0" y="18" on="0"/>
        <pt x="0" y="32" on="1"/>
        <pt x="0" y="45" on="0"/>
        <pt x="9" y="54" on="1"/>
        <pt x="18" y="64" on="0"/>
        <pt x="32" y="64" on="1"/>
        <pt x="45" y="64" on="0"/>
        <pt x="54" y="54" on="1"/>
        <pt x="64" y="45" on="0"/>
        <pt x="64" y="32" on="1"/>
        <pt x="64" y="18" on="0"/>
        <pt x="54" y="9" on="1"/>
        <pt x="45" y="0" on="0"/>
        <pt x="32" y="0" on="1"/>
      </contour>
      <contour>
        <pt x="96" y="0" on="1"/>
        <pt x="82" y="0" on="0"/>
        <pt x="73" y="9" on="1"/>
        <pt x="64" y="18" on="0"/>
        <pt x="64" y="32" on="1"/>
        <pt x="64" y="45" on="0"/>
        <pt x="73" y="54" on="1"/>
        <pt x="82" y="64" on="0"/>
        <pt x="96" y="64" on="1"/>
        <pt x="109" y="64" on="0"/>
        <pt x="118" y="54" on="1"/>
        <pt x="128" y="45" on="0"/>
        <pt x="128" y="32" on="1"/>
        <pt x="128" y="18" on="0"/>
        <pt x="118" y="9" on="1"/>
        <pt x="109" y="0" on="0"/>
        <pt x="96" y="0" on="1"/>
      </contour>
      <contour>
        <pt x="160" y="0" on="1"/>
        <pt x="146" y="0" on="0"/>
        <pt x="137" y="9" on="1"/>
        <pt x="128" y="18" on="0"/>
        <pt x="128" y="32" on="1"/>
        <pt x="128" y="45" on="0"/>
        <pt x="137" y="54" on="1"/>
        <pt x="146" y="64" on="0"/>
        <pt x="160" y="64" on="1"/>
        <pt x="173" y="64" on="0"/>
        <pt x="182" y="54" on="1"/>
        <pt x="192" y="45" on="0"/>
        <pt x="192" y="32" on="1"/>
        <pt x="192" y="18" on="0"/>
        <pt x="182" y="9" on="1"/>
        <pt x="173" y="0" on="0"/>
        <pt x="160" y="0" on="1"/>
      </contour>
      <contour>
        <pt x="224" y="0" on="1"/>
        <pt x="210" y="0" on="0"/>
        <pt x="201" y="9" on="1"/>
        <pt x="192" y="18" on="0"/>
        <pt x="192" y="32" on="1"/>
        <pt x="192" y="45" on="0"/>
        <pt x="201" y="54" on="1"/>
        <pt x="210" y="64" on="0"/>
        <pt x="224" y="64" on="1"/>
        <pt x="237" y="64" on="0"/>
        <pt x="246" y="54" on="1"/>
        <pt x="256" y="45" on="0"/>
        <pt x="256" y="32" on="1"/>
        <pt x="256" y="18" on="0"/>
        <pt x="246" y="9" on="1"/>
        <pt x="237" y="0" on="0"/>
        <pt x="224" y="0" on="1"/>
      </contour>
      <contour>
        <pt x="288" y="0" on="1"/>
        <pt x="274" y="0" on="0"/>
        <pt x="265" y="9" on="1"/>
        <pt x="256" y="18" on="0"/>
        <pt x="256" y="32" on="1"/>
        <pt x="256" y="45" on="0"/>
        <pt x="265" y="54" on="1"/>
        <pt x="274" y="64" on="0"/>
        <pt x="288" y="64" on="1"/>
        <pt x="301" y="64" on="0"/>
        <pt x="310" y="54" on="1"/>
        <pt x="320" y="45" on="0"/>
        <pt x="320" y="32" on="1"/>
        <pt x="320" y="18" on="0"/>
        <pt x="310" y="9" on="1"/>
        <pt x="301" y="0" on="0"/>
        <pt x="288" y="0" on="1"/>
      </contour>
      <contour>
        <pt x="160" y="64" on="1"/>
        <pt x="146" y="64" on="0"/>
        <pt x="137" y="73" on="1"/>
        <pt x="128" y="82" on="0"/>
        <pt x="128" y="96" on="1"/>
        <pt x="128" y="109" on="0"/>
        <pt x="137" y="118" on="1"/>
        <pt x="146" y="128" on="0"/>
        <pt x="160" y="128" on="1"/>
        <pt x="173" y="128" on="0"/>
        <pt x="182" y="118" on="1"/>
        <pt x="192" y="109" on="0"/>
        <pt x="192" y="96" on="1"/>
        <pt x="192" y="82" on="0"/>
        <pt x="182" y="73" on="1"/>
        <pt x="173" y="64" on="0"/>
        <pt x="160" y="64" on="1"/>
      </contour>
      <contour>
        <pt x="160" y="128" on="1"/>
        <pt x="146" y="128" on="0"/>
        <pt x="137" y="137" on="1"/>
        <pt x="128" y="146" on="0"/>
        <pt x="128" y="160" on="1"/>
        <pt x="128" y="173" on="0"/>
        <pt x="137" y="182" on="1"/>
        <pt x="146" y="192" on="0"/>
        <pt x="160" y="192" on="1"/>
        <pt x="173" y="192" on="0"/>
        <pt x="182" y="182" on="1"/>
        <pt x="192" y="173" on="0"/>
        <pt x="192" y="160" on="1"/>
        <pt x="192" y="146" on="0"/>
        <pt x="182" y="137" on="1"/>
        <pt x="173" y="128" on="0"/>
        <pt x="160" y="128" on="1"/>
      </contour>
      <contour>
        <pt x="160" y="192" on="1"/>
        <pt x="146" y="192" on="0"/>
        <pt x="137" y="201" on="1"/>
        <pt x="128" y="210" on="0"/>
        <pt x="128" y="224" on="1"/>
        <pt x="128" y="237" on="0"/>
        <pt x="137" y="246" on="1"/>
        <pt x="146" y="256" on="0"/>
        <pt x="160" y="256" on="1"/>
        <pt x="173" y="256" on="0"/>
        <pt x="182" y="246" on="1"/>
        <pt x="192" y="237" on="0"/>
        <pt x="192" y="224" on="1"/>
        <pt x="192" y="210" on="0"/>
        <pt x="182" y="201" on="1"/>
        <pt x="173" y="192" on="0"/>
        <pt x="160" y="192" on="1"/>
      </contour>
      <contour>
        <pt x="160" y="256" on="1"/>
        <pt x="146" y="256" on="0"/>
        <pt x="137" y="265" on="1"/>
        <pt x="128" y="274" on="0"/>
        <pt x="128" y="288" on="1"/>
        <pt x="128" y="301" on="0"/>
        <pt x="137" y="310" on="1"/>
        <pt x="146" y="320" on="0"/>
        <pt x="160" y="320" on="1"/>
        <pt x="173" y="320" on="0"/>
        <pt x="182" y="310" on="1"/>
        <pt x="192" y="301" on="0"/>
        <pt x="192" y="288" on="1"/>
        <pt x="192" y="274" on="0"/>
        <pt x="182" y="265" on="1"/>
        <pt x="173" y="256" on="0"/>
        <pt x="160" y="256" on="1"/>
      </contour>
      <contour>
        <pt x="160" y="320" on="1"/>
        <pt x="146" y="320" on="0"/>
        <pt x="137" y="329" on="1"/>
        <pt x="128" y="338" on="0"/>
        <pt x="128" y="352" on="1"/>
        <pt x="128" y="365" on="0"/>
        <pt x="137" y="374" on="1"/>
        <pt x="146" y="384" on="0"/>
        <pt x="160" y="384" on="1"/>
        <pt x="173" y="384" on="0"/>
        <pt x="182" y="374" on="1"/>
        <pt x="192" y="365" on="0"/>
        <pt x="192" y="352" on="1"/>
        <pt x="192" y="338" on="0"/>
        <pt x="182" y="329" on="1"/>
        <pt x="173" y="320" on="0"/>
        <pt x="160" y="320" on="1"/>
      </contour>
      <contour>
        <pt x="32" y="384" on="1"/>
        <pt x="18" y="384" on="0"/>
        <pt x="9" y="393" on="1"/>
        <pt x="0" y="402" on="0"/>
        <pt x="0" y="416" on="1"/>
        <pt x="0" y="429" on="0"/>
        <pt x="9" y="438" on="1"/>
        <pt x="18" y="448" on="0"/>
        <pt x="32" y="448" on="1"/>
        <pt x="45" y="448" on="0"/>
        <pt x="54" y="438" on="1"/>
        <pt x="64" y="429" on="0"/>
        <pt x="64" y="416" on="1"/>
        <pt x="64" y="402" on="0"/>
        <pt x="54" y="393" on="1"/>
        <pt x="45" y="384" on="0"/>
        <pt x="32" y="384" on="1"/>
      </contour>
      <contour>
        <pt x="96" y="384" on="1"/>
        <pt x="82" y="384" on="0"/>
        <pt x="73" y="393" on="1"/>
        <pt x="64" y="402" on="0"/>
        <pt x="64" y="416" on="1"/>
        <pt x="64" y="429" on="0"/>
        <pt x="73" y="438" on="1"/>
        <pt x="82" y="448" on="0"/>
        <pt x="96" y="448" on="1"/>
        <pt x="109" y="448" on="0"/>
        <pt x="118" y="438" on="1"/>
        <pt x="128" y="429" on="0"/>
        <pt x="128" y="416" on="1"/>
        <pt x="128" y="402" on="0"/>
        <pt x="118" y="393" on="1"/>
        <pt x="109" y="384" on="0"/>
        <pt x="96" y="384" on="1"/>
      </contour>
      <contour>
        <pt x="160" y="384" on="1"/>
        <pt x="146" y="384" on="0"/>
        <pt x="137" y="393" on="1"/>
        <pt x="128" y="402" on="0"/>
        <pt x="128" y="416" on="1"/>
        <pt x="128" y="429" on="0"/>
        <pt x="137" y="438" on="1"/>
        <pt x="146" y="448" on="0"/>
        <pt x="160" y="448" on="1"/>
        <pt x="173" y="448" on="0"/>
        <pt x="182" y="438" on="1"/>
        <pt x="192" y="429" on="0"/>
        <pt x="192" y="416" on="1"/>
        <pt x="192" y="402" on="0"/>
        <pt x="182" y="393" on="1"/>
        <pt x="173" y="384" on="0"/>
        <pt x="160" y="384" on="1"/>
      </contour>
      <contour>
        <pt x="224" y="384" on="1"/>
        <pt x="210" y="384" on="0"/>
        <pt x="201" y="393" on="1"/>
        <pt x="192" y="402" on="0"/>
        <pt x="192" y="416" on="1"/>
        <pt x="192" y="429" on="0"/>
        <pt x="201" y="438" on="1"/>
        <pt x="210" y="448" on="0"/>
        <pt x="224" y="448" on="1"/>
        <pt x="237" y="448" on="0"/>
        <pt x="246" y="438" on="1"/>
        <pt x="256" y="429" on="0"/>
        <pt x="256" y="416" on="1"/>
        <pt x="256" y="402" on="0"/>
        <pt x="246" y="393" on="1"/>
        <pt x="237" y="384" on="0"/>
        <pt x="224" y="384" on="1"/>
      </contour>
      <contour>
        <pt x="288" y="384" on="1"/>
        <pt x="274" y="384" on="0"/>
        <pt x="265" y="393" on="1"/>
        <pt x="256" y="402" on="0"/>
        <pt x="256" y="416" on="1"/>
        <pt x="256" y="429" on="0"/>
        <pt x="265" y="438" on="1"/>
        <pt x="274" y="448" on="0"/>
        <pt x="288" y="448" on="1"/>
        <pt x="301" y="448" on="0"/>
        <pt x="310" y="438" on="1"/>
        <pt x="320" y="429" on="0"/>
        <pt x="320" y="416" on="1"/>
        <pt x="320" y="402" on="0"/>
        <pt x="310" y="393" on="1"/>
        <pt x="301" y="384" on="0"/>
        <pt x="288" y="384" on="1"/>
      </contour>
    </TTGlyph>
    <TTGlyph name="J" xMin="0" yMin="0" xMax="320" yMax="448">
      <contour>
        <pt x="96" y="0" on="1"/>
        <pt x="82" y="0" on="0"/>
        <pt x="73" y="9" on="1"/>
        <pt x="64" y="18" on="0"/>
        <pt x="64" y="32" on="1"/>
        <pt x="64" y="45" on="0"/>
        <pt x="73" y="54" on="1"/>
        <pt x="82" y="64" on="0"/>
        <pt x="96" y="64" on="1"/>
        <pt x="109" y="64" on="0"/>
        <pt x="118" y="54" on="1"/>
        <pt x="128" y="45" on="0"/>
        <pt x="128" y="32" on="1"/>
        <pt x="128" y="18" on="0"/>
        <pt x="118" y="9" on="1"/>
        <pt x="109" y="0" on="0"/>
        <pt x="96" y="0" on="1"/>
      </contour>
      <contour>
        <pt x="160" y="0" on="1"/>
        <pt x="146" y="0" on="0"/>
        <pt x="137" y="9" on="1"/>
        <pt x="128" y="18" on="0"/>
        <pt x="128" y="32" on="1"/>
        <pt x="128" y="45" on="0"/>
        <pt x="137" y="54" on="1"/>
        <pt x="146" y="64" on="0"/>
        <pt x="160" y="64" on="1"/>
        <pt x="173" y="64" on="0"/>
        <pt x="182" y="54" on="1"/>
        <pt x="192" y="45" on="0"/>
        <pt x="192" y="32" on="1"/>
        <pt x="192" y="18" on="0"/>
        <pt x="182" y="9" on="1"/>
        <pt x="173" y="0" on="0"/>
        <pt x="160" y="0" on="1"/>
      </contour>
      <contour>
        <pt x="32" y="64" on="1"/>
        <pt x="18" y="64" on="0"/>
        <pt x="9" y="73" on="1"/>
        <pt x="0" y="82" on="0"/>
        <pt x="0" y="96" on="1"/>
        <pt x="0" y="109" on="0"/>
        <pt x="9" y="118" on="1"/>
        <pt x="18" y="128" on="0"/>
        <pt x="32" y="128" on="1"/>
        <pt x="45" y="128" on="0"/>
        <pt x="54" y="118" on="1"/>
        <pt x="64" y="109" on="0"/>
        <pt x="64" y="96" on="1"/>
        <pt x="64" y="82" on="0"/>
        <pt x="54" y="73" on="1"/>
        <pt x="45" y="64" on="0"/>
        <pt x="32" y="64" on="1"/>
      </contour>
      <contour>
        <pt x="224" y="64" on="1"/>
        <pt x="210" y="64" on="0"/>
        <pt x="201" y="73" on="1"/>
        <pt x="192" y="82" on="0"/>
        <pt x="192" y="96" on="1"/>
        <pt x="192" y="109" on="0"/>
        <pt x="201" y="118" on="1"/>
        <pt x="210" y="128" on="0"/>
        <pt x="224" y="128" on="1"/>
        <pt x="237" y="128" on="0"/>
        <pt x="246" y="118" on="1"/>
        <pt x="256" y="109" on="0"/>
        <pt x="256" y="96" on="1"/>
        <pt x="256" y="82" on="0"/>
        <pt x="246" y="73" on="1"/>
        <pt x="237" y="64" on="0"/>
        <pt x="224" y="64" on="1"/>
      </contour>
      <contour>
        <pt x="32" y="128" on="1"/>
        <pt x="18" y="128" on="0"/>
        <pt x="9" y="137" on="1"/>
        <pt x="0" y="146" on="0"/>
        <pt x="0" y="160" on="1"/>
        <pt x="0" y="173" on="0"/>
        <pt x="9" y="182" on="1"/>
        <pt x="18" y="192" on="0"/>
        <pt x="32" y="192" on="1"/>
        <pt x="45" y="192" on="0"/>
        <pt x="54" y="182" on="1"/>
        <pt x="64" y="173" on="0"/>
        <pt x="64" y="160" on="1"/>
        <pt x="64" y="146" on="0"/>
        <pt x="54" y="137" on="1"/>
        <pt x="45" y="128" on="0"/>
        <pt x="32" y="128" on="1"/>
      </contour>
      <contour>
        <pt x="224" y="128" on="1"/>
        <pt x="210" y="128" on="0"/>
        <pt x="201" y="137" on="1"/>
        <pt x="192" y="146" on="0"/>
        <pt x="192" y="160" on="1"/>
        <pt x="192" y="173" on="0"/>
        <pt x="201" y="182" on="1"/>
        <pt x="210" y="192" on="0"/>
        <pt x="224" y="192" on="1"/>
        <pt x="237" y="192" on="0"/>
        <pt x="246" y="182" on="1"/>
        <pt x="256" y="173" on="0"/>
        <pt x="256" y="160" on="1"/>
        <pt x="256" y="146" on="0"/>
        <pt x="246" y="137" on="1"/>
        <pt x="237" y="128" on="0"/>
        <pt x="224" y="128" on="1"/>
      </contour>
      <contour>
        <pt x="224" y="192" on="1"/>
        <pt x="210" y="192" on="0"/>
        <pt x="201" y="201" on="1"/>
        <pt x="192" y="210" on="0"/>
        <pt x="192" y="224" on="1"/>
        <pt x="192" y="237" on="0"/>
        <pt x="201" y="246" on="1"/>
        <pt x="210" y="256" on="0"/>
        <pt x="224" y="256" on="1"/>
        <pt x="237" y="256" on="0"/>
        <pt x="246" y="246" on="1"/>
        <pt x="256" y="237" on="0"/>
        <pt x="256" y="224" on="1"/>
        <pt x="256" y="210" on="0"/>
        <pt x="246" y="201" on="1"/>
        <pt x="237" y="192" on="0"/>
        <pt x="224" y="192" on="1"/>
      </contour>
      <contour>
        <pt x="224" y="256" on="1"/>
        <pt x="210" y="256" on="0"/>
        <pt x="201" y="265" on="1"/>
        <pt x="192" y="274" on="0"/>
        <pt x="192" y="288" on="1"/>
        <pt x="192" y="301" on="0"/>
        <pt x="201" y="310" on="1"/>
        <pt x="210" y="320" on="0"/>
        <pt x="224" y="320" on="1"/>
        <pt x="237" y="320" on="0"/>
        <pt x="246" y="310" on="1"/>
        <pt x="256" y="301" on="0"/>
        <pt x="256" y="288" on="1"/>
        <pt x="256" y="274" on="0"/>
        <pt x="246" y="265" on="1"/>
        <pt x="237" y="256" on="0"/>
        <pt x="224" y="256" on="1"/>
      </contour>
      <contour>
        <pt x="224" y="320" on="1"/>
        <pt x="210" y="320" on="0"/>
        <pt x="201" y="329" on="1"/>
        <pt x="192" y="338" on="0"/>
        <pt x="192" y="352" on="1"/>
        <pt x="192" y="365" on="0"/>
        <pt x="201" y="374" on="1"/>
        <pt x="210" y="384" on="0"/>
        <pt x="224" y="384" on="1"/>
        <pt x="237" y="384" on="0"/>
        <pt x="246" y="374" on="1"/>
        <pt x="256" y="365" on="0"/>
        <pt x="256" y="352" on="1"/>
        <pt x="256" y="338" on="0"/>
        <pt x="246" y="329" on="1"/>
        <pt x="237" y="320" on="0"/>
        <pt x="224" y="320" on="1"/>
      </contour>
      <contour>
        <pt x="32" y="384" on="1"/>
        <pt x="18" y="384" on="0"/>
        <pt x="9" y="393" on="1"/>
        <pt x="0" y="402" on="0"/>
        <pt x="0" y="416" on="1"/>
        <pt x="0" y="429" on="0"/>
        <pt x="9" y="438" on="1"/>
        <pt x="18" y="448" on="0"/>
        <pt x="32" y="448" on="1"/>
        <pt x="45" y="448" on="0"/>
        <pt x="54" y="438" on="1"/>
        <pt x="64" y="429" on="0"/>
        <pt x="64" y="416" on="1"/>
        <pt x="64" y="402" on="0"/>
        <pt x="54" y="393" on="1"/>
        <pt x="45" y="384" on="0"/>
        <pt x="32" y="384" on="1"/>
      </contour>
      <contour>
        <pt x="96" y="384" on="1"/>
        <pt x="82" y="384" on="0"/>
        <pt x="73" y="393" on="1"/>
        <pt x="64" y="402" on="0"/>
        <pt x="64" y="416" on="1"/>
        <pt x="64" y="429" on="0"/>
        <pt x="73" y="438" on="1"/>
        <pt x="82" y="448" on="0"/>
        <pt x="96" y="448" on="1"/>
        <pt x="109" y="448" on="0"/>
        <pt x="118" y="438" on="1"/>
        <pt x="128" y="429" on="0"/>
        <pt x="128" y="416" on="1"/>
        <pt x="128" y="402" on="0"/>
        <pt x="118" y="393" on="1"/>
        <pt x="109" y="384" on="0"/>
        <pt x="96" y="384" on="1"/>
      </contour>
      <contour>
        <pt x="160" y="384" on="1"/>
        <pt x="146" y="384" on="0"/>
        <pt x="137" y="393" on="1"/>
        <pt x="128" y="402" on="0"/>
        <pt x="128" y="416" on="1"/>
        <pt x="128" y="429" on="0"/>
        <pt x="137" y="438" on="1"/>
        <pt x="146" y="448" on="0"/>
        <pt x="160" y="448" on="1"/>
        <pt x="173" y="448" on="0"/>
        <pt x="182" y="438" on="1"/>
        <pt x="192" y="429" on="0"/>
        <pt x="192" y="416" on="1"/>
        <pt x="192" y="402" on="0"/>
        <pt x="182" y="393" on="1"/>
        <pt x="173" y="384" on="0"/>
        <pt x="160" y="384" on="1"/>
      </contour>
      <contour>
        <pt x="224" y="384" on="1"/>
        <pt x="210" y="384" on="0"/>
        <pt x="201" y="393" on="1"/>
        <pt x="192" y="402" on="0"/>
        <pt x="192" y="416" on="1"/>
        <pt x="192" y="429" on="0"/>
        <pt x="201" y="438" on="1"/>
        <pt x="210" y="448" on="0"/>
        <pt x="224" y="448" on="1"/>
        <pt x="237" y="448" on="0"/>
        <pt x="246" y="438" on="1"/>
        <pt x="256" y="429" on="0"/>
        <pt x="256" y="416" on="1"/>
        <pt x="256" y="402" on="0"/>
        <pt x="246" y="393" on="1"/>
        <pt x="237" y="384" on="0"/>
        <pt x="224" y="384" on="1"/>
      </contour>
      <contour>
        <pt x="288" y="384" on="1"/>
        <pt x="274" y="384" on="0"/>
        <pt x="265" y="393" on="1"/>
        <pt x="256" y="402" on="0"/>
        <pt x="256" y="416" on="1"/>
        <pt x="256" y="429" on="0"/>
        <pt x="265" y="438" on="1"/>
        <pt x="274" y="448" on="0"/>
        <pt x="288" y="448" on="1"/>
        <pt x="301" y="448" on="0"/>
        <pt x="310" y="438" on="1"/>
        <pt x="320" y="429" on="0"/>
        <pt x="320" y="416" on="1"/>
        <pt x="320" y="402" on="0"/>
        <pt x="310" y="393" on="1"/>
        <pt x="301" y="384" on="0"/>
        <pt x="288" y="384" on="1"/>
      </contour>
    </TTGlyph>
    <TTGlyph name="K" xMin="0" yMin="0" xMax="320" yMax="448">
      <contour>
        <pt x="32" y="0" on="1"/>
        <pt x="18" y="0" on="0"/>
        <pt x="9" y="9" on="1"/>
        <pt x="0" y="18" on="0"/>
        <pt x="0" y="32" on="1"/>
        <pt x="0" y="45" on="0"/>
        <pt x="9" y="54" on="1"/>
        <pt x="18" y="64" on="0"/>
        <pt x="32" y="64" on="1"/>
        <pt x="45" y="64" on="0"/>
        <pt x="54" y="54" on="1"/>
        <pt x="64" y="45" on="0"/>
        <pt x="64" y="32" on="1"/>
        <pt x="64" y="18" on="0"/>
        <pt x="54" y="9" on="1"/>
        <pt x="45" y="0" on="0"/>
        <pt x="32" y="0" on="1"/>
      </contour>
      <contour>
        <pt x="288" y="0" on="1"/>
        <pt x="274" y="0" on="0"/>
        <pt x="265" y="9" on="1"/>
        <pt x="256" y="18" on="0"/>
        <pt x="256" y="32" on="1"/>
        <pt x="256" y="45" on="0"/>
        <pt x="265" y="54" on="1"/>
        <pt x="274" y="64" on="0"/>
        <pt x="288" y="64" on="1"/>
        <pt x="301" y="64" on="0"/>
        <pt x="310" y="54" on="1"/>
        <pt x="320" y="45" on="0"/>
        <pt x="320" y="32" on="1"/>
        <pt x="320" y="18" on="0"/>
        <pt x="310" y="9" on="1"/>
        <pt x="301" y="0" on="0"/>
        <pt x="288" y="0" on="1"/>
      </contour>
      <contour>
        <pt x="32" y="64" on="1"/>
        <pt x="18" y="64" on="0"/>
        <pt x="9" y="73" on="1"/>
        <pt x="0" y="82" on="0"/>
        <pt x="0" y="96" on="1"/>
        <pt x="0" y="109" on="0"/>
        <pt x="9" y="118" on="1"/>
        <pt x="18" y="128" on="0"/>
        <pt x="32" y="128" on="1"/>
        <pt x="45" y="128" on="0"/>
        <pt x="54" y="118" on="1"/>
        <pt x="64" y="109" on="0"/>
        <pt x="64" y="96" on="1"/>
        <pt x="64" y="82" on="0"/>
        <pt x="54" y="73" on="1"/>
        <pt x="45" y="64" on="0"/>
        <pt x="32" y="64" on="1"/>
      </contour>
      <contour>
        <pt x="224" y="64" on="1"/>
        <pt x="210" y="64" on="0"/>
        <pt x="201" y="73" on="1"/>
        <pt x="192" y="82" on="0"/>
        <pt x="192" y="96" on="1"/>
        <pt x="192" y="109" on="0"/>
        <pt x="201" y="118" on="1"/>
        <pt x="210" y="128" on="0"/>
        <pt x="224" y="128" on="1"/>
        <pt x="237" y="128" on="0"/>
        <pt x="246" y="118" on="1"/>
        <pt x="256" y="109" on="0"/>
        <pt x="256" y="96" on="1"/>
        <pt x="256" y="82" on="0"/>
        <pt x="246" y="73" on="1"/>
        <pt x="237" y="64" on="0"/>
        <pt x="224" y="64" on="1"/>
      </contour>
      <contour>
        <pt x="32" y="128" on="1"/>
        <pt x="18" y="128" on="0"/>
        <pt x="9" y="137" on="1"/>
        <pt x="0" y="146" on="0"/>
        <pt x="0" y="160" on="1"/>
        <pt x="0" y="173" on="0"/>
        <pt x="9" y="182" on="1"/>
        <pt x="18" y="192" on="0"/>
        <pt x="32" y="192" on="1"/>
        <pt x="45" y="192" on="0"/>
        <pt x="54" y="182" on="1"/>
        <pt x="64" y="173" on="0"/>
        <pt x="64" y="160" on="1"/>
        <pt x="64" y="146" on="0"/>
        <pt x="54" y="137" on="1"/>
        <pt x="45" y="128" on="0"/>
        <pt x="32" y="128" on="1"/>
      </contour>
      <contour>
        <pt x="160" y="128" on="1"/>
        <pt x="146" y="128" on="0"/>
        <pt x="137" y="137" on="1"/>
        <pt x="128" y="146" on="0"/>
        <pt x="128" y="160" on="1"/>
        <pt x="128" y="173" on="0"/>
        <pt x="137" y="182" on="1"/>
        <pt x="146" y="192" on="0"/>
        <pt x="160" y="192" on="1"/>
        <pt x="173" y="192" on="0"/>
        <pt x="182" y="182" on="1"/>
        <pt x="192" y="173" on="0"/>
        <pt x="192" y="160" on="1"/>
        <pt x="192" y="146" on="0"/>
        <pt x="182" y="137" on="1"/>
        <pt x="173" y="128" on="0"/>
        <pt x="160" y="128" on="1"/>
      </contour>
      <contour>
        <pt x="32" y="192" on="1"/>
        <pt x="18" y="192" on="0"/>
        <pt x="9" y="201" on="1"/>
        <pt x="0" y="210" on="0"/>
        <pt x="0" y="224" on="1"/>
        <pt x="0" y="237" on="0"/>
        <pt x="9" y="246" on="1"/>
        <pt x="18" y="256" on="0"/>
        <pt x="32" y="256" on="1"/>
        <pt x="45" y="256" on="0"/>
        <pt x="54" y="246" on="1"/>
        <pt x="64" y="237" on="0"/>
        <pt x="64" y="224" on="1"/>
        <pt x="64" y="210" on="0"/>
        <pt x="54" y="201" on="1"/>
        <pt x="45" y="192" on="0"/>
        <pt x="32" y="192" on="1"/>
      </contour>
      <contour>
        <pt x="96" y="192" on="1"/>
        <pt x="82" y="192" on="0"/>
        <pt x="73" y="201" on="1"/>
        <pt x="64" y="210" on="0"/>
        <pt x="64" y="224" on="1"/>
        <pt x="64" y="237" on="0"/>
        <pt x="73" y="246" on="1"/>
        <pt x="82" y="256" on="0"/>
        <pt x="96" y="256" on="1"/>
        <pt x="109" y="256" on="0"/>
        <pt x="118" y="246" on="1"/>
        <pt x="128" y="237" on="0"/>
        <pt x="128" y="224" on="1"/>
        <pt x="128" y="210" on="0"/>
        <pt x="118" y="201" on="1"/>
        <pt x="109" y="192" on="0"/>
        <pt x="96" y="192" on="1"/>
      </contour>
      <contour>
        <pt x="32" y="256" on="1"/>
        <pt x="18" y="256" on="0"/>
        <pt x="9" y="265" on="1"/>
        <pt x="0" y="274" on="0"/>
        <pt x="0" y="288" on="1"/>
        <pt x="0" y="301" on="0"/>
        <pt x="9" y="310" on="1"/>
        <pt x="18" y="320" on="0"/>
        <pt x="32" y="320" on="1"/>
        <pt x="45" y="320" on="0"/>
        <pt x="54" y="310" on="1"/>
        <pt x="64" y="301" on="0"/>
        <pt x="64" y="288" on="1"/>
        <pt x="64" y="274" on="0"/>
        <pt x="54" y="265" on="1"/>
        <pt x="45" y="256" on="0"/>
        <pt x="32" y="256" on="1"/>
      </contour>
      <contour>
        <pt x="160" y="256" on="1"/>
        <pt x="146" y="256" on="0"/>
        <pt x="137" y="265" on="1"/>
        <pt x="128" y="274" on="0"/>
        <pt x="128" y="288" on="1"/>
        <pt x="128" y="301" on="0"/>
        <pt x="137" y="310" on="1"/>
        <pt x="146" y="320" on="0"/>
        <pt x="160" y="320" on="1"/>
        <pt x="173" y="320" on="0"/>
        <pt x="182" y="310" on="1"/>
        <pt x="192" y="301" on="0"/>
        <pt x="192" y="288" on="1"/>
        <pt x="192" y="274" on="0"/>
        <pt x="182" y="265" on="1"/>
        <pt x="173" y="256" on="0"/>
        <pt x="160" y="256" on="1"/>
      </contour>
      <contour>
        <pt x="32" y="320" on="1"/>
        <pt x="18" y="320" on="0"/>
        <pt x="9" y="329" on="1"/>
        <pt x="0" y="338" on="0"/>
        <pt x="0" y="352" on="1"/>
        <pt x="0" y="365" on="0"/>
        <pt x="9" y="374" on="1"/>
        <pt x="18" y="384" on="0"/>
        <pt x="32" y="384" on="1"/>
        <pt x="45" y="384" on="0"/>
        <pt x="54" y="374" on="1"/>
        <pt x="64" y="365" on="0"/>
        <pt x="64" y="352" on="1"/>
        <pt x="64" y="338" on="0"/>
        <pt x="54" y="329" on="1"/>
        <pt x="45" y="320" on="0"/>
        <pt x="32" y="320" on="1"/>
      </contour>
      <contour>
        <pt x="224" y="320" on="1"/>
        <pt x="210" y="320" on="0"/>
        <pt x="201" y="329" on="1"/>
        <pt x="192" y="338" on="0"/>
        <pt x="192" y="352" on="1"/>
        <pt x="192" y="365" on="0"/>
        <pt x="201" y="374" on="1"/>
        <pt x="210" y="384" on="0"/>
        <pt x="224" y="384" on="1"/>
        <pt x="237" y="384" on="0"/>
        <pt x="246" y="374" on="1"/>
        <pt x="256" y="365" on="0"/>
        <pt x="256" y="352" on="1"/>
        <pt x="256" y="338" on="0"/>
        <pt x="246" y="329" on="1"/>
        <pt x="237" y="320" on="0"/>
        <pt x="224" y="320" on="1"/>
      </contour>
      <contour>
        <pt x="32" y="384" on="1"/>
        <pt x="18" y="384" on="0"/>
        <pt x="9" y="393" on="1"/>
        <pt x="0" y="402" on="0"/>
        <pt x="0" y="416" on="1"/>
        <pt x="0" y="429" on="0"/>
        <pt x="9" y="438" on="1"/>
        <pt x="18" y="448" on="0"/>
        <pt x="32" y="448" on="1"/>
        <pt x="45" y="448" on="0"/>
        <pt x="54" y="438" on="1"/>
        <pt x="64" y="429" on="0"/>
        <pt x="64" y="416" on="1"/>
        <pt x="64" y="402" on="0"/>
        <pt x="54" y="393" on="1"/>
        <pt x="45" y="384" on="0"/>
        <pt x="32" y="384" on="1"/>
      </contour>
      <contour>
        <pt x="288" y="384" on="1"/>
        <pt x="274" y="384" on="0"/>
        <pt x="265" y="393" on="1"/>
        <pt x="256" y="402" on="0"/>
        <pt x="256" y="416" on="1"/>
        <pt x="256" y="429" on="0"/>
        <pt x="265" y="438" on="1"/>
        <pt x="274" y="448" on="0"/>
        <pt x="288" y="448" on="1"/>
        <pt x="301" y="448" on="0"/>
        <pt x="310" y="438" on="1"/>
        <pt x="320" y="429" on="0"/>
        <pt x="320" y="416" on="1"/>
        <pt x="320" y="402" on="0"/>
        <pt x="310" y="393" on="1"/>
        <pt x="301" y="384" on="0"/>
        <pt x="288" y="384" on="1"/>
      </contour>
    </TTGlyph>
    <TTGlyph name="L" xMin="0" yMin="0" xMax="320" yMax="448">
      <contour>
        <pt x="32" y="0" on="1"/>
        <pt x="18" y="0" on="0"/>
        <pt x="9" y="9" on="1"/>
        <pt x="0" y="18" on="0"/>
        <pt x="0" y="32" on="1"/>
        <pt x="0" y="45" on="0"/>
        <pt x="9" y="54" on="1"/>
        <pt x="18" y="64" on="0"/>
        <pt x="32" y="64" on="1"/>
        <pt x="45" y="64" on="0"/>
        <pt x="54" y="54" on="1"/>
        <pt x="64" y="45" on="0"/>
        <pt x="64" y="32" on="1"/>
        <pt x="64" y="18" on="0"/>
        <pt x="54" y="9" on="1"/>
        <pt x="45" y="0" on="0"/>
        <pt x="32" y="0" on="1"/>
      </contour>
      <contour>
        <pt x="96" y="0" on="1"/>
        <pt x="82" y="0" on="0"/>
        <pt x="73" y="9" on="1"/>
        <pt x="64" y="18" on="0"/>
        <pt x="64" y="32" on="1"/>
        <pt x="64" y="45" on="0"/>
        <pt x="73" y="54" on="1"/>
        <pt x="82" y="64" on="0"/>
        <pt x="96" y="64" on="1"/>
        <pt x="109" y="64" on="0"/>
        <pt x="118" y="54" on="1"/>
        <pt x="128" y="45" on="0"/>
        <pt x="128" y="32" on="1"/>
        <pt x="128" y="18" on="0"/>
        <pt x="118" y="9" on="1"/>
        <pt x="109" y="0" on="0"/>
        <pt x="96" y="0" on="1"/>
      </contour>
      <contour>
        <pt x="160" y="0" on="1"/>
        <pt x="146" y="0" on="0"/>
        <pt x="137" y="9" on="1"/>
        <pt x="128" y="18" on="0"/>
        <pt x="128" y="32" on="1"/>
        <pt x="128" y="45" on="0"/>
        <pt x="137" y="54" on="1"/>
        <pt x="146" y="64" on="0"/>
        <pt x="160" y="64" on="1"/>
        <pt x="173" y="64" on="0"/>
        <pt x="182" y="54" on="1"/>
        <pt x="192" y="45" on="0"/>
        <pt x="192" y="32" on="1"/>
        <pt x="192" y="18" on="0"/>
        <pt x="182" y="9" on="1"/>
        <pt x="173" y="0" on="0"/>
        <pt x="160" y="0" on="1"/>
      </contour>
      <contour>
        <pt x="224" y="0" on="1"/>
        <pt x="210" y="0" on="0"/>
        <pt x="201" y="9" on="1"/>
        <pt x="192" y="18" on="0"/>
        <pt x="192" y="32" on="1"/>
        <pt x="192" y="45" on="0"/>
        <pt x="201" y="54" on="1"/>
        <pt x="210" y="64" on="0"/>
        <pt x="224" y="64" on="1"/>
        <pt x="237" y="64" on="0"/>
        <pt x="246" y="54" on="1"/>
        <pt x="256" y="45" on="0"/>
        <pt x="256" y="32" on="1"/>
        <pt x="256" y="18" on="0"/>
        <pt x="246" y="9" on="1"/>
        <pt x="237" y="0" on="0"/>
        <pt x="224" y="0" on="1"/>
      </contour>
      <contour>
        <pt x="288" y="0" on="1"/>
        <pt x="274" y="0" on="0"/>
        <pt x="265" y="9" on="1"/>
        <pt x="256" y="18" on="0"/>
        <pt x="256" y="32" on="1"/>
        <pt x="256" y="45" on="0"/>
        <pt x="265" y="54" on="1"/>
        <pt x="274" y="64" on="0"/>
        <pt x="288" y="64" on="1"/>
        <pt x="301" y="64" on="0"/>
        <pt x="310" y="54" on="1"/>
        <pt x="320" y="45" on="0"/>
        <pt x="320" y="32" on="1"/>
        <pt x="320" y="18" on="0"/>
        <pt x="310" y="9" on="1"/>
        <pt x="301" y="0" on="0"/>
        <pt x="288" y="0" on="1"/>
      </contour>
      <contour>
        <pt x="32" y="64" on="1"/>
        <pt x="18" y="64" on="0"/>
        <pt x="9" y="73" on="1"/>
        <pt x="0" y="82" on="0"/>
        <pt x="0" y="96" on="1"/>
        <pt x="0" y="109" on="0"/>
        <pt x="9" y="118" on="1"/>
        <pt x="18" y="128" on="0"/>
        <pt x="32" y="128" on="1"/>
        <pt x="45" y="128" on="0"/>
        <pt x="54" y="118" on="1"/>
        <pt x="64" y="109" on="0"/>
        <pt x="64" y="96" on="1"/>
        <pt x="64" y="82" on="0"/>
        <pt x="54" y="73" on="1"/>
        <pt x="45" y="64" on="0"/>
        <pt x="32" y="64" on="1"/>
      </contour>
      <contour>
        <pt x="32" y="128" on="1"/>
        <pt x="18" y="128" on="0"/>
        <pt x="9" y="137" on="1"/>
        <pt x="0" y="146" on="0"/>
        <pt x="0" y="160" on="1"/>
        <pt x="0" y="173" on="0"/>
        <pt x="9" y="182" on="1"/>
        <pt x="18" y="192" on="0"/>
        <pt x="32" y="192" on="1"/>
        <pt x="45" y="192" on="0"/>
        <pt x="54" y="182" on="1"/>
        <pt x="64" y="173" on="0"/>
        <pt x="64" y="160" on="1"/>
        <pt x="64" y="146" on="0"/>
        <pt x="54" y="137" on="1"/>
        <pt x="45" y="128" on="0"/>
        <pt x="32" y="128" on="1"/>
      </contour>
      <contour>
        <pt x="32" y="192" on="1"/>
        <pt x="18" y="192" on="0"/>
        <pt x="9" y="201" on="1"/>
        <pt x="0" y="210" on="0"/>
        <pt x="0" y="224" on="1"/>
        <pt x="0" y="237" on="0"/>
        <pt x="9" y="246" on="1"/>
        <pt x="18" y="256" on="0"/>
        <pt x="32" y="256" on="1"/>
        <pt x="45" y="256" on="0"/>
        <pt x="54" y="246" on="1"/>
        <pt x="64" y="237" on="0"/>
        <pt x="64" y="224" on="1"/>
        <pt x="64" y="210" on="0"/>
        <pt x="54" y="201" on="1"/>
        <pt x="45" y="192" on="0"/>
        <pt x="32" y="192" on="1"/>
      </contour>
      <contour>
        <pt x="32" y="256" on="1"/>
        <pt x="18" y="256" on="0"/>
        <pt x="9" y="265" on="1"/>
        <pt x="0" y="274" on="0"/>
        <pt x="0" y="288" on="1"/>
        <pt x="0" y="301" on="0"/>
        <pt x="9" y="310" on="1"/>
        <pt x="18" y="320" on="0"/>
        <pt x="32" y="320" on="1"/>
        <pt x="45" y="320" on="0"/>
        <pt x="54" y="310" on="1"/>
        <pt x="64" y="301" on="0"/>
        <pt x="64" y="288" on="1"/>
        <pt x="64" y="274" on="0"/>
        <pt x="54" y="265" on="1"/>
        <pt x="45" y="256" on="0"/>
        <pt x="32" y="256" on="1"/>
      </contour>
      <contour>
        <pt x="32" y="320" on="1"/>
        <pt x="18" y="320" on="0"/>
        <pt x="9" y="329" on="1"/>
        <pt x="0" y="338" on="0"/>
        <pt x="0" y="352" on="1"/>
        <pt x="0" y="365" on="0"/>
        <pt x="9" y="374" on="1"/>
        <pt x="18" y="384" on="0"/>
        <pt x="32" y="384" on="1"/>
        <pt x="45" y="384" on="0"/>
        <pt x="54" y="374" on="1"/>
        <pt x="64" y="365" on="0"/>
        <pt x="64" y="352" on="1"/>
        <pt x="64" y="338" on="0"/>
        <pt x="54" y="329" on="1"/>
        <pt x="45" y="320" on="0"/>
        <pt x="32" y="320" on="1"/>
      </contour>
      <contour>
        <pt x="32" y="384" on="1"/>
        <pt x="18" y="384" on="0"/>
        <pt x="9" y="393" on="1"/>
        <pt x="0" y="402" on="0"/>
        <pt x="0" y="416" on="1"/>
        <pt x="0" y="429" on="0"/>
        <pt x="9" y="438" on="1"/>
        <pt x="18" y="448" on="0"/>
        <pt x="32" y="448" on="1"/>
        <pt x="45" y="448" on="0"/>
        <pt x="54" y="438" on="1"/>
        <pt x="64" y="429" on="0"/>
        <pt x="64" y="416" on="1"/>
        <pt x="64" y="402" on="0"/>
        <pt x="54" y="393" on="1"/>
        <pt x="45" y="384" on="0"/>
        <pt x="32" y="384" on="1"/>
      </contour>
    </TTGlyph>
    <TTGlyph name="M" xMin="0" yMin="0" xMax="320" yMax="448">
      <contour>
        <pt x="32" y="0" on="1"/>
        <pt x="18" y="0" on="0"/>
        <pt x="9" y="9" on="1"/>
        <pt x="0" y="18" on="0"/>
        <pt x="0" y="32" on="1"/>
        <pt x="0" y="45" on="0"/>
        <pt x="9" y="54" on="1"/>
        <pt x="18" y="64" on="0"/>
        <pt x="32" y="64" on="1"/>
        <pt x="45" y="64" on="0"/>
        <pt x="54" y="54" on="1"/>
        <pt x="64" y="45" on="0"/>
        <pt x="64" y="32" on="1"/>
        <pt x="64" y="18" on="0"/>
        <pt x="54" y="9" on="1"/>
        <pt x="45" y="0" on="0"/>
        <pt x="32" y="0" on="1"/>
      </contour>
      <contour>
        <pt x="288" y="0" on="1"/>
        <pt x="274" y="0" on="0"/>
        <pt x="265" y="9" on="1"/>
        <pt x="256" y="18" on="0"/>
        <pt x="256" y="32" on="1"/>
        <pt x="256" y="45" on="0"/>
        <pt x="265" y="54" on="1"/>
        <pt x="274" y="64" on="0"/>
        <pt x="288" y="64" on="1"/>
        <pt x="301" y="64" on="0"/>
        <pt x="310" y="54" on="1"/>
        <pt x="320" y="45" on="0"/>
        <pt x="320" y="32" on="1"/>
        <pt x="320" y="18" on="0"/>
        <pt x="310" y="9" on="1"/>
        <pt x="301" y="0" on="0"/>
        <pt x="288" y="0" on="1"/>
      </contour>
      <contour>
        <pt x="32" y="64" on="1"/>
        <pt x="18" y="64" on="0"/>
        <pt x="9" y="73" on="1"/>
        <pt x="0" y="82" on="0"/>
        <pt x="0" y="96" on="1"/>
        <pt x="0" y="109" on="0"/>
        <pt x="9" y="118" on="1"/>
        <pt x="18" y="128" on="0"/>
        <pt x="32" y="128" on="1"/>
        <pt x="45" y="128" on="0"/>
        <pt x="54" y="118" on="1"/>
        <pt x="64" y="109" on="0"/>
        <pt x="64" y="96" on="1"/>
        <pt x="64" y="82" on="0"/>
        <pt x="54" y="73" on="1"/>
        <pt x="45" y="64" on="0"/>
        <pt x="32" y="64" on="1"/>
      </contour>
      <contour>
        <pt x="288" y="64" on="1"/>
        <pt x="274" y="64" on="0"/>
        <pt x="265" y="73" on="1"/>
        <pt x="256" y="82" on="0"/>
        <pt x="256" y="96" on="1"/>
        <pt x="256" y="109" on="0"/>
        <pt x="265" y="118" on="1"/>
        <pt x="274" y="128" on="0"/>
        <pt x="288" y="128" on="1"/>
        <pt x="301" y="128" on="0"/>
        <pt x="310" y="118" on="1"/>
        <pt x="320" y="109" on="0"/>
        <pt x="320" y="96" on="1"/>
        <pt x="320" y="82" on="0"/>
        <pt x="310" y="73" on="1"/>
        <pt x="301" y="64" on="0"/>
        <pt x="288" y="64" on="1"/>
      </contour>
      <contour>
        <pt x="32" y="128" on="1"/>
        <pt x="18" y="128" on="0"/>
        <pt x="9" y="137" on="1"/>
        <pt x="0" y="146" on="0"/>
        <pt x="0" y="160" on="1"/>
        <pt x="0" y="173" on="0"/>
        <pt x="9" y="182" on="1"/>
        <pt x="18" y="192" on="0"/>
        <pt x="32" y="192" on="1"/>
        <pt x="45" y="192" on="0"/>
        <pt x="54" y="182" on="1"/>
        <pt x="64" y="173" on="0"/>
        <pt x="64" y="160" on="1"/>
        <pt x="64" y="146" on="0"/>
        <pt x="54" y="137" on="1"/>
        <pt x="45" y="128" on="0"/>
        <pt x="32" y="128" on="1"/>
      </contour>
      <contour>
        <pt x="288" y="128" on="1"/>
        <pt x="274" y="128" on="0"/>
        <pt x="265" y="137" on="1"/>
        <pt x="256" y="146" on="0"/>
        <pt x="256" y="160" on="1"/>
        <pt x="256" y="173" on="0"/>
        <pt x="265" y="182" on="1"/>
        <pt x="274" y="192" on="0"/>
        <pt x="288" y="192" on="1"/>
        <pt x="301" y="192" on="0"/>
        <pt x="310" y="182" on="1"/>
        <pt x="320" y="173" on="0"/>
        <pt x="320" y="160" on="1"/>
        <pt x="320" y="146" on="0"/>
        <pt x="310" y="137" on="1"/>
        <pt x="301" y="128" on="0"/>
        <pt x="288" y="128" on="1"/>
      </contour>
      <contour>
        <pt x="32" y="192" on="1"/>
        <pt x="18" y="192" on="0"/>
        <pt x="9" y="201" on="1"/>
        <pt x="0" y="210" on="0"/>
        <pt x="0" y="224" on="1"/>
        <pt x="0" y="237" on="0"/>
        <pt x="9" y="246" on="1"/>
        <pt x="18" y="256" on="0"/>
        <pt x="32" y="256" on="1"/>
        <pt x="45" y="256" on="0"/>
        <pt x="54" y="246" on="1"/>
        <pt x="64" y="237" on="0"/>
        <pt x="64" y="224" on="1"/>
        <pt x="64" y="210" on="0"/>
        <pt x="54" y="201" on="1"/>
        <pt x="45" y="192" on="0"/>
        <pt x="32" y="192" on="1"/>
      </contour>
      <contour>
        <pt x="288" y="192" on="1"/>
        <pt x="274" y="192" on="0"/>
        <pt x="265" y="201" on="1"/>
        <pt x="256" y="210" on="0"/>
        <pt x="256" y="224" on="1"/>
        <pt x="256" y="237" on="0"/>
        <pt x="265" y="246" on="1"/>
        <pt x="274" y="256" on="0"/>
        <pt x="288" y="256" on="1"/>
        <pt x="301" y="256" on="0"/>
        <pt x="310" y="246" on="1"/>
        <pt x="320" y="237" on="0"/>
        <pt x="320" y="224" on="1"/>
        <pt x="320" y="210" on="0"/>
        <pt x="310" y="201" on="1"/>
        <pt x="301" y="192" on="0"/>
        <pt x="288" y="192" on="1"/>
      </contour>
      <contour>
        <pt x="32" y="256" on="1"/>
        <pt x="18" y="256" on="0"/>
        <pt x="9" y="265" on="1"/>
        <pt x="0" y="274" on="0"/>
        <pt x="0" y="288" on="1"/>
        <pt x="0" y="301" on="0"/>
        <pt x="9" y="310" on="1"/>
        <pt x="18" y="320" on="0"/>
        <pt x="32" y="320" on="1"/>
        <pt x="45" y="320" on="0"/>
        <pt x="54" y="310" on="1"/>
        <pt x="64" y="301" on="0"/>
        <pt x="64" y="288" on="1"/>
        <pt x="64" y="274" on="0"/>
        <pt x="54" y="265" on="1"/>
        <pt x="45" y="256" on="0"/>
        <pt x="32" y="256" on="1"/>
      </contour>
      <contour>
        <pt x="160" y="256" on="1"/>
        <pt x="146" y="256" on="0"/>
        <pt x="137" y="265" on="1"/>
        <pt x="128" y="274" on="0"/>
        <pt x="128" y="288" on="1"/>
        <pt x="128" y="301" on="0"/>
        <pt x="137" y="310" on="1"/>
        <pt x="146" y="320" on="0"/>
        <pt x="160" y="320" on="1"/>
        <pt x="173" y="320" on="0"/>
        <pt x="182" y="310" on="1"/>
        <pt x="192" y="301" on="0"/>
        <pt x="192" y="288" on="1"/>
        <pt x="192" y="274" on="0"/>
        <pt x="182" y="265" on="1"/>
        <pt x="173" y="256" on="0"/>
        <pt x="160" y="256" on="1"/>
      </contour>
      <contour>
        <pt x="288" y="256" on="1"/>
        <pt x="274" y="256" on="0"/>
        <pt x="265" y="265" on="1"/>
        <pt x="256" y="274" on="0"/>
        <pt x="256" y="288" on="1"/>
        <pt x="256" y="301" on="0"/>
        <pt x="265" y="310" on="1"/>
        <pt x="274" y="320" on="0"/>
        <pt x="288" y="320" on="1"/>
        <pt x="301" y="320" on="0"/>
        <pt x="310" y="310" on="1"/>
        <pt x="320" y="301" on="0"/>
        <pt x="320" y="288" on="1"/>
        <pt x="320" y="274" on="0"/>
        <pt x="310" y="265" on="1"/>
        <pt x="301" y="256" on="0"/>
        <pt x="288" y="256" on="1"/>
      </contour>
      <contour>
        <pt x="32" y="320" on="1"/>
        <pt x="18" y="320" on="0"/>
        <pt x="9" y="329" on="1"/>
        <pt x="0" y="338" on="0"/>
        <pt x="0" y="352" on="1"/>
        <pt x="0" y="365" on="0"/>
        <pt x="9" y="374" on="1"/>
        <pt x="18" y="384" on="0"/>
        <pt x="32" y="384" on="1"/>
        <pt x="45" y="384" on="0"/>
        <pt x="54" y="374" on="1"/>
        <pt x="64" y="365" on="0"/>
        <pt x="64" y="352" on="1"/>
        <pt x="64" y="338" on="0"/>
        <pt x="54" y="329" on="1"/>
        <pt x="45" y="320" on="0"/>
        <pt x="32" y="320" on="1"/>
      </contour>
      <contour>
        <pt x="96" y="320" on="1"/>
        <pt x="82" y="320" on="0"/>
        <pt x="73" y="329" on="1"/>
        <pt x="64" y="338" on="0"/>
        <pt x="64" y="352" on="1"/>
        <pt x="64" y="365" on="0"/>
        <pt x="73" y="374" on="1"/>
        <pt x="82" y="384" on="0"/>
        <pt x="96" y="384" on="1"/>
        <pt x="109" y="384" on="0"/>
        <pt x="118" y="374" on="1"/>
        <pt x="128" y="365" on="0"/>
        <pt x="128" y="352" on="1"/>
        <pt x="128" y="338" on="0"/>
        <pt x="118" y="329" on="1"/>
        <pt x="109" y="320" on="0"/>
        <pt x="96" y="320" on="1"/>
      </contour>
      <contour>
        <pt x="224" y="320" on="1"/>
        <pt x="210" y="320" on="0"/>
        <pt x="201" y="329" on="1"/>
        <pt x="192" y="338" on="0"/>
        <pt x="192" y="352" on="1"/>
        <pt x="192" y="365" on="0"/>
        <pt x="201" y="374" on="1"/>
        <pt x="210" y="384" on="0"/>
        <pt x="224" y="384" on="1"/>
        <pt x="237" y="384" on="0"/>
        <pt x="246" y="374" on="1"/>
        <pt x="256" y="365" on="0"/>
        <pt x="256" y="352" on="1"/>
        <pt x="256" y="338" on="0"/>
        <pt x="246" y="329" on="1"/>
        <pt x="237" y="320" on="0"/>
        <pt x="224" y="320" on="1"/>
      </contour>
      <contour>
        <pt x="288" y="320" on="1"/>
        <pt x="274" y="320" on="0"/>
        <pt x="265" y="329" on="1"/>
        <pt x="256" y="338" on="0"/>
        <pt x="256" y="352" on="1"/>
        <pt x="256" y="365" on="0"/>
        <pt x="265" y="374" on="1"/>
        <pt x="274" y="384" on="0"/>
        <pt x="288" y="384" on="1"/>
        <pt x="301" y="384" on="0"/>
        <pt x="310" y="374" on="1"/>
        <pt x="320" y="365" on="0"/>
        <pt x="320" y="352" on="1"/>
        <pt x="320" y="338" on="0"/>
        <pt x="310" y="329" on="1"/>
        <pt x="301" y="320" on="0"/>
        <pt x="288" y="320" on="1"/>
      </contour>
      <contour>
        <pt x="32" y="384" on="1"/>
        <pt x="18" y="384" on="0"/>
        <pt x="9" y="393" on="1"/>
        <pt x="0" y="402" on="0"/>
        <pt x="0" y="416" on="1"/>
        <pt x="0" y="429" on="0"/>
        <pt x="9" y="438" on="1"/>
        <pt x="18" y="448" on="0"/>
        <pt x="32" y="448" on="1"/>
        <pt x="45" y="448" on="0"/>
        <pt x="54" y="438" on="1"/>
        <pt x="64" y="429" on="0"/>
        <pt x="64" y="416" on="1"/>
        <pt x="64" y="402" on="0"/>
        <pt x="54" y="393" on="1"/>
        <pt x="45" y="384" on="0"/>
        <pt x="32" y="384" on="1"/>
      </contour>
      <contour>
        <pt x="288" y="384" on="1"/>
        <pt x="274" y="384" on="0"/>
        <pt x="265" y="393" on="1"/>
        <pt x="256" y="402" on="0"/>
        <pt x="256" y="416" on="1"/>
        <pt x="256" y="429" on="0"/>
        <pt x="265" y="438" on="1"/>
        <pt x="274" y="448" on="0"/>
        <pt x="288" y="448" on="1"/>
        <pt x="301" y="448" on="0"/>
        <pt x="310" y="438" on="1"/>
        <pt x="320" y="429" on="0"/>
        <pt x="320" y="416" on="1"/>
        <pt x="320" y="402" on="0"/>
        <pt x="310" y="393" on="1"/>
        <pt x="301" y="384" on="0"/>
        <pt x="288" y="384" on="1"/>
      </contour>
    </TTGlyph>
    <TTGlyph name="N" xMin="0" yMin="0" xMax="320" yMax="448">
      <contour>
        <pt x="32" y="0" on="1"/>
        <pt x="18" y="0" on="0"/>
        <pt x="9" y="9" on="1"/>
        <pt x="0" y="18" on="0"/>
        <pt x="0" y="32" on="1"/>
        <pt x="0" y="45" on="0"/>
        <pt x="9" y="54" on="1"/>
        <pt x="18" y="64" on="0"/>
        <pt x="32" y="64" on="1"/>
        <pt x="45" y="64" on="0"/>
        <pt x="54" y="54" on="1"/>
        <pt x="64" y="45" on="0"/>
        <pt x="64" y="32" on="1"/>
        <pt x="64" y="18" on="0"/>
        <pt x="54" y="9" on="1"/>
        <pt x="45" y="0" on="0"/>
        <pt x="32" y="0" on="1"/>
      </contour>
      <contour>
        <pt x="288" y="0" on="1"/>
        <pt x="274" y="0" on="0"/>
        <pt x="265" y="9" on="1"/>
        <pt x="256" y="18" on="0"/>
        <pt x="256" y="32" on="1"/>
        <pt x="256" y="45" on="0"/>
        <pt x="265" y="54" on="1"/>
        <pt x="274" y="64" on="0"/>
        <pt x="288" y="64" on="1"/>
        <pt x="301" y="64" on="0"/>
        <pt x="310" y="54" on="1"/>
        <pt x="320" y="45" on="0"/>
        <pt x="320" y="32" on="1"/>
        <pt x="320" y="18" on="0"/>
        <pt x="310" y="9" on="1"/>
        <pt x="301" y="0" on="0"/>
        <pt x="288" y="0" on="1"/>
      </contour>
      <contour>
        <pt x="32" y="64" on="1"/>
        <pt x="18" y="64" on="0"/>
        <pt x="9" y="73" on="1"/>
        <pt x="0" y="82" on="0"/>
        <pt x="0" y="96" on="1"/>
        <pt x="0" y="109" on="0"/>
        <pt x="9" y="118" on="1"/>
        <pt x="18" y="128" on="0"/>
        <pt x="32" y="128" on="1"/>
        <pt x="45" y="128" on="0"/>
        <pt x="54" y="118" on="1"/>
        <pt x="64" y="109" on="0"/>
        <pt x="64" y="96" on="1"/>
        <pt x="64" y="82" on="0"/>
        <pt x="54" y="73" on="1"/>
        <pt x="45" y="64" on="0"/>
        <pt x="32" y="64" on="1"/>
      </contour>
      <contour>
        <pt x="288" y="64" on="1"/>
        <pt x="274" y="64" on="0"/>
        <pt x="265" y="73" on="1"/>
        <pt x="256" y="82" on="0"/>
        <pt x="256" y="96" on="1"/>
        <pt x="256" y="109" on="0"/>
        <pt x="265" y="118" on="1"/>
        <pt x="274" y="128" on="0"/>
        <pt x="288" y="128" on="1"/>
        <pt x="301" y="128" on="0"/>
        <pt x="310" y="118" on="1"/>
        <pt x="320" y="109" on="0"/>
        <pt x="320" y="96" on="1"/>
        <pt x="320" y="82" on="0"/>
        <pt x="310" y="73" on="1"/>
        <pt x="301" y="64" on="0"/>
        <pt x="288" y="64" on="1"/>
      </contour>
      <contour>
        <pt x="32" y="128" on="1"/>
        <pt x="18" y="128" on="0"/>
        <pt x="9" y="137" on="1"/>
        <pt x="0" y="146" on="0"/>
        <pt x="0" y="160" on="1"/>
        <pt x="0" y="173" on="0"/>
        <pt x="9" y="182" on="1"/>
        <pt x="18" y="192" on="0"/>
        <pt x="32" y="192" on="1"/>
        <pt x="45" y="192" on="0"/>
        <pt x="54" y="182" on="1"/>
        <pt x="64" y="173" on="0"/>
        <pt x="64" y="160" on="1"/>
        <pt x="64" y="146" on="0"/>
        <pt x="54" y="137" on="1"/>
        <pt x="45" y="128" on="0"/>
        <pt x="32" y="128" on="1"/>
      </contour>
      <contour>
        <pt x="288" y="128" on="1"/>
        <pt x="274" y="128" on="0"/>
        <pt x="265" y="137" on="1"/>
        <pt x="256" y="146" on="0"/>
        <pt x="256" y="160" on="1"/>
        <pt x="256" y="173" on="0"/>
        <pt x="265" y="182" on="1"/>
        <pt x="274" y="192" on="0"/>
        <pt x="288" y="192" on="1"/>
        <pt x="301" y="192" on="0"/>
        <pt x="310" y="182" on="1"/>
        <pt x="320" y="173" on="0"/>
        <pt x="320" y="160" on="1"/>
        <pt x="320" y="146" on="0"/>
        <pt x="310" y="137" on="1"/>
        <pt x="301" y="128" on="0"/>
        <pt x="288" y="128" on="1"/>
      </contour>
      <contour>
        <pt x="32" y="192" on="1"/>
        <pt x="18" y="192" on="0"/>
        <pt x="9" y="201" on="1"/>
        <pt x="0" y="210" on="0"/>
        <pt x="0" y="224" on="1"/>
        <pt x="0" y="237" on="0"/>
        <pt x="9" y="246" on="1"/>
        <pt x="18" y="256" on="0"/>
        <pt x="32" y="256" on="1"/>
        <pt x="45" y="256" on="0"/>
        <pt x="54" y="246" on="1"/>
        <pt x="64" y="237" on="0"/>
        <pt x="64" y="224" on="1"/>
        <pt x="64" y="210" on="0"/>
        <pt x="54" y="201" on="1"/>
        <pt x="45" y="192" on="0"/>
        <pt x="32" y="192" on="1"/>
      </contour>
      <contour>
        <pt x="224" y="192" on="1"/>
        <pt x="210" y="192" on="0"/>
        <pt x="201" y="201" on="1"/>
        <pt x="192" y="210" on="0"/>
        <pt x="192" y="224" on="1"/>
        <pt x="192" y="237" on="0"/>
        <pt x="201" y="246" on="1"/>
        <pt x="210" y="256" on="0"/>
        <pt x="224" y="256" on="1"/>
        <pt x="237" y="256" on="0"/>
        <pt x="246" y="246" on="1"/>
        <pt x="256" y="237" on="0"/>
        <pt x="256" y="224" on="1"/>
        <pt x="256" y="210" on="0"/>
        <pt x="246" y="201" on="1"/>
        <pt x="237" y="192" on="0"/>
        <pt x="224" y="192" on="1"/>
      </contour>
      <contour>
        <pt x="288" y="192" on="1"/>
        <pt x="274" y="192" on="0"/>
        <pt x="265" y="201" on="1"/>
        <pt x="256" y="210" on="0"/>
        <pt x="256" y="224" on="1"/>
        <pt x="256" y="237" on="0"/>
        <pt x="265" y="246" on="1"/>
        <pt x="274" y="256" on="0"/>
        <pt x="288" y="256" on="1"/>
        <pt x="301" y="256" on="0"/>
        <pt x="310" y="246" on="1"/>
        <pt x="320" y="237" on="0"/>
        <pt x="320" y="224" on="1"/>
        <pt x="320" y="210" on="0"/>
        <pt x="310" y="201" on="1"/>
        <pt x="301" y="192" on="0"/>
        <pt x="288" y="192" on="1"/>
      </contour>
      <contour>
        <pt x="32" y="256" on="1"/>
        <pt x="18" y="256" on="0"/>
        <pt x="9" y="265" on="1"/>
        <pt x="0" y="274" on="0"/>
        <pt x="0" y="288" on="1"/>
        <pt x="0" y="301" on="0"/>
        <pt x="9" y="310" on="1"/>
        <pt x="18" y="320" on="0"/>
        <pt x="32" y="320" on="1"/>
        <pt x="45" y="320" on="0"/>
        <pt x="54" y="310" on="1"/>
        <pt x="64" y="301" on="0"/>
        <pt x="64" y="288" on="1"/>
        <pt x="64" y="274" on="0"/>
        <pt x="54" y="265" on="1"/>
        <pt x="45" y="256" on="0"/>
        <pt x="32" y="256" on="1"/>
      </contour>
      <contour>
        <pt x="160" y="256" on="1"/>
        <pt x="146" y="256" on="0"/>
        <pt x="137" y="265" on="1"/>
        <pt x="128" y="274" on="0"/>
        <pt x="128" y="288" on="1"/>
        <pt x="128" y="301" on="0"/>
        <pt x="137" y="310" on="1"/>
        <pt x="146" y="320" on="0"/>
        <pt x="160" y="320" on="1"/>
        <pt x="173" y="320" on="0"/>
        <pt x="182" y="310" on="1"/>
        <pt x="192" y="301" on="0"/>
        <pt x="192" y="288" on="1"/>
        <pt x="192" y="274" on="0"/>
        <pt x="182" y="265" on="1"/>
        <pt x="173" y="256" on="0"/>
        <pt x="160" y="256" on="1"/>
      </contour>
      <contour>
        <pt x="288" y="256" on="1"/>
        <pt x="274" y="256" on="0"/>
        <pt x="265" y="265" on="1"/>
        <pt x="256" y="274" on="0"/>
        <pt x="256" y="288" on="1"/>
        <pt x="256" y="301" on="0"/>
        <pt x="265" y="310" on="1"/>
        <pt x="274" y="320" on="0"/>
        <pt x="288" y="320" on="1"/>
        <pt x="301" y="320" on="0"/>
        <pt x="310" y="310" on="1"/>
        <pt x="320" y="301" on="0"/>
        <pt x="320" y="288" on="1"/>
        <pt x="320" y="274" on="0"/>
        <pt x="310" y="265" on="1"/>
        <pt x="301" y="256" on="0"/>
        <pt x="288" y="256" on="1"/>
      </contour>
      <contour>
        <pt x="32" y="320" on="1"/>
        <pt x="18" y="320" on="0"/>
        <pt x="9" y="329" on="1"/>
        <pt x="0" y="338" on="0"/>
        <pt x="0" y="352" on="1"/>
        <pt x="0" y="365" on="0"/>
        <pt x="9" y="374" on="1"/>
        <pt x="18" y="384" on="0"/>
        <pt x="32" y="384" on="1"/>
        <pt x="45" y="384" on="0"/>
        <pt x="54" y="374" on="1"/>
        <pt x="64" y="365" on="0"/>
        <pt x="64" y="352" on="1"/>
        <pt x="64" y="338" on="0"/>
        <pt x="54" y="329" on="1"/>
        <pt x="45" y="320" on="0"/>
        <pt x="32" y="320" on="1"/>
      </contour>
      <contour>
        <pt x="96" y="320" on="1"/>
        <pt x="82" y="320" on="0"/>
        <pt x="73" y="329" on="1"/>
        <pt x="64" y="338" on="0"/>
        <pt x="64" y="352" on="1"/>
        <pt x="64" y="365" on="0"/>
        <pt x="73" y="374" on="1"/>
        <pt x="82" y="384" on="0"/>
        <pt x="96" y="384" on="1"/>
        <pt x="109" y="384" on="0"/>
        <pt x="118" y="374" on="1"/>
        <pt x="128" y="365" on="0"/>
        <pt x="128" y="352" on="1"/>
        <pt x="128" y="338" on="0"/>
        <pt x="118" y="329" on="1"/>
        <pt x="109" y="320" on="0"/>
        <pt x="96" y="320" on="1"/>
      </contour>
      <contour>
        <pt x="288" y="320" on="1"/>
        <pt x="274" y="320" on="0"/>
        <pt x="265" y="329" on="1"/>
        <pt x="256" y="338" on="0"/>
        <pt x="256" y="352" on="1"/>
        <pt x="256" y="365" on="0"/>
        <pt x="265" y="374" on="1"/>
        <pt x="274" y="384" on="0"/>
        <pt x="288" y="384" on="1"/>
        <pt x="301" y="384" on="0"/>
        <pt x="310" y="374" on="1"/>
        <pt x="320" y="365" on="0"/>
        <pt x="320" y="352" on="1"/>
        <pt x="320" y="338" on="0"/>
        <pt x="310" y="329" on="1"/>
        <pt x="301" y="320" on="0"/>
        <pt x="288" y="320" on="1"/>
      </contour>
      <contour>
        <pt x="32" y="384" on="1"/>
        <pt x="18" y="384" on="0"/>
        <pt x="9" y="393" on="1"/>
        <pt x="0" y="402" on="0"/>
        <pt x="0" y="416" on="1"/>
        <pt x="0" y="429" on="0"/>
        <pt x="9" y="438" on="1"/>
        <pt x="18" y="448" on="0"/>
        <pt x="32" y="448" on="1"/>
        <pt x="45" y="448" on="0"/>
        <pt x="54" y="438" on="1"/>
        <pt x="64" y="429" on="0"/>
        <pt x="64" y="416" on="1"/>
        <pt x="64" y="402" on="0"/>
        <pt x="54" y="393" on="1"/>
        <pt x="45" y="384" on="0"/>
        <pt x="32" y="384" on="1"/>
      </contour>
      <contour>
        <pt x="288" y="384" on="1"/>
        <pt x="274" y="384" on="0"/>
        <pt x="265" y="393" on="1"/>
        <pt x="256" y="402" on="0"/>
        <pt x="256" y="416" on="1"/>
        <pt x="256" y="429" on="0"/>
        <pt x="265" y="438" on="1"/>
        <pt x="274" y="448" on="0"/>
        <pt x="288" y="448" on="1"/>
        <pt x="301" y="448" on="0"/>
        <pt x="310" y="438" on="1"/>
        <pt x="320" y="429" on="0"/>
        <pt x="320" y="416" on="1"/>
        <pt x="320" y="402" on="0"/>
        <pt x="310" y="393" on="1"/>
        <pt x="301" y="384" on="0"/>
        <pt x="288" y="384" on="1"/>
      </contour>
    </TTGlyph>
    <TTGlyph name="O" xMin="0" yMin="0" xMax="320" yMax="448">
      <contour>
        <pt x="96" y="0" on="1"/>
        <pt x="82" y="0" on="0"/>
        <pt x="73" y="9" on="1"/>
        <pt x="64" y="18" on="0"/>
        <pt x="64" y="32" on="1"/>
        <pt x="64" y="45" on="0"/>
        <pt x="73" y="54" on="1"/>
        <pt x="82" y="64" on="0"/>
        <pt x="96" y="64" on="1"/>
        <pt x="109" y="64" on="0"/>
        <pt x="118" y="54" on="1"/>
        <pt x="128" y="45" on="0"/>
        <pt x="128" y="32" on="1"/>
        <pt x="128" y="18" on="0"/>
        <pt x="118" y="9" on="1"/>
        <pt x="109" y="0" on="0"/>
        <pt x="96" y="0" on="1"/>
      </contour>
      <contour>
        <pt x="160" y="0" on="1"/>
        <pt x="146" y="0" on="0"/>
        <pt x="137" y="9" on="1"/>
        <pt x="128" y="18" on="0"/>
        <pt x="128" y="32" on="1"/>
        <pt x="128" y="45" on="0"/>
        <pt x="137" y="54" on="1"/>
        <pt x="146" y="64" on="0"/>
        <pt x="160" y="64" on="1"/>
        <pt x="173" y="64" on="0"/>
        <pt x="182" y="54" on="1"/>
        <pt x="192" y="45" on="0"/>
        <pt x="192" y="32" on="1"/>
        <pt x="192" y="18" on="0"/>
        <pt x="182" y="9" on="1"/>
        <pt x="173" y="0" on="0"/>
        <pt x="160" y="0" on="1"/>
      </contour>
      <contour>
        <pt x="224" y="0" on="1"/>
        <pt x="210" y="0" on="0"/>
        <pt x="201" y="9" on="1"/>
        <pt x="192" y="18" on="0"/>
        <pt x="192" y="32" on="1"/>
        <pt x="192" y="45" on="0"/>
        <pt x="201" y="54" on="1"/>
        <pt x="210" y="64" on="0"/>
        <pt x="224" y="64" on="1"/>
        <pt x="237" y="64" on="0"/>
        <pt x="246" y="54" on="1"/>
        <pt x="256" y="45" on="0"/>
        <pt x="256" y="32" on="1"/>
        <pt x="256" y="18" on="0"/>
        <pt x="246" y="9" on="1"/>
        <pt x="237" y="0" on="0"/>
        <pt x="224" y="0" on="1"/>
      </contour>
      <contour>
        <pt x="32" y="64" on="1"/>
        <pt x="18" y="64" on="0"/>
        <pt x="9" y="73" on="1"/>
        <pt x="0" y="82" on="0"/>
        <pt x="0" y="96" on="1"/>
        <pt x="0" y="109" on="0"/>
        <pt x="9" y="118" on="1"/>
        <pt x="18" y="128" on="0"/>
        <pt x="32" y="128" on="1"/>
        <pt x="45" y="128" on="0"/>
        <pt x="54" y="118" on="1"/>
        <pt x="64" y="109" on="0"/>
        <pt x="64" y="96" on="1"/>
        <pt x="64" y="82" on="0"/>
        <pt x="54" y="73" on="1"/>
        <pt x="45" y="64" on="0"/>
        <pt x="32" y="64" on="1"/>
      </contour>
      <contour>
        <pt x="288" y="64" on="1"/>
        <pt x="274" y="64" on="0"/>
        <pt x="265" y="73" on="1"/>
        <pt x="256" y="82" on="0"/>
        <pt x="256" y="96" on="1"/>
        <pt x="256" y="109" on="0"/>
        <pt x="265" y="118" on="1"/>
        <pt x="274" y="128" on="0"/>
        <pt x="288" y="128" on="1"/>
        <pt x="301" y="128" on="0"/>
        <pt x="310" y="118" on="1"/>
        <pt x="320" y="109" on="0"/>
        <pt x="320" y="96" on="1"/>
        <pt x="320" y="82" on="0"/>
        <pt x="310" y="73" on="1"/>
        <pt x="301" y="64" on="0"/>
        <pt x="288" y="64" on="1"/>
      </contour>
      <contour>
        <pt x="32" y="128" on="1"/>
        <pt x="18" y="128" on="0"/>
        <pt x="9" y="137" on="1"/>
        <pt x="0" y="146" on="0"/>
        <pt x="0" y="160" on="1"/>
        <pt x="0" y="173" on="0"/>
        <pt x="9" y="182" on="1"/>
        <pt x="18" y="192" on="0"/>
        <pt x="32" y="192" on="1"/>
        <pt x="45" y="192" on="0"/>
        <pt x="54" y="182" on="1"/>
        <pt x="64" y="173" on="0"/>
        <pt x="64" y="160" on="1"/>
        <pt x="64" y="146" on="0"/>
        <pt x="54" y="137" on="1"/>
        <pt x="45" y="128" on="0"/>
        <pt x="32" y="128" on="1"/>
      </contour>
      <contour>
        <pt x="288" y="128" on="1"/>
        <pt x="274" y="128" on="0"/>
        <pt x="265" y="137" on="1"/>
        <pt x="256" y="146" on="0"/>
        <pt x="256" y="160" on="1"/>
        <pt x="256" y="173" on="0"/>
        <pt x="265" y="182" on="1"/>
        <pt x="274" y="192" on="0"/>
        <pt x="288" y="192" on="1"/>
        <pt x="301" y="192" on="0"/>
        <pt x="310" y="182" on="1"/>
        <pt x="320" y="173" on="0"/>
        <pt x="320" y="160" on="1"/>
        <pt x="320" y="146" on="0"/>
        <pt x="310" y="137" on="1"/>
        <pt x="301" y="128" on="0"/>
        <pt x="288" y="128" on="1"/>
      </contour>
      <contour>
        <pt x="32" y="192" on="1"/>
        <pt x="18" y="192" on="0"/>
        <pt x="9" y="201" on="1"/>
        <pt x="0" y="210" on="0"/>
        <pt x="0" y="224" on="1"/>
        <pt x="0" y="237" on="0"/>
        <pt x="9" y="246" on="1"/>
        <pt x="18" y="256" on="0"/>
        <pt x="32" y="256" on="1"/>
        <pt x="45" y="256" on="0"/>
        <pt x="54" y="246" on="1"/>
        <pt x="64" y="237" on="0"/>
        <pt x="64" y="224" on="1"/>
        <pt x="64" y="210" on="0"/>
        <pt x="54" y="201" on="1"/>
        <pt x="45" y="192" on="0"/>
        <pt x="32" y="192" on="1"/>
      </contour>
      <contour>
        <pt x="288" y="192" on="1"/>
        <pt x="274" y="192" on="0"/>
        <pt x="265" y="201" on="1"/>
        <pt x="256" y="210" on="0"/>
        <pt x="256" y="224" on="1"/>
        <pt x="256" y="237" on="0"/>
        <pt x="265" y="246" on="1"/>
        <pt x="274" y="256" on="0"/>
        <pt x="288" y="256" on="1"/>
        <pt x="301" y="256" on="0"/>
        <pt x="310" y="246" on="1"/>
        <pt x="320" y="237" on="0"/>
        <pt x="320" y="224" on="1"/>
        <pt x="320" y="210" on="0"/>
        <pt x="310" y="201" on="1"/>
        <pt x="301" y="192" on="0"/>
        <pt x="288" y="192" on="1"/>
      </contour>
      <contour>
        <pt x="32" y="256" on="1"/>
        <pt x="18" y="256" on="0"/>
        <pt x="9" y="265" on="1"/>
        <pt x="0" y="274" on="0"/>
        <pt x="0" y="288" on="1"/>
        <pt x="0" y="301" on="0"/>
        <pt x="9" y="310" on="1"/>
        <pt x="18" y="320" on="0"/>
        <pt x="32" y="320" on="1"/>
        <pt x="45" y="320" on="0"/>
        <pt x="54" y="310" on="1"/>
        <pt x="64" y="301" on="0"/>
        <pt x="64" y="288" on="1"/>
        <pt x="64" y="274" on="0"/>
        <pt x="54" y="265" on="1"/>
        <pt x="45" y="256" on="0"/>
        <pt x="32" y="256" on="1"/>
      </contour>
      <contour>
        <pt x="288" y="256" on="1"/>
        <pt x="274" y="256" on="0"/>
        <pt x="265" y="265" on="1"/>
        <pt x="256" y="274" on="0"/>
        <pt x="256" y="288" on="1"/>
        <pt x="256" y="301" on="0"/>
        <pt x="265" y="310" on="1"/>
        <pt x="274" y="320" on="0"/>
        <pt x="288" y="320" on="1"/>
        <pt x="301" y="320" on="0"/>
        <pt x="310" y="310" on="1"/>
        <pt x="320" y="301" on="0"/>
        <pt x="320" y="288" on="1"/>
        <pt x="320" y="274" on="0"/>
        <pt x="310" y="265" on="1"/>
        <pt x="301" y="256" on="0"/>
        <pt x="288" y="256" on="1"/>
      </contour>
      <contour>
        <pt x="32" y="320" on="1"/>
        <pt x="18" y="320" on="0"/>
        <pt x="9" y="329" on="1"/>
        <pt x="0" y="338" on="0"/>
        <pt x="0" y="352" on="1"/>
        <pt x="0" y="365" on="0"/>
        <pt x="9" y="374" on="1"/>
        <pt x="18" y="384" on="0"/>
        <pt x="32" y="384" on="1"/>
        <pt x="45" y="384" on="0"/>
        <pt x="54" y="374" on="1"/>
        <pt x="64" y="365" on="0"/>
        <pt x="64" y="352" on="1"/>
        <pt x="64" y="338" on="0"/>
        <pt x="54" y="329" on="1"/>
        <pt x="45" y="320" on="0"/>
        <pt x="32" y="320" on="1"/>
      </contour>
      <contour>
        <pt x="288" y="320" on="1"/>
        <pt x="274" y="320" on="0"/>
        <pt x="265" y="329" on="1"/>
        <pt x="256" y="338" on="0"/>
        <pt x="256" y="352" on="1"/>
        <pt x="256" y="365" on="0"/>
        <pt x="265" y="374" on="1"/>
        <pt x="274" y="384" on="0"/>
        <pt x="288" y="384" on="1"/>
        <pt x="301" y="384" on="0"/>
        <pt x="310" y="374" on="1"/>
        <pt x="320" y="365" on="0"/>
        <pt x="320" y="352" on="1"/>
        <pt x="320" y="338" on="0"/>
        <pt x="310" y="329" on="1"/>
        <pt x="301" y="320" on="0"/>
        <pt x="288" y="320" on="1"/>
      </contour>
      <contour>
        <pt x="96" y="384" on="1"/>
        <pt x="82" y="384" on="0"/>
        <pt x="73" y="393" on="1"/>
        <pt x="64" y="402" on="0"/>
        <pt x="64" y="416" on="1"/>
        <pt x="64" y="429" on="0"/>
        <pt x="73" y="438" on="1"/>
        <pt x="82" y="448" on="0"/>
        <pt x="96" y="448" on="1"/>
        <pt x="109" y="448" on="0"/>
        <pt x="118" y="438" on="1"/>
        <pt x="128" y="429" on="0"/>
        <pt x="128" y="416" on="1"/>
        <pt x="128" y="402" on="0"/>
        <pt x="118" y="393" on="1"/>
        <pt x="109" y="384" on="0"/>
        <pt x="96" y="384" on="1"/>
      </contour>
      <contour>
        <pt x="160" y="384" on="1"/>
        <pt x="146" y="384" on="0"/>
        <pt x="137" y="393" on="1"/>
        <pt x="128" y="402" on="0"/>
        <pt x="128" y="416" on="1"/>
        <pt x="128" y="429" on="0"/>
        <pt x="137" y="438" on="1"/>
        <pt x="146" y="448" on="0"/>
        <pt x="160" y="448" on="1"/>
        <pt x="173" y="448" on="0"/>
        <pt x="182" y="438" on="1"/>
        <pt x="192" y="429" on="0"/>
        <pt x="192" y="416" on="1"/>
        <pt x="192" y="402" on="0"/>
        <pt x="182" y="393" on="1"/>
        <pt x="173" y="384" on="0"/>
        <pt x="160" y="384" on="1"/>
      </contour>
      <contour>
        <pt x="224" y="384" on="1"/>
        <pt x="210" y="384" on="0"/>
        <pt x="201" y="393" on="1"/>
        <pt x="192" y="402" on="0"/>
        <pt x="192" y="416" on="1"/>
        <pt x="192" y="429" on="0"/>
        <pt x="201" y="438" on="1"/>
        <pt x="210" y="448" on="0"/>
        <pt x="224" y="448" on="1"/>
        <pt x="237" y="448" on="0"/>
        <pt x="246" y="438" on="1"/>
        <pt x="256" y="429" on="0"/>
        <pt x="256" y="416" on="1"/>
        <pt x="256" y="402" on="0"/>
        <pt x="246" y="393" on="1"/>
        <pt x="237" y="384" on="0"/>
        <pt x="224" y="384" on="1"/>
      </contour>
    </TTGlyph>
    <TTGlyph name="P" xMin="0" yMin="0" xMax="320" yMax="448">
      <contour>
        <pt x="32" y="0" on="1"/>
        <pt x="18" y="0" on="0"/>
        <pt x="9" y="9" on="1"/>
        <pt x="0" y="18" on="0"/>
        <pt x="0" y="32" on="1"/>
        <pt x="0" y="45" on="0"/>
        <pt x="9" y="54" on="1"/>
        <pt x="18" y="64" on="0"/>
        <pt x="32" y="64" on="1"/>
        <pt x="45" y="64" on="0"/>
        <pt x="54" y="54" on="1"/>
        <pt x="64" y="45" on="0"/>
        <pt x="64" y="32" on="1"/>
        <pt x="64" y="18" on="0"/>
        <pt x="54" y="9" on="1"/>
        <pt x="45" y="0" on="0"/>
        <pt x="32" y="0" on="1"/>
      </contour>
      <contour>
        <pt x="32" y="64" on="1"/>
        <pt x="18" y="64" on="0"/>
        <pt x="9" y="73" on="1"/>
        <pt x="0" y="82" on="0"/>
        <pt x="0" y="96" on="1"/>
        <pt x="0" y="109" on="0"/>
        <pt x="9" y="118" on="1"/>
        <pt x="18" y="128" on="0"/>
        <pt x="32" y="128" on="1"/>
        <pt x="45" y="128" on="0"/>
        <pt x="54" y="118" on="1"/>
        <pt x="64" y="109" on="0"/>
        <pt x="64" y="96" on="1"/>
        <pt x="64" y="82" on="0"/>
        <pt x="54" y="73" on="1"/>
        <pt x="45" y="64" on="0"/>
        <pt x="32" y="64" on="1"/>
      </contour>
      <contour>
        <pt x="32" y="128" on="1"/>
        <pt x="18" y="128" on="0"/>
        <pt x="9" y="137" on="1"/>
        <pt x="0" y="146" on="0"/>
        <pt x="0" y="160" on="1"/>
        <pt x="0" y="173" on="0"/>
        <pt x="9" y="182" on="1"/>
        <pt x="18" y="192" on="0"/>
        <pt x="32" y="192" on="1"/>
        <pt x="45" y="192" on="0"/>
        <pt x="54" y="182" on="1"/>
        <pt x="64" y="173" on="0"/>
        <pt x="64" y="160" on="1"/>
        <pt x="64" y="146" on="0"/>
        <pt x="54" y="137" on="1"/>
        <pt x="45" y="128" on="0"/>
        <pt x="32" y="128" on="1"/>
      </contour>
      <contour>
        <pt x="32" y="192" on="1"/>
        <pt x="18" y="192" on="0"/>
        <pt x="9" y="201" on="1"/>
        <pt x="0" y="210" on="0"/>
        <pt x="0" y="224" on="1"/>
        <pt x="0" y="237" on="0"/>
        <pt x="9" y="246" on="1"/>
        <pt x="18" y="256" on="0"/>
        <pt x="32" y="256" on="1"/>
        <pt x="45" y="256" on="0"/>
        <pt x="54" y="246" on="1"/>
        <pt x="64" y="237" on="0"/>
        <pt x="64" y="224" on="1"/>
        <pt x="64" y="210" on="0"/>
        <pt x="54" y="201" on="1"/>
        <pt x="45" y="192" on="0"/>
        <pt x="32" y="192" on="1"/>
      </contour>
      <contour>
        <pt x="96" y="192" on="1"/>
        <pt x="82" y="192" on="0"/>
        <pt x="73" y="201" on="1"/>
        <pt x="64" y="210" on="0"/>
        <pt x="64" y="224" on="1"/>
        <pt x="64" y="237" on="0"/>
        <pt x="73" y="246" on="1"/>
        <pt x="82" y="256" on="0"/>
        <pt x="96" y="256" on="1"/>
        <pt x="109" y="256" on="0"/>
        <pt x="118" y="246" on="1"/>
        <pt x="128" y="237" on="0"/>
        <pt x="128" y="224" on="1"/>
        <pt x="128" y="210" on="0"/>
        <pt x="118" y="201" on="1"/>
        <pt x="109" y="192" on="0"/>
        <pt x="96" y="192" on="1"/>
      </contour>
      <contour>
        <pt x="160" y="192" on="1"/>
        <pt x="146" y="192" on="0"/>
        <pt x="137" y="201" on="1"/>
        <pt x="128" y="210" on="0"/>
        <pt x="128" y="224" on="1"/>
        <pt x="128" y="237" on="0"/>
        <pt x="137" y="246" on="1"/>
        <pt x="146" y="256" on="0"/>
        <pt x="160" y="256" on="1"/>
        <pt x="173" y="256" on="0"/>
        <pt x="182" y="246" on="1"/>
        <pt x="192" y="237" on="0"/>
        <pt x="192" y="224" on="1"/>
        <pt x="192" y="210" on="0"/>
        <pt x="182" y="201" on="1"/>
        <pt x="173" y="192" on="0"/>
        <pt x="160" y="192" on="1"/>
      </contour>
      <contour>
        <pt x="224" y="192" on="1"/>
        <pt x="210" y="192" on="0"/>
        <pt x="201" y="201" on="1"/>
        <pt x="192" y="210" on="0"/>
        <pt x="192" y="224" on="1"/>
        <pt x="192" y="237" on="0"/>
        <pt x="201" y="246" on="1"/>
        <pt x="210" y="256" on="0"/>
        <pt x="224" y="256" on="1"/>
        <pt x="237" y="256" on="0"/>
        <pt x="246" y="246" on="1"/>
        <pt x="256" y="237" on="0"/>
        <pt x="256" y="224" on="1"/>
        <pt x="256" y="210" on="0"/>
        <pt x="246" y="201" on="1"/>
        <pt x="237" y="192" on="0"/>
        <pt x="224" y="192" on="1"/>
      </contour>
      <contour>
        <pt x="32" y="256" on="1"/>
        <pt x="18" y="256" on="0"/>
        <pt x="9" y="265" on="1"/>
        <pt x="0" y="274" on="0"/>
        <pt x="0" y="288" on="1"/>
        <pt x="0" y="301" on="0"/>
        <pt x="9" y="310" on="1"/>
        <pt x="18" y="320" on="0"/>
        <pt x="32" y="320" on="1"/>
        <pt x="45" y="320" on="0"/>
        <pt x="54" y="310" on="1"/>
        <pt x="64" y="301" on="0"/>
        <pt x="64" y="288" on="1"/>
        <pt x="64" y="274" on="0"/>
        <pt x="54" y="265" on="1"/>
        <pt x="45" y="256" on="0"/>
        <pt x="32" y="256" on="1"/>
      </contour>
      <contour>
        <pt x="288" y="256" on="1"/>
        <pt x="274" y="256" on="0"/>
        <pt x="265" y="265" on="1"/>
        <pt x="256" y="274" on="0"/>
        <pt x="256" y="288" on="1"/>
        <pt x="256" y="301" on="0"/>
        <pt x="265" y="310" on="1"/>
        <pt x="274" y="320" on="0"/>
        <pt x="288" y="320" on="1"/>
        <pt x="301" y="320" on="0"/>
        <pt x="310" y="310" on="1"/>
        <pt x="320" y="301" on="0"/>
        <pt x="320" y="288" on="1"/>
        <pt x="320" y="274" on="0"/>
        <pt x="310" y="265" on="1"/>
        <pt x="301" y="256" on="0"/>
        <pt x="288" y="256" on="1"/>
      </contour>
      <contour>
        <pt x="32" y="320" on="1"/>
        <pt x="18" y="320" on="0"/>
        <pt x="9" y="329" on="1"/>
        <pt x="0" y="338" on="0"/>
        <pt x="0" y="352" on="1"/>
        <pt x="0" y="365" on="0"/>
        <pt x="9" y="374" on="1"/>
        <pt x="18" y="384" on="0"/>
        <pt x="32" y="384" on="1"/>
        <pt x="45" y="384" on="0"/>
        <pt x="54" y="374" on="1"/>
        <pt x="64" y="365" on="0"/>
        <pt x="64" y="352" on="1"/>
        <pt x="64" y="338" on="0"/>
        <pt x="54" y="329" on="1"/>
        <pt x="45" y="320" on="0"/>
        <pt x="32" y="320" on="1"/>
      </contour>
      <contour>
        <pt x="288" y="320" on="1"/>
        <pt x="274" y="320" on="0"/>
        <pt x="265" y="329" on="1"/>
        <pt x="256" y="338" on="0"/>
        <pt x="256" y="352" on="1"/>
        <pt x="256" y="365" on="0"/>
        <pt x="265" y="374" on="1"/>
        <pt x="274" y="384" on="0"/>
        <pt x="288" y="384" on="1"/>
        <pt x="301" y="384" on="0"/>
        <pt x="310" y="374" on="1"/>
        <pt x="320" y="365" on="0"/>
        <pt x="320" y="352" on="1"/>
        <pt x="320" y="338" on="0"/>
        <pt x="310" y="329" on="1"/>
        <pt x="301" y="320" on="0"/>
        <pt x="288" y="320" on="1"/>
      </contour>
      <contour>
        <pt x="32" y="384" on="1"/>
        <pt x="18" y="384" on="0"/>
        <pt x="9" y="393" on="1"/>
        <pt x="0" y="402" on="0"/>
        <pt x="0" y="416" on="1"/>
        <pt x="0" y="429" on="0"/>
        <pt x="9" y="438" on="1"/>
        <pt x="18" y="448" on="0"/>
        <pt x="32" y="448" on="1"/>
        <pt x="45" y="448" on="0"/>
        <pt x="54" y="438" on="1"/>
        <pt x="64" y="429" on="0"/>
        <pt x="64" y="416" on="1"/>
        <pt x="64" y="402" on="0"/>
        <pt x="54" y="393" on="1"/>
        <pt x="45" y="384" on="0"/>
        <pt x="32" y="384" on="1"/>
      </contour>
      <contour>
        <pt x="96" y="384" on="1"/>
        <pt x="82" y="384" on="0"/>
        <pt x="73" y="393" on="1"/>
        <pt x="64" y="402" on="0"/>
        <pt x="64" y="416" on="1"/>
        <pt x="64" y="429" on="0"/>
        <pt x="73" y="438" on="1"/>
        <pt x="82" y="448" on="0"/>
        <pt x="96" y="448" on="1"/>
        <pt x="109" y="448" on="0"/>
        <pt x="118" y="438" on="1"/>
        <pt x="128" y="429" on="0"/>
        <pt x="128" y="416" on="1"/>
        <pt x="128" y="402" on="0"/>
        <pt x="118" y="393" on="1"/>
        <pt x="109" y="384" on="0"/>
        <pt x="96" y="384" on="1"/>
      </contour>
      <contour>
        <pt x="160" y="384" on="1"/>
        <pt x="146" y="384" on="0"/>
        <pt x="137" y="393" on="1"/>
        <pt x="128" y="402" on="0"/>
        <pt x="128" y="416" on="1"/>
        <pt x="128" y="429" on="0"/>
        <pt x="137" y="438" on="1"/>
        <pt x="146" y="448" on="0"/>
        <pt x="160" y="448" on="1"/>
        <pt x="173" y="448" on="0"/>
        <pt x="182" y="438" on="1"/>
        <pt x="192" y="429" on="0"/>
        <pt x="192" y="416" on="1"/>
        <pt x="192" y="402" on="0"/>
        <pt x="182" y="393" on="1"/>
        <pt x="173" y="384" on="0"/>
        <pt x="160" y="384" on="1"/>
      </contour>
      <contour>
        <pt x="224" y="384" on="1"/>
        <pt x="210" y="384" on="0"/>
        <pt x="201" y="393" on="1"/>
        <pt x="192" y="402" on="0"/>
        <pt x="192" y="416" on="1"/>
        <pt x="192" y="429" on="0"/>
        <pt x="201" y="438" on="1"/>
        <pt x="210" y="448" on="0"/>
        <pt x="224" y="448" on="1"/>
        <pt x="237" y="448" on="0"/>
        <pt x="246" y="438" on="1"/>
        <pt x="256" y="429" on="0"/>
        <pt x="256" y="416" on="1"/>
        <pt x="256" y="402" on="0"/>
        <pt x="246" y="393" on="1"/>
        <pt x="237" y="384" on="0"/>
        <pt x="224" y="384" on="1"/>
      </contour>
    </TTGlyph>
    <TTGlyph name="Q" xMin="0" yMin="0" xMax="320" yMax="448">
      <contour>
        <pt x="96" y="0" on="1"/>
        <pt x="82" y="0" on="0"/>
        <pt x="73" y="9" on="1"/>
        <pt x="64" y="18" on="0"/>
        <pt x="64" y="32" on="1"/>
        <pt x="64" y="45" on="0"/>
        <pt x="73" y="54" on="1"/>
        <pt x="82" y="64" on="0"/>
        <pt x="96" y="64" on="1"/>
        <pt x="109" y="64" on="0"/>
        <pt x="118" y="54" on="1"/>
        <pt x="128" y="45" on="0"/>
        <pt x="128" y="32" on="1"/>
        <pt x="128" y="18" on="0"/>
        <pt x="118" y="9" on="1"/>
        <pt x="109" y="0" on="0"/>
        <pt x="96" y="0" on="1"/>
      </contour>
      <contour>
        <pt x="160" y="0" on="1"/>
        <pt x="146" y="0" on="0"/>
        <pt x="137" y="9" on="1"/>
        <pt x="128" y="18" on="0"/>
        <pt x="128" y="32" on="1"/>
        <pt x="128" y="45" on="0"/>
        <pt x="137" y="54" on="1"/>
        <pt x="146" y="64" on="0"/>
        <pt x="160" y="64" on="1"/>
        <pt x="173" y="64" on="0"/>
        <pt x="182" y="54" on="1"/>
        <pt x="192" y="45" on="0"/>
        <pt x="192" y="32" on="1"/>
        <pt x="192" y="18" on="0"/>
        <pt x="182" y="9" on="1"/>
        <pt x="173" y="0" on="0"/>
        <pt x="160" y="0" on="1"/>
      </contour>
      <contour>
        <pt x="224" y="0" on="1"/>
        <pt x="210" y="0" on="0"/>
        <pt x="201" y="9" on="1"/>
        <pt x="192" y="18" on="0"/>
        <pt x="192" y="32" on="1"/>
        <pt x="192" y="45" on="0"/>
        <pt x="201" y="54" on="1"/>
        <pt x="210" y="64" on="0"/>
        <pt x="224" y="64" on="1"/>
        <pt x="237" y="64" on="0"/>
        <pt x="246" y="54" on="1"/>
        <pt x="256" y="45" on="0"/>
        <pt x="256" y="32" on="1"/>
        <pt x="256" y="18" on="0"/>
        <pt x="246" y="9" on="1"/>
        <pt x="237" y="0" on="0"/>
        <pt x="224" y="0" on="1"/>
      </contour>
      <contour>
        <pt x="32" y="64" on="1"/>
        <pt x="18" y="64" on="0"/>
        <pt x="9" y="73" on="1"/>
        <pt x="0" y="82" on="0"/>
        <pt x="0" y="96" on="1"/>
        <pt x="0" y="109" on="0"/>
        <pt x="9" y="118" on="1"/>
        <pt x="18" y="128" on="0"/>
        <pt x="32" y="128" on="1"/>
        <pt x="45" y="128" on="0"/>
        <pt x="54" y="118" on="1"/>
        <pt x="64" y="109" on="0"/>
        <pt x="64" y="96" on="1"/>
        <pt x="64" y="82" on="0"/>
        <pt x="54" y="73" on="1"/>
        <pt x="45" y="64" on="0"/>
        <pt x="32" y="64" on="1"/>
      </contour>
      <contour>
        <pt x="224" y="64" on="1"/>
        <pt x="210" y="64" on="0"/>
        <pt x="201" y="73" on="1"/>
        <pt x="192" y="82" on="0"/>
        <pt x="192" y="96" on="1"/>
        <pt x="192" y="109" on="0"/>
        <pt x="201" y="118" on="1"/>
        <pt x="210" y="128" on="0"/>
        <pt x="224" y="128" on="1"/>
        <pt x="237" y="128" on="0"/>
        <pt x="246" y="118" on="1"/>
        <pt x="256" y="109" on="0"/>
        <pt x="256" y="96" on="1"/>
        <pt x="256" y="82" on="0"/>
        <pt x="246" y="73" on="1"/>
        <pt x="237" y="64" on="0"/>
        <pt x="224" y="64" on="1"/>
      </contour>
      <contour>
        <pt x="288" y="64" on="1"/>
        <pt x="274" y="64" on="0"/>
        <pt x="265" y="73" on="1"/>
        <pt x="256" y="82" on="0"/>
        <pt x="256" y="96" on="1"/>
        <pt x="256" y="109" on="0"/>
        <pt x="265" y="118" on="1"/>
        <pt x="274" y="128" on="0"/>
        <pt x="288" y="128" on="1"/>
        <pt x="301" y="128" on="0"/>
        <pt x="310" y="118" on="1"/>
        <pt x="320" y="109" on="0"/>
        <pt x="320" y="96" on="1"/>
        <pt x="320" y="82" on="0"/>
        <pt x="310" y="73" on="1"/>
        <pt x="301" y="64" on="0"/>
        <pt x="288" y="64" on="1"/>
      </contour>
      <contour>
        <pt x="32" y="128" on="1"/>
        <pt x="18" y="128" on="0"/>
        <pt x="9" y="137" on="1"/>
        <pt x="0" y="146" on="0"/>
        <pt x="0" y="160" on="1"/>
        <pt x="0" y="173" on="0"/>
        <pt x="9" y="182" on="1"/>
        <pt x="18" y="192" on="0"/>
        <pt x="32" y="192" on="1"/>
        <pt x="45" y="192" on="0"/>
        <pt x="54" y="182" on="1"/>
        <pt x="64" y="173" on="0"/>
        <pt x="64" y="160" on="1"/>
        <pt x="64" y="146" on="0"/>
        <pt x="54" y="137" on="1"/>
        <pt x="45" y="128" on="0"/>
        <pt x="32" y="128" on="1"/>
      </contour>
      <contour>
        <pt x="160" y="128" on="1"/>
        <pt x="146" y="128" on="0"/>
        <pt x="137" y="137" on="1"/>
        <pt x="128" y="146" on="0"/>
        <pt x="128" y="160" on="1"/>
        <pt x="128" y="173" on="0"/>
        <pt x="137" y="182" on="1"/>
        <pt x="146" y="192" on="0"/>
        <pt x="160" y="192" on="1"/>
        <pt x="173" y="192" on="0"/>
        <pt x="182" y="182" on="1"/>
        <pt x="192" y="173" on="0"/>
        <pt x="192" y="160" on="1"/>
        <pt x="192" y="146" on="0"/>
        <pt x="182" y="137" on="1"/>
        <pt x="173" y="128" on="0"/>
        <pt x="160" y="128" on="1"/>
      </contour>
      <contour>
        <pt x="288" y="128" on="1"/>
        <pt x="274" y="128" on="0"/>
        <pt x="265" y="137" on="1"/>
        <pt x="256" y="146" on="0"/>
        <pt x="256" y="160" on="1"/>
        <pt x="256" y="173" on="0"/>
        <pt x="265" y="182" on="1"/>
        <pt x="274" y="192" on="0"/>
        <pt x="288" y="192" on="1"/>
        <pt x="301" y="192" on="0"/>
        <pt x="310" y="182" on="1"/>
        <pt x="320" y="173" on="0"/>
        <pt x="320" y="160" on="1"/>
        <pt x="320" y="146" on="0"/>
        <pt x="310" y="137" on="1"/>
        <pt x="301" y="128" on="0"/>
        <pt x="288" y="128" on="1"/>
      </contour>
      <contour>
        <pt x="32" y="192" on="1"/>
        <pt x="18" y="192" on="0"/>
        <pt x="9" y="201" on="1"/>
        <pt x="0" y="210" on="0"/>
        <pt x="0" y="224" on="1"/>
        <pt x="0" y="237" on="0"/>
        <pt x="9" y="246" on="1"/>
        <pt x="18" y="256" on="0"/>
        <pt x="32" y="256" on="1"/>
        <pt x="45" y="256" on="0"/>
        <pt x="54" y="246" on="1"/>
        <pt x="64" y="237" on="0"/>
        <pt x="64" y="224" on="1"/>
        <pt x="64" y="210" on="0"/>
        <pt x="54" y="201" on="1"/>
        <pt x="45" y="192" on="0"/>
        <pt x="32" y="192" on="1"/>
      </contour>
      <contour>
        <pt x="288" y="192" on="1"/>
        <pt x="274" y="192" on="0"/>
        <pt x="265" y="201" on="1"/>
        <pt x="256" y="210" on="0"/>
        <pt x="256" y="224" on="1"/>
        <pt x="256" y="237" on="0"/>
        <pt x="265" y="246" on="1"/>
        <pt x="274" y="256" on="0"/>
        <pt x="288" y="256" on="1"/>
        <pt x="301" y="256" on="0"/>
        <pt x="310" y="246" on="1"/>
        <pt x="320" y="237" on="0"/>
        <pt x="320" y="224" on="1"/>
        <pt x="320" y="210" on="0"/>
        <pt x="310" y="201" on="1"/>
        <pt x="301" y="192" on="0"/>
        <pt x="288" y="192" on="1"/>
      </contour>
      <contour>
        <pt x="32" y="256" on="1"/>
        <pt x="18" y="256" on="0"/>
        <pt x="9" y="265" on="1"/>
        <pt x="0" y="274" on="0"/>
        <pt x="0" y="288" on="1"/>
        <pt x="0" y="301" on="0"/>
        <pt x="9" y="310" on="1"/>
        <pt x="18" y="320" on="0"/>
        <pt x="32" y="320" on="1"/>
        <pt x="45" y="320" on="0"/>
        <pt x="54" y="310" on="1"/>
        <pt x="64" y="301" on="0"/>
        <pt x="64" y="288" on="1"/>
        <pt x="64" y="274" on="0"/>
        <pt x="54" y="265" on="1"/>
        <pt x="45" y="256" on="0"/>
        <pt x="32" y="256" on="1"/>
      </contour>
      <contour>
        <pt x="288" y="256" on="1"/>
        <pt x="274" y="256" on="0"/>
        <pt x="265" y="265" on="1"/>
        <pt x="256" y="274" on="0"/>
        <pt x="256" y="288" on="1"/>
        <pt x="256" y="301" on="0"/>
        <pt x="265" y="310" on="1"/>
        <pt x="274" y="320" on="0"/>
        <pt x="288" y="320" on="1"/>
        <pt x="301" y="320" on="0"/>
        <pt x="310" y="310" on="1"/>
        <pt x="320" y="301" on="0"/>
        <pt x="320" y="288" on="1"/>
        <pt x="320" y="274" on="0"/>
        <pt x="310" y="265" on="1"/>
        <pt x="301" y="256" on="0"/>
        <pt x="288" y="256" on="1"/>
      </contour>
      <contour>
        <pt x="32" y="320" on="1"/>
        <pt x="18" y="320" on="0"/>
        <pt x="9" y="329" on="1"/>
        <pt x="0" y="338" on="0"/>
        <pt x="0" y="352" on="1"/>
        <pt x="0" y="365" on="0"/>
        <pt x="9" y="374" on="1"/>
        <pt x="18" y="384" on="0"/>
        <pt x="32" y="384" on="1"/>
        <pt x="45" y="384" on="0"/>
        <pt x="54" y="374" on="1"/>
        <pt x="64" y="365" on="0"/>
        <pt x="64" y="352" on="1"/>
        <pt x="64" y="338" on="0"/>
        <pt x="54" y="329" on="1"/>
        <pt x="45" y="320" on="0"/>
        <pt x="32" y="320" on="1"/>
      </contour>
      <contour>
        <pt x="288" y="320" on="1"/>
        <pt x="274" y="320" on="0"/>
        <pt x="265" y="329" on="1"/>
        <pt x="256" y="338" on="0"/>
        <pt x="256" y="352" on="1"/>
        <pt x="256" y="365" on="0"/>
        <pt x="265" y="374" on="1"/>
        <pt x="274" y="384" on="0"/>
        <pt x="288" y="384" on="1"/>
        <pt x="301" y="384" on="0"/>
        <pt x="310" y="374" on="1"/>
        <pt x="320" y="365" on="0"/>
        <pt x="320" y="352" on="1"/>
        <pt x="320" y="338" on="0"/>
        <pt x="310" y="329" on="1"/>
        <pt x="301" y="320" on="0"/>
        <pt x="288" y="320" on="1"/>
      </contour>
      <contour>
        <pt x="96" y="384" on="1"/>
        <pt x="82" y="384" on="0"/>
        <pt x="73" y="393" on="1"/>
        <pt x="64" y="402" on="0"/>
        <pt x="64" y="416" on="1"/>
        <pt x="64" y="429" on="0"/>
        <pt x="73" y="438" on="1"/>
        <pt x="82" y="448" on="0"/>
        <pt x="96" y="448" on="1"/>
        <pt x="109" y="448" on="0"/>
        <pt x="118" y="438" on="1"/>
        <pt x="128" y="429" on="0"/>
        <pt x="128" y="416" on="1"/>
        <pt x="128" y="402" on="0"/>
        <pt x="118" y="393" on="1"/>
        <pt x="109" y="384" on="0"/>
        <pt x="96" y="384" on="1"/>
      </contour>
      <contour>
        <pt x="160" y="384" on="1"/>
        <pt x="146" y="384" on="0"/>
        <pt x="137" y="393" on="1"/>
        <pt x="128" y="402" on="0"/>
        <pt x="128" y="416" on="1"/>
        <pt x="128" y="429" on="0"/>
        <pt x="137" y="438" on="1"/>
        <pt x="146" y="448" on="0"/>
        <pt x="160" y="448" on="1"/>
        <pt x="173" y="448" on="0"/>
        <pt x="182" y="438" on="1"/>
        <pt x="192" y="429" on="0"/>
        <pt x="192" y="416" on="1"/>
        <pt x="192" y="402" on="0"/>
        <pt x="182" y="393" on="1"/>
        <pt x="173" y="384" on="0"/>
        <pt x="160" y="384" on="1"/>
      </contour>
      <contour>
        <pt x="224" y="384" on="1"/>
        <pt x="210" y="384" on="0"/>
        <pt x="201" y="393" on="1"/>
        <pt x="192" y="402" on="0"/>
        <pt x="192" y="416" on="1"/>
        <pt x="192" y="429" on="0"/>
        <pt x="201" y="438" on="1"/>
        <pt x="210" y="448" on="0"/>
        <pt x="224" y="448" on="1"/>
        <pt x="237" y="448" on="0"/>
        <pt x="246" y="438" on="1"/>
        <pt x="256" y="429" on="0"/>
        <pt x="256" y="416" on="1"/>
        <pt x="256" y="402" on="0"/>
        <pt x="246" y="393" on="1"/>
        <pt x="237" y="384" on="0"/>
        <pt x="224" y="384" on="1"/>
      </contour>
    </TTGlyph>
    <TTGlyph name="R" xMin="0" yMin="0" xMax="320" yMax="448">
      <contour>
        <pt x="32" y="0" on="1"/>
        <pt x="18" y="0" on="0"/>
        <pt x="9" y="9" on="1"/>
        <pt x="0" y="18" on="0"/>
        <pt x="0" y="32" on="1"/>
        <pt x="0" y="45" on="0"/>
        <pt x="9" y="54" on="1"/>
        <pt x="18" y="64" on="0"/>
        <pt x="32" y="64" on="1"/>
        <pt x="45" y="64" on="0"/>
        <pt x="54" y="54" on="1"/>
        <pt x="64" y="45" on="0"/>
        <pt x="64" y="32" on="1"/>
        <pt x="64" y="18" on="0"/>
        <pt x="54" y="9" on="1"/>
        <pt x="45" y="0" on="0"/>
        <pt x="32" y="0" on="1"/>
      </contour>
      <contour>
        <pt x="288" y="0" on="1"/>
        <pt x="274" y="0" on="0"/>
        <pt x="265" y="9" on="1"/>
        <pt x="256" y="18" on="0"/>
        <pt x="256" y="32" on="1"/>
        <pt x="256" y="45" on="0"/>
        <pt x="265" y="54" on="1"/>
        <pt x="274" y="64" on="0"/>
        <pt x="288" y="64" on="1"/>
        <pt x="301" y="64" on="0"/>
        <pt x="310" y="54" on="1"/>
        <pt x="320" y="45" on="0"/>
        <pt x="320" y="32" on="1"/>
        <pt x="320" y="18" on="0"/>
        <pt x="310" y="9" on="1"/>
        <pt x="301" y="0" on="0"/>
        <pt x="288" y="0" on="1"/>
      </contour>
      <contour>
        <pt x="32" y="64" on="1"/>
        <pt x="18" y="64" on="0"/>
        <pt x="9" y="73" on="1"/>
        <pt x="0" y="82" on="0"/>
        <pt x="0" y="96" on="1"/>
        <pt x="0" y="109" on="0"/>
        <pt x="9" y="118" on="1"/>
        <pt x="18" y="128" on="0"/>
        <pt x="32" y="128" on="1"/>
        <pt x="45" y="128" on="0"/>
        <pt x="54" y="118" on="1"/>
        <pt x="64" y="109" on="0"/>
        <pt x="64" y="96" on="1"/>
        <pt x="64" y="82" on="0"/>
        <pt x="54" y="73" on="1"/>
        <pt x="45" y="64" on="0"/>
        <pt x="32" y="64" on="1"/>
      </contour>
      <contour>
        <pt x="224" y="64" on="1"/>
        <pt x="210" y="64" on="0"/>
        <pt x="201" y="73" on="1"/>
        <pt x="192" y="82" on="0"/>
        <pt x="192" y="96" on="1"/>
        <pt x="192" y="109" on="0"/>
        <pt x="201" y="118" on="1"/>
        <pt x="210" y="128" on="0"/>
        <pt x="224" y="128" on="1"/>
        <pt x="237" y="128" on="0"/>
        <pt x="246" y="118" on="1"/>
        <pt x="256" y="109" on="0"/>
        <pt x="256" y="96" on="1"/>
        <pt x="256" y="82" on="0"/>
        <pt x="246" y="73" on="1"/>
        <pt x="237" y="64" on="0"/>
        <pt x="224" y="64" on="1"/>
      </contour>
      <contour>
        <pt x="32" y="128" on="1"/>
        <pt x="18" y="128" on="0"/>
        <pt x="9" y="137" on="1"/>
        <pt x="0" y="146" on="0"/>
        <pt x="0" y="160" on="1"/>
        <pt x="0" y="173" on="0"/>
        <pt x="9" y="182" on="1"/>
        <pt x="18" y="192" on="0"/>
        <pt x="32" y="192" on="1"/>
        <pt x="45" y="192" on="0"/>
        <pt x="54" y="182" on="1"/>
        <pt x="64" y="173" on="0"/>
        <pt x="64" y="160" on="1"/>
        <pt x="64" y="146" on="0"/>
        <pt x="54" y="137" on="1"/>
        <pt x="45" y="128" on="0"/>
        <pt x="32" y="128" on="1"/>
      </contour>
      <contour>
        <pt x="160" y="128" on="1"/>
        <pt x="146" y="128" on="0"/>
        <pt x="137" y="137" on="1"/>
        <pt x="128" y="146" on="0"/>
        <pt x="128" y="160" on="1"/>
        <pt x="128" y="173" on="0"/>
        <pt x="137" y="182" on="1"/>
        <pt x="146" y="192" on="0"/>
        <pt x="160" y="192" on="1"/>
        <pt x="173" y="192" on="0"/>
        <pt x="182" y="182" on="1"/>
        <pt x="192" y="173" on="0"/>
        <pt x="192" y="160" on="1"/>
        <pt x="192" y="146" on="0"/>
        <pt x="182" y="137" on="1"/>
        <pt x="173" y="128" on="0"/>
        <pt x="160" y="128" on="1"/>
      </contour>
      <contour>
        <pt x="32" y="192" on="1"/>
        <pt x="18" y="192" on="0"/>
        <pt x="9" y="201" on="1"/>
        <pt x="0" y="210" on="0"/>
        <pt x="0" y="224" on="1"/>
        <pt x="0" y="237" on="0"/>
        <pt x="9" y="246" on="1"/>
        <pt x="18" y="256" on="0"/>
        <pt x="32" y="256" on="1"/>
        <pt x="45" y="256" on="0"/>
        <pt x="54" y="246" on="1"/>
        <pt x="64" y="237" on="0"/>
        <pt x="64" y="224" on="1"/>
        <pt x="64" y="210" on="0"/>
        <pt x="54" y="201" on="1"/>
        <pt x="45" y="192" on="0"/>
        <pt x="32" y="192" on="1"/>
      </contour>
      <contour>
        <pt x="96" y="192" on="1"/>
        <pt x="82" y="192" on="0"/>
        <pt x="73" y="201" on="1"/>
        <pt x="64" y="210" on="0"/>
        <pt x="64" y="224" on="1"/>
        <pt x="64" y="237" on="0"/>
        <pt x="73" y="246" on="1"/>
        <pt x="82" y="256" on="0"/>
        <pt x="96" y="256" on="1"/>
        <pt x="109" y="256" on="0"/>
        <pt x="118" y="246" on="1"/>
        <pt x="128" y="237" on="0"/>
        <pt x="128" y="224" on="1"/>
        <pt x="128" y="210" on="0"/>
        <pt x="118" y="201" on="1"/>
        <pt x="109" y="192" on="0"/>
        <pt x="96" y="192" on="1"/>
      </contour>
      <contour>
        <pt x="160" y="192" on="1"/>
        <pt x="146" y="192" on="0"/>
        <pt x="137" y="201" on="1"/>
        <pt x="128" y="210" on="0"/>
        <pt x="128" y="224" on="1"/>
        <pt x="128" y="237" on="0"/>
        <pt x="137" y="246" on="1"/>
        <pt x="146" y="256" on="0"/>
        <pt x="160" y="256" on="1"/>
        <pt x="173" y="256" on="0"/>
        <pt x="182" y="246" on="1"/>
        <pt x="192" y="237" on="0"/>
        <pt x="192" y="224" on="1"/>
        <pt x="192" y="210" on="0"/>
        <pt x="182" y="201" on="1"/>
        <pt x="173" y="192" on="0"/>
        <pt x="160" y="192" on="1"/>
      </contour>
      <contour>
        <pt x="224" y="192" on="1"/>
        <pt x="210" y="192" on="0"/>
        <pt x="201" y="201" on="1"/>
        <pt x="192" y="210" on="0"/>
        <pt x="192" y="224" on="1"/>
        <pt x="192" y="237" on="0"/>
        <pt x="201" y="246" on="1"/>
        <pt x="210" y="256" on="0"/>
        <pt x="224" y="256" on="1"/>
        <pt x="237" y="256" on="0"/>
        <pt x="246" y="246" on="1"/>
        <pt x="256" y="237" on="0"/>
        <pt x="256" y="224" on="1"/>
        <pt x="256" y="210" on="0"/>
        <pt x="246" y="201" on="1"/>
        <pt x="237" y="192" on="0"/>
        <pt x="224" y="192" on="1"/>
      </contour>
      <contour>
        <pt x="32" y="256" on="1"/>
        <pt x="18" y="256" on="0"/>
        <pt x="9" y="265" on="1"/>
        <pt x="0" y="274" on="0"/>
        <pt x="0" y="288" on="1"/>
        <pt x="0" y="301" on="0"/>
        <pt x="9" y="310" on="1"/>
        <pt x="18" y="320" on="0"/>
        <pt x="32" y="320" on="1"/>
        <pt x="45" y="320" on="0"/>
        <pt x="54" y="310" on="1"/>
        <pt x="64" y="301" on="0"/>
        <pt x="64" y="288" on="1"/>
        <pt x="64" y="274" on="0"/>
        <pt x="54" y="265" on="1"/>
        <pt x="45" y="256" on="0"/>
        <pt x="32" y="256" on="1"/>
      </contour>
      <contour>
        <pt x="288" y="256" on="1"/>
        <pt x="274" y="256" on="0"/>
        <pt x="265" y="265" on="1"/>
        <pt x="256" y="274" on="0"/>
        <pt x="256" y="288" on="1"/>
        <pt x="256" y="301" on="0"/>
        <pt x="265" y="310" on="1"/>
        <pt x="274" y="320" on="0"/>
        <pt x="288" y="320" on="1"/>
        <pt x="301" y="320" on="0"/>
        <pt x="310" y="310" on="1"/>
        <pt x="320" y="301" on="0"/>
        <pt x="320" y="288" on="1"/>
        <pt x="320" y="274" on="0"/>
        <pt x="310" y="265" on="1"/>
        <pt x="301" y="256" on="0"/>
        <pt x="288" y="256" on="1"/>
      </contour>
      <contour>
        <pt x="32" y="320" on="1"/>
        <pt x="18" y="320" on="0"/>
        <pt x="9" y="329" on="1"/>
        <pt x="0" y="338" on="0"/>
        <pt x="0" y="352" on="1"/>
        <pt x="0" y="365" on="0"/>
        <pt x="9" y="374" on="1"/>
        <pt x="18" y="384" on="0"/>
        <pt x="32" y="384" on="1"/>
        <pt x="45" y="384" on="0"/>
        <pt x="54" y="374" on="1"/>
        <pt x="64" y="365" on="0"/>
        <pt x="64" y="352" on="1"/>
        <pt x="64" y="338" on="0"/>
        <pt x="54" y="329" on="1"/>
        <pt x="45" y="320" on="0"/>
        <pt x="32" y="320" on="1"/>
      </contour>
      <contour>
        <pt x="288" y="320" on="1"/>
        <pt x="274" y="320" on="0"/>
        <pt x="265" y="329" on="1"/>
        <pt x="256" y="338" on="0"/>
        <pt x="256" y="352" on="1"/>
        <pt x="256" y="365" on="0"/>
        <pt x="265" y="374" on="1"/>
        <pt x="274" y="384" on="0"/>
        <pt x="288" y="384" on="1"/>
        <pt x="301" y="384" on="0"/>
        <pt x="310" y="374" on="1"/>
        <pt x="320" y="365" on="0"/>
        <pt x="320" y="352" on="1"/>
        <pt x="320" y="338" on="0"/>
        <pt x="310" y="329" on="1"/>
        <pt x="301" y="320" on="0"/>
        <pt x="288" y="320" on="1"/>
      </contour>
      <contour>
        <pt x="32" y="384" on="1"/>
        <pt x="18" y="384" on="0"/>
        <pt x="9" y="393" on="1"/>
        <pt x="0" y="402" on="0"/>
        <pt x="0" y="416" on="1"/>
        <pt x="0" y="429" on="0"/>
        <pt x="9" y="438" on="1"/>
        <pt x="18" y="448" on="0"/>
        <pt x="32" y="448" on="1"/>
        <pt x="45" y="448" on="0"/>
        <pt x="54" y="438" on="1"/>
        <pt x="64" y="429" on="0"/>
        <pt x="64" y="416" on="1"/>
        <pt x="64" y="402" on="0"/>
        <pt x="54" y="393" on="1"/>
        <pt x="45" y="384" on="0"/>
        <pt x="32" y="384" on="1"/>
      </contour>
      <contour>
        <pt x="96" y="384" on="1"/>
        <pt x="82" y="384" on="0"/>
        <pt x="73" y="393" on="1"/>
        <pt x="64" y="402" on="0"/>
        <pt x="64" y="416" on="1"/>
        <pt x="64" y="429" on="0"/>
        <pt x="73" y="438" on="1"/>
        <pt x="82" y="448" on="0"/>
        <pt x="96" y="448" on="1"/>
        <pt x="109" y="448" on="0"/>
        <pt x="118" y="438" on="1"/>
        <pt x="128" y="429" on="0"/>
        <pt x="128" y="416" on="1"/>
        <pt x="128" y="402" on="0"/>
        <pt x="118" y="393" on="1"/>
        <pt x="109" y="384" on="0"/>
        <pt x="96" y="384" on="1"/>
      </contour>
      <contour>
        <pt x="160" y="384" on="1"/>
        <pt x="146" y="384" on="0"/>
        <pt x="137" y="393" on="1"/>
        <pt x="128" y="402" on="0"/>
        <pt x="128" y="416" on="1"/>
        <pt x="128" y="429" on="0"/>
        <pt x="137" y="438" on="1"/>
        <pt x="146" y="448" on="0"/>
        <pt x="160" y="448" on="1"/>
        <pt x="173" y="448" on="0"/>
        <pt x="182" y="438" on="1"/>
        <pt x="192" y="429" on="0"/>
        <pt x="192" y="416" on="1"/>
        <pt x="192" y="402" on="0"/>
        <pt x="182" y="393" on="1"/>
        <pt x="173" y="384" on="0"/>
        <pt x="160" y="384" on="1"/>
      </contour>
      <contour>
        <pt x="224" y="384" on="1"/>
        <pt x="210" y="384" on="0"/>
        <pt x="201" y="393" on="1"/>
        <pt x="192" y="402" on="0"/>
        <pt x="192" y="416" on="1"/>
        <pt x="192" y="429" on="0"/>
        <pt x="201" y="438" on="1"/>
        <pt x="210" y="448" on="0"/>
        <pt x="224" y="448" on="1"/>
        <pt x="237" y="448" on="0"/>
        <pt x="246" y="438" on="1"/>
        <pt x="256" y="429" on="0"/>
        <pt x="256" y="416" on="1"/>
        <pt x="256" y="402" on="0"/>
        <pt x="246" y="393" on="1"/>
        <pt x="237" y="384" on="0"/>
        <pt x="224" y="384" on="1"/>
      </contour>
    </TTGlyph>
    <TTGlyph name="S" xMin="0" yMin="0" xMax="320" yMax="448">
      <contour>
        <pt x="96" y="0" on="1"/>
        <pt x="82" y="0" on="0"/>
        <pt x="73" y="9" on="1"/>
        <pt x="64" y="18" on="0"/>
        <pt x="64" y="32" on="1"/>
        <pt x="64" y="45" on="0"/>
        <pt x="73" y="54" on="1"/>
        <pt x="82" y="64" on="0"/>
        <pt x="96" y="64" on="1"/>
        <pt x="109" y="64" on="0"/>
        <pt x="118" y="54" on="1"/>
        <pt x="128" y="45" on="0"/>
        <pt x="128" y="32" on="1"/>
        <pt x="128" y="18" on="0"/>
        <pt x="118" y="9" on="1"/>
        <pt x="109" y="0" on="0"/>
        <pt x="96" y="0" on="1"/>
      </contour>
      <contour>
        <pt x="160" y="0" on="1"/>
        <pt x="146" y="0" on="0"/>
        <pt x="137" y="9" on="1"/>
        <pt x="128" y="18" on="0"/>
        <pt x="128" y="32" on="1"/>
        <pt x="128" y="45" on="0"/>
        <pt x="137" y="54" on="1"/>
        <pt x="146" y="64" on="0"/>
        <pt x="160" y="64" on="1"/>
        <pt x="173" y="64" on="0"/>
        <pt x="182" y="54" on="1"/>
        <pt x="192" y="45" on="0"/>
        <pt x="192" y="32" on="1"/>
        <pt x="192" y="18" on="0"/>
        <pt x="182" y="9" on="1"/>
        <pt x="173" y="0" on="0"/>
        <pt x="160" y="0" on="1"/>
      </contour>
      <contour>
        <pt x="224" y="0" on="1"/>
        <pt x="210" y="0" on="0"/>
        <pt x="201" y="9" on="1"/>
        <pt x="192" y="18" on="0"/>
        <pt x="192" y="32" on="1"/>
        <pt x="192" y="45" on="0"/>
        <pt x="201" y="54" on="1"/>
        <pt x="210" y="64" on="0"/>
        <pt x="224" y="64" on="1"/>
        <pt x="237" y="64" on="0"/>
        <pt x="246" y="54" on="1"/>
        <pt x="256" y="45" on="0"/>
        <pt x="256" y="32" on="1"/>
        <pt x="256" y="18" on="0"/>
        <pt x="246" y="9" on="1"/>
        <pt x="237" y="0" on="0"/>
        <pt x="224" y="0" on="1"/>
      </contour>
      <contour>
        <pt x="32" y="64" on="1"/>
        <pt x="18" y="64" on="0"/>
        <pt x="9" y="73" on="1"/>
        <pt x="0" y="82" on="0"/>
        <pt x="0" y="96" on="1"/>
        <pt x="0" y="109" on="0"/>
        <pt x="9" y="118" on="1"/>
        <pt x="18" y="128" on="0"/>
        <pt x="32" y="128" on="1"/>
        <pt x="45" y="128" on="0"/>
        <pt x="54" y="118" on="1"/>
        <pt x="64" y="109" on="0"/>
        <pt x="64" y="96" on="1"/>
        <pt x="64" y="82" on="0"/>
        <pt x="54" y="73" on="1"/>
        <pt x="45" y="64" on="0"/>
        <pt x="32" y="64" on="1"/>
      </contour>
      <contour>
        <pt x="288" y="64" on="1"/>
        <pt x="274" y="64" on="0"/>
        <pt x="265" y="73" on="1"/>
        <pt x="256" y="82" on="0"/>
        <pt x="256" y="96" on="1"/>
        <pt x="256" y="109" on="0"/>
        <pt x="265" y="118" on="1"/>
        <pt x="274" y="128" on="0"/>
        <pt x="288" y="128" on="1"/>
        <pt x="301" y="128" on="0"/>
        <pt x="310" y="118" on="1"/>
        <pt x="320" y="109" on="0"/>
        <pt x="320" y="96" on="1"/>
        <pt x="320" y="82" on="0"/>
        <pt x="310" y="73" on="1"/>
        <pt x="301" y="64" on="0"/>
        <pt x="288" y="64" on="1"/>
      </contour>
      <contour>
        <pt x="288" y="128" on="1"/>
        <pt x="274" y="128" on="0"/>
        <pt x="265" y="137" on="1"/>
        <pt x="256" y="146" on="0"/>
        <pt x="256" y="160" on="1"/>
        <pt x="256" y="173" on="0"/>
        <pt x="265" y="182" on="1"/>
        <pt x="274" y="192" on="0"/>
        <pt x="288" y="192" on="1"/>
        <pt x="301" y="192" on="0"/>
        <pt x="310" y="182" on="1"/>
        <pt x="320" y="173" on="0"/>
        <pt x="320" y="160" on="1"/>
        <pt x="320" y="146" on="0"/>
        <pt x="310" y="137" on="1"/>
        <pt x="301" y="128" on="0"/>
        <pt x="288" y="128" on="1"/>
      </contour>
      <contour>
        <pt x="96" y="192" on="1"/>
        <pt x="82" y="192" on="0"/>
        <pt x="73" y="201" on="1"/>
        <pt x="64" y="210" on="0"/>
        <pt x="64" y="224" on="1"/>
        <pt x="64" y="237" on="0"/>
        <pt x="73" y="246" on="1"/>
        <pt x="82" y="256" on="0"/>
        <pt x="96" y="256" on="1"/>
        <pt x="109" y="256" on="0"/>
        <pt x="118" y="246" on="1"/>
        <pt x="128" y="237" on="0"/>
        <pt x="128" y="224" on="1"/>
        <pt x="128" y="210" on="0"/>
        <pt x="118" y="201" on="1"/>
        <pt x="109" y="192" on="0"/>
        <pt x="96" y="192" on="1"/>
      </contour>
      <contour>
        <pt x="160" y="192" on="1"/>
        <pt x="146" y="192" on="0"/>
        <pt x="137" y="201" on="1"/>
        <pt x="128" y="210" on="0"/>
        <pt x="128" y="224" on="1"/>
        <pt x="128" y="237" on="0"/>
        <pt x="137" y="246" on="1"/>
        <pt x="146" y="256" on="0"/>
        <pt x="160" y="256" on="1"/>
        <pt x="173" y="256" on="0"/>
        <pt x="182" y="246" on="1"/>
        <pt x="192" y="237" on="0"/>
        <pt x="192" y="224" on="1"/>
        <pt x="192" y="210" on="0"/>
        <pt x="182" y="201" on="1"/>
        <pt x="173" y="192" on="0"/>
        <pt x="160" y="192" on="1"/>
      </contour>
      <contour>
        <pt x="224" y="192" on="1"/>
        <pt x="210" y="192" on="0"/>
        <pt x="201" y="201" on="1"/>
        <pt x="192" y="210" on="0"/>
        <pt x="192" y="224" on="1"/>
        <pt x="192" y="237" on="0"/>
        <pt x="201" y="246" on="1"/>
        <pt x="210" y="256" on="0"/>
        <pt x="224" y="256" on="1"/>
        <pt x="237" y="256" on="0"/>
        <pt x="246" y="246" on="1"/>
        <pt x="256" y="237" on="0"/>
        <pt x="256" y="224" on="1"/>
        <pt x="256" y="210" on="0"/>
        <pt x="246" y="201" on="1"/>
        <pt x="237" y="192" on="0"/>
        <pt x="224" y="192" on="1"/>
      </contour>
      <contour>
        <pt x="32" y="256" on="1"/>
        <pt x="18" y="256" on="0"/>
        <pt x="9" y="265" on="1"/>
        <pt x="0" y="274" on="0"/>
        <pt x="0" y="288" on="1"/>
        <pt x="0" y="301" on="0"/>
        <pt x="9" y="310" on="1"/>
        <pt x="18" y="320" on="0"/>
        <pt x="32" y="320" on="1"/>
        <pt x="45" y="320" on="0"/>
        <pt x="54" y="310" on="1"/>
        <pt x="64" y="301" on="0"/>
        <pt x="64" y="288" on="1"/>
        <pt x="64" y="274" on="0"/>
        <pt x="54" y="265" on="1"/>
        <pt x="45" y="256" on="0"/>
        <pt x="32" y="256" on="1"/>
      </contour>
      <contour>
        <pt x="32" y="320" on="1"/>
        <pt x="18" y="320" on="0"/>
        <pt x="9" y="329" on="1"/>
        <pt x="0" y="338" on="0"/>
        <pt x="0" y="352" on="1"/>
        <pt x="0" y="365" on="0"/>
        <pt x="9" y="374" on="1"/>
        <pt x="18" y="384" on="0"/>
        <pt x="32" y="384" on="1"/>
        <pt x="45" y="384" on="0"/>
        <pt x="54" y="374" on="1"/>
        <pt x="64" y="365" on="0"/>
        <pt x="64" y="352" on="1"/>
        <pt x="64" y="338" on="0"/>
        <pt x="54" y="329" on="1"/>
        <pt x="45" y="320" on="0"/>
        <pt x="32" y="320" on="1"/>
      </contour>
      <contour>
        <pt x="288" y="320" on="1"/>
        <pt x="274" y="320" on="0"/>
        <pt x="265" y="329" on="1"/>
        <pt x="256" y="338" on="0"/>
        <pt x="256" y="352" on="1"/>
        <pt x="256" y="365" on="0"/>
        <pt x="265" y="374" on="1"/>
        <pt x="274" y="384" on="0"/>
        <pt x="288" y="384" on="1"/>
        <pt x="301" y="384" on="0"/>
        <pt x="310" y="374" on="1"/>
        <pt x="320" y="365" on="0"/>
        <pt x="320" y="352" on="1"/>
        <pt x="320" y="338" on="0"/>
        <pt x="310" y="329" on="1"/>
        <pt x="301" y="320" on="0"/>
        <pt x="288" y="320" on="1"/>
      </contour>
      <contour>
        <pt x="96" y="384" on="1"/>
        <pt x="82" y="384" on="0"/>
        <pt x="73" y="393" on="1"/>
        <pt x="64" y="402" on="0"/>
        <pt x="64" y="416" on="1"/>
        <pt x="64" y="429" on="0"/>
        <pt x="73" y="438" on="1"/>
        <pt x="82" y="448" on="0"/>
        <pt x="96" y="448" on="1"/>
        <pt x="109" y="448" on="0"/>
        <pt x="118" y="438" on="1"/>
        <pt x="128" y="429" on="0"/>
        <pt x="128" y="416" on="1"/>
        <pt x="128" y="402" on="0"/>
        <pt x="118" y="393" on="1"/>
        <pt x="109" y="384" on="0"/>
        <pt x="96" y="384" on="1"/>
      </contour>
      <contour>
        <pt x="160" y="384" on="1"/>
        <pt x="146" y="384" on="0"/>
        <pt x="137" y="393" on="1"/>
        <pt x="128" y="402" on="0"/>
        <pt x="128" y="416" on="1"/>
        <pt x="128" y="429" on="0"/>
        <pt x="137" y="438" on="1"/>
        <pt x="146" y="448" on="0"/>
        <pt x="160" y="448" on="1"/>
        <pt x="173" y="448" on="0"/>
        <pt x="182" y="438" on="1"/>
        <pt x="192" y="429" on="0"/>
        <pt x="192" y="416" on="1"/>
        <pt x="192" y="402" on="0"/>
        <pt x="182" y="393" on="1"/>
        <pt x="173" y="384" on="0"/>
        <pt x="160" y="384" on="1"/>
      </contour>
      <contour>
        <pt x="224" y="384" on="1"/>
        <pt x="210" y="384" on="0"/>
        <pt x="201" y="393" on="1"/>
        <pt x="192" y="402" on="0"/>
        <pt x="192" y="416" on="1"/>
        <pt x="192" y="429" on="0"/>
        <pt x="201" y="438" on="1"/>
        <pt x="210" y="448" on="0"/>
        <pt x="224" y="448" on="1"/>
        <pt x="237" y="448" on="0"/>
        <pt x="246" y="438" on="1"/>
        <pt x="256" y="429" on="0"/>
        <pt x="256" y="416" on="1"/>
        <pt x="256" y="402" on="0"/>
        <pt x="246" y="393" on="1"/>
        <pt x="237" y="384" on="0"/>
        <pt x="224" y="384" on="1"/>
      </contour>
    </TTGlyph>
</ttFont>
